<?xml version="1.0" encoding="UTF-8" standalone="no"?>
<!DOCTYPE svg PUBLIC "-//W3C//DTD SVG 1.1//EN"
 "http://www.w3.org/Graphics/SVG/1.1/DTD/svg11.dtd">
<!-- Generated by graphviz version 2.50.0 (20211204.2007)
 -->
<!-- Title: ExerciseLogger/ExerciseLogger.cpp Pages: 1 -->
<svg width="381pt" height="378pt"
 viewBox="0.00 0.00 381.00 378.00" xmlns="http://www.w3.org/2000/svg" xmlns:xlink="http://www.w3.org/1999/xlink">
<g id="graph0" class="graph" transform="scale(1 1) rotate(0) translate(4 374)">
<title>ExerciseLogger/ExerciseLogger.cpp</title>
<polygon fill="white" stroke="transparent" points="-4,4 -4,-374 377,-374 377,4 -4,4"/>
<!-- Node1 -->
<g id="node1" class="node">
<title>Node1</title>
<g id="a_node1"><a xlink:title=" ">
<polygon fill="#bfbfbf" stroke="black" points="69.5,-348.5 69.5,-369.5 278.5,-369.5 278.5,-348.5 69.5,-348.5"/>
<text text-anchor="middle" x="174" y="-355.9" font-family="Helvetica,sans-Serif" font-size="12.00">ExerciseLogger/ExerciseLogger.cpp</text>
</a>
</g>
</g>
<!-- Node2 -->
<g id="node2" class="node">
<title>Node2</title>
<g id="a_node2"><a xlink:title=" ">
<polygon fill="white" stroke="#bfbfbf" points="0,-0.5 0,-21.5 62,-21.5 62,-0.5 0,-0.5"/>
<text text-anchor="middle" x="31" y="-7.9" font-family="Helvetica,sans-Serif" font-size="12.00">iostream</text>
</a>
</g>
</g>
<!-- Node1&#45;&gt;Node2 -->
<g id="edge1" class="edge">
<title>Node1&#45;&gt;Node2</title>
<path fill="none" stroke="midnightblue" d="M126.91,-348.48C75.38,-334.99 0,-304.85 0,-244 0,-244 0,-244 0,-126 0,-91.47 13.4,-53.06 22.58,-30.8"/>
<polygon fill="midnightblue" stroke="midnightblue" points="25.84,-32.09 26.56,-21.52 19.4,-29.34 25.84,-32.09"/>
</g>
<!-- Node3 -->
<g id="node3" class="node">
<title>Node3</title>
<g id="a_node3"><a xlink:title=" ">
<polygon fill="white" stroke="#bfbfbf" points="111.5,-0.5 111.5,-21.5 156.5,-21.5 156.5,-0.5 111.5,-0.5"/>
<text text-anchor="middle" x="134" y="-7.9" font-family="Helvetica,sans-Serif" font-size="12.00">string</text>
</a>
</g>
</g>
<!-- Node1&#45;&gt;Node3 -->
<g id="edge2" class="edge">
<title>Node1&#45;&gt;Node3</title>
<path fill="none" stroke="midnightblue" d="M145.16,-348.49C105.24,-333.29 38,-299.46 38,-244 38,-244 38,-244 38,-126 38,-82.11 80.16,-46.33 108.6,-27.18"/>
<polygon fill="midnightblue" stroke="midnightblue" points="110.79,-29.93 117.28,-21.56 106.98,-24.06 110.79,-29.93"/>
</g>
<!-- Node4 -->
<g id="node4" class="node">
<title>Node4</title>
<g id="a_node4"><a xlink:title=" ">
<polygon fill="white" stroke="#bfbfbf" points="201,-0.5 201,-21.5 249,-21.5 249,-0.5 201,-0.5"/>
<text text-anchor="middle" x="225" y="-7.9" font-family="Helvetica,sans-Serif" font-size="12.00">vector</text>
</a>
</g>
</g>
<!-- Node1&#45;&gt;Node4 -->
<g id="edge3" class="edge">
<title>Node1&#45;&gt;Node4</title>
<path fill="none" stroke="midnightblue" d="M212.65,-348.4C259.43,-334.19 332,-302.69 332,-244 332,-244 332,-244 332,-126 332,-80.05 285.21,-45.02 253.51,-26.56"/>
<polygon fill="midnightblue" stroke="midnightblue" points="255.06,-23.42 244.63,-21.58 251.64,-29.52 255.06,-23.42"/>
</g>
<!-- Node5 -->
<g id="node5" class="node">
<title>Node5</title>
<g id="a_node5"><a xlink:title=" ">
<polygon fill="white" stroke="#bfbfbf" points="317,-0.5 317,-21.5 373,-21.5 373,-0.5 317,-0.5"/>
<text text-anchor="middle" x="345" y="-7.9" font-family="Helvetica,sans-Serif" font-size="12.00">fstream</text>
</a>
</g>
</g>
<!-- Node1&#45;&gt;Node5 -->
<g id="edge4" class="edge">
<title>Node1&#45;&gt;Node5</title>
<path fill="none" stroke="midnightblue" d="M236.28,-348.44C293.68,-335.68 370,-306.89 370,-244 370,-244 370,-244 370,-126 370,-92.05 359.29,-53.69 351.89,-31.25"/>
<polygon fill="midnightblue" stroke="midnightblue" points="355.13,-29.93 348.58,-21.6 348.51,-32.2 355.13,-29.93"/>
</g>
<!-- Node6 -->
<g id="node6" class="node">
<title>Node6</title>
<g id="a_node6"><a xlink:href="_menu_8h.html" target="_top" xlink:title=" ">
<polygon fill="white" stroke="black" points="147,-290.5 147,-311.5 201,-311.5 201,-290.5 147,-290.5"/>
<text text-anchor="middle" x="174" y="-297.9" font-family="Helvetica,sans-Serif" font-size="12.00">Menu.h</text>
</a>
</g>
</g>
<!-- Node1&#45;&gt;Node6 -->
<g id="edge5" class="edge">
<title>Node1&#45;&gt;Node6</title>
<path fill="none" stroke="midnightblue" d="M174,-348.25C174,-340.94 174,-330.69 174,-321.7"/>
<polygon fill="midnightblue" stroke="midnightblue" points="177.5,-321.64 174,-311.64 170.5,-321.64 177.5,-321.64"/>
</g>
<!-- Node7 -->
<g id="node7" class="node">
<title>Node7</title>
<g id="a_node7"><a xlink:href="_person_8h.html" target="_top" xlink:title=" ">
<polygon fill="white" stroke="black" points="142.5,-232.5 142.5,-253.5 205.5,-253.5 205.5,-232.5 142.5,-232.5"/>
<text text-anchor="middle" x="174" y="-239.9" font-family="Helvetica,sans-Serif" font-size="12.00">Person.h</text>
</a>
</g>
</g>
<!-- Node6&#45;&gt;Node7 -->
<g id="edge6" class="edge">
<title>Node6&#45;&gt;Node7</title>
<path fill="none" stroke="midnightblue" d="M174,-290.25C174,-282.94 174,-272.69 174,-263.7"/>
<polygon fill="midnightblue" stroke="midnightblue" points="177.5,-263.64 174,-253.64 170.5,-263.64 177.5,-263.64"/>
</g>
<!-- Node8 -->
<g id="node8" class="node">
<title>Node8</title>
<g id="a_node8"><a xlink:href="_run_8h.html" target="_top" xlink:title=" ">
<polygon fill="white" stroke="black" points="106,-116.5 106,-137.5 152,-137.5 152,-116.5 106,-116.5"/>
<text text-anchor="middle" x="129" y="-123.9" font-family="Helvetica,sans-Serif" font-size="12.00">Run.h</text>
</a>
</g>
</g>
<!-- Node7&#45;&gt;Node8 -->
<g id="edge7" class="edge">
<title>Node7&#45;&gt;Node8</title>
<path fill="none" stroke="midnightblue" d="M142.5,-232.37C125.18,-225.29 105.2,-213.75 95,-196 85.32,-179.16 98,-159.22 110.53,-145.3"/>
<polygon fill="midnightblue" stroke="midnightblue" points="113.28,-147.49 117.72,-137.87 108.25,-142.62 113.28,-147.49"/>
</g>
<!-- Node10 -->
<g id="node10" class="node">
<title>Node10</title>
<g id="a_node10"><a xlink:href="_weight_lifting_8h.html" target="_top" xlink:title=" ">
<polygon fill="white" stroke="black" points="172,-174.5 172,-195.5 266,-195.5 266,-174.5 172,-174.5"/>
<text text-anchor="middle" x="219" y="-181.9" font-family="Helvetica,sans-Serif" font-size="12.00">WeightLifting.h</text>
</a>
</g>
</g>
<!-- Node7&#45;&gt;Node10 -->
<g id="edge13" class="edge">
<title>Node7&#45;&gt;Node10</title>
<path fill="none" stroke="midnightblue" d="M181.84,-232.25C188.16,-224.38 197.22,-213.1 204.81,-203.65"/>
<polygon fill="midnightblue" stroke="midnightblue" points="207.72,-205.63 211.25,-195.64 202.26,-201.25 207.72,-205.63"/>
</g>
<!-- Node11 -->
<g id="node11" class="node">
<title>Node11</title>
<g id="a_node11"><a xlink:href="_swimming_8h.html" target="_top" xlink:title=" ">
<polygon fill="white" stroke="black" points="224,-116.5 224,-137.5 304,-137.5 304,-116.5 224,-116.5"/>
<text text-anchor="middle" x="264" y="-123.9" font-family="Helvetica,sans-Serif" font-size="12.00">Swimming.h</text>
</a>
</g>
</g>
<!-- Node7&#45;&gt;Node11 -->
<g id="edge15" class="edge">
<title>Node7&#45;&gt;Node11</title>
<path fill="none" stroke="midnightblue" d="M205.97,-236.81C229.49,-231.13 259.88,-219.5 275,-196 284.37,-181.43 279.62,-161.58 273.72,-147.09"/>
<polygon fill="midnightblue" stroke="midnightblue" points="276.74,-145.28 269.41,-137.63 270.38,-148.19 276.74,-145.28"/>
</g>
<!-- Node12 -->
<g id="node12" class="node">
<title>Node12</title>
<g id="a_node12"><a xlink:href="_hike_8h.html" target="_top" xlink:title=" ">
<polygon fill="white" stroke="black" points="104,-174.5 104,-195.5 154,-195.5 154,-174.5 104,-174.5"/>
<text text-anchor="middle" x="129" y="-181.9" font-family="Helvetica,sans-Serif" font-size="12.00">Hike.h</text>
</a>
</g>
</g>
<!-- Node7&#45;&gt;Node12 -->
<g id="edge17" class="edge">
<title>Node7&#45;&gt;Node12</title>
<path fill="none" stroke="midnightblue" d="M166.16,-232.25C159.84,-224.38 150.78,-213.1 143.19,-203.65"/>
<polygon fill="midnightblue" stroke="midnightblue" points="145.74,-201.25 136.75,-195.64 140.28,-205.63 145.74,-201.25"/>
</g>
<!-- Node9 -->
<g id="node9" class="node">
<title>Node9</title>
<g id="a_node9"><a xlink:href="_exercise_8h.html" target="_top" xlink:title=" ">
<polygon fill="white" stroke="black" points="160.5,-58.5 160.5,-79.5 231.5,-79.5 231.5,-58.5 160.5,-58.5"/>
<text text-anchor="middle" x="196" y="-65.9" font-family="Helvetica,sans-Serif" font-size="12.00">Exercise.h</text>
</a>
</g>
</g>
<!-- Node8&#45;&gt;Node9 -->
<g id="edge8" class="edge">
<title>Node8&#45;&gt;Node9</title>
<path fill="none" stroke="midnightblue" d="M140.67,-116.25C150.57,-107.97 164.96,-95.94 176.59,-86.22"/>
<polygon fill="midnightblue" stroke="midnightblue" points="179.03,-88.74 184.46,-79.64 174.55,-83.37 179.03,-88.74"/>
</g>
<!-- Node9&#45;&gt;Node2 -->
<g id="edge10" class="edge">
<title>Node9&#45;&gt;Node2</title>
<path fill="none" stroke="midnightblue" d="M167.64,-58.37C140.32,-49.1 98.82,-35.02 68.73,-24.8"/>
<polygon fill="midnightblue" stroke="midnightblue" points="69.59,-21.4 58.99,-21.5 67.34,-28.03 69.59,-21.4"/>
</g>
<!-- Node9&#45;&gt;Node3 -->
<g id="edge9" class="edge">
<title>Node9&#45;&gt;Node3</title>
<path fill="none" stroke="midnightblue" d="M185.2,-58.25C176.13,-50.05 162.98,-38.17 152.28,-28.51"/>
<polygon fill="midnightblue" stroke="midnightblue" points="154.44,-25.75 144.68,-21.64 149.75,-30.94 154.44,-25.75"/>
</g>
<!-- Node9&#45;&gt;Node4 -->
<g id="edge11" class="edge">
<title>Node9&#45;&gt;Node4</title>
<path fill="none" stroke="midnightblue" d="M201.05,-58.25C205,-50.62 210.61,-39.79 215.41,-30.53"/>
<polygon fill="midnightblue" stroke="midnightblue" points="218.52,-32.13 220.01,-21.64 212.3,-28.91 218.52,-32.13"/>
</g>
<!-- Node9&#45;&gt;Node5 -->
<g id="edge12" class="edge">
<title>Node9&#45;&gt;Node5</title>
<path fill="none" stroke="midnightblue" d="M221.61,-58.37C246.07,-49.18 283.11,-35.26 310.22,-25.07"/>
<polygon fill="midnightblue" stroke="midnightblue" points="311.59,-28.3 319.72,-21.5 309.13,-21.74 311.59,-28.3"/>
</g>
<!-- Node10&#45;&gt;Node9 -->
<g id="edge14" class="edge">
<title>Node10&#45;&gt;Node9</title>
<path fill="none" stroke="midnightblue" d="M217.04,-174.28C213.27,-155.6 204.95,-114.37 199.98,-89.72"/>
<polygon fill="midnightblue" stroke="midnightblue" points="203.36,-88.81 197.96,-79.69 196.5,-90.19 203.36,-88.81"/>
</g>
<!-- Node11&#45;&gt;Node9 -->
<g id="edge16" class="edge">
<title>Node11&#45;&gt;Node9</title>
<path fill="none" stroke="midnightblue" d="M252.16,-116.25C242.11,-107.97 227.5,-95.94 215.7,-86.22"/>
<polygon fill="midnightblue" stroke="midnightblue" points="217.65,-83.3 207.71,-79.64 213.2,-88.7 217.65,-83.3"/>
</g>
<!-- Node12&#45;&gt;Node8 -->
<g id="edge18" class="edge">
<title>Node12&#45;&gt;Node8</title>
<path fill="none" stroke="midnightblue" d="M129,-174.25C129,-166.94 129,-156.69 129,-147.7"/>
<polygon fill="midnightblue" stroke="midnightblue" points="132.5,-147.64 129,-137.64 125.5,-147.64 132.5,-147.64"/>
</g>
</g>
</svg>
