<?xml version="1.0" encoding="UTF-8" standalone="no"?>
<!DOCTYPE svg PUBLIC "-//W3C//DTD SVG 1.1//EN"
 "http://www.w3.org/Graphics/SVG/1.1/DTD/svg11.dtd">
<!-- Generated by graphviz version 2.50.0 (20211204.2007)
 -->
<!-- Title: ExerciseLogger/ExerciseLogger.cpp Pages: 1 -->
<svg width="274pt" height="88pt"
 viewBox="0.00 0.00 274.00 88.00" xmlns="http://www.w3.org/2000/svg" xmlns:xlink="http://www.w3.org/1999/xlink">
<g id="graph0" class="graph" transform="scale(1 1) rotate(0) translate(4 84)">
<title>ExerciseLogger/ExerciseLogger.cpp</title>
<polygon fill="white" stroke="transparent" points="-4,4 -4,-84 270,-84 270,4 -4,4"/>
<!-- Node1 -->
<g id="node1" class="node">
<title>Node1</title>
<g id="a_node1"><a xlink:title=" ">
<polygon fill="#bfbfbf" stroke="black" points="30.5,-58.5 30.5,-79.5 239.5,-79.5 239.5,-58.5 30.5,-58.5"/>
<text text-anchor="middle" x="135" y="-65.9" font-family="Helvetica,sans-Serif" font-size="12.00">ExerciseLogger/ExerciseLogger.cpp</text>
</a>
</g>
</g>
<!-- Node2 -->
<g id="node2" class="node">
<title>Node2</title>
<g id="a_node2"><a xlink:title=" ">
<polygon fill="white" stroke="#bfbfbf" points="0,-0.5 0,-21.5 62,-21.5 62,-0.5 0,-0.5"/>
<text text-anchor="middle" x="31" y="-7.9" font-family="Helvetica,sans-Serif" font-size="12.00">iostream</text>
</a>
</g>
</g>
<!-- Node1&#45;&gt;Node2 -->
<g id="edge1" class="edge">
<title>Node1&#45;&gt;Node2</title>
<path fill="none" stroke="midnightblue" d="M116.88,-58.25C100.55,-49.45 76.33,-36.41 57.77,-26.41"/>
<polygon fill="midnightblue" stroke="midnightblue" points="59.37,-23.3 48.91,-21.64 56.05,-29.47 59.37,-23.3"/>
</g>
<!-- Node3 -->
<g id="node3" class="node">
<title>Node3</title>
<g id="a_node3"><a xlink:title=" ">
<polygon fill="white" stroke="#bfbfbf" points="80.5,-0.5 80.5,-21.5 125.5,-21.5 125.5,-0.5 80.5,-0.5"/>
<text text-anchor="middle" x="103" y="-7.9" font-family="Helvetica,sans-Serif" font-size="12.00">string</text>
</a>
</g>
</g>
<!-- Node1&#45;&gt;Node3 -->
<g id="edge2" class="edge">
<title>Node1&#45;&gt;Node3</title>
<path fill="none" stroke="midnightblue" d="M129.43,-58.25C125.07,-50.62 118.88,-39.79 113.59,-30.53"/>
<polygon fill="midnightblue" stroke="midnightblue" points="116.51,-28.59 108.51,-21.64 110.43,-32.06 116.51,-28.59"/>
</g>
<!-- Node4 -->
<g id="node4" class="node">
<title>Node4</title>
<g id="a_node4"><a xlink:title=" ">
<polygon fill="white" stroke="#bfbfbf" points="144,-0.5 144,-21.5 192,-21.5 192,-0.5 144,-0.5"/>
<text text-anchor="middle" x="168" y="-7.9" font-family="Helvetica,sans-Serif" font-size="12.00">vector</text>
</a>
</g>
</g>
<!-- Node1&#45;&gt;Node4 -->
<g id="edge3" class="edge">
<title>Node1&#45;&gt;Node4</title>
<path fill="none" stroke="midnightblue" d="M140.75,-58.25C145.24,-50.62 151.62,-39.79 157.08,-30.53"/>
<polygon fill="midnightblue" stroke="midnightblue" points="160.26,-32.04 162.32,-21.64 154.23,-28.48 160.26,-32.04"/>
</g>
<!-- Node5 -->
<g id="node5" class="node">
<title>Node5</title>
<g id="a_node5"><a xlink:title=" ">
<polygon fill="white" stroke="#bfbfbf" points="210,-0.5 210,-21.5 266,-21.5 266,-0.5 210,-0.5"/>
<text text-anchor="middle" x="238" y="-7.9" font-family="Helvetica,sans-Serif" font-size="12.00">fstream</text>
</a>
</g>
</g>
<!-- Node1&#45;&gt;Node5 -->
<g id="edge4" class="edge">
<title>Node1&#45;&gt;Node5</title>
<path fill="none" stroke="midnightblue" d="M152.94,-58.25C169.04,-49.49 192.89,-36.53 211.24,-26.55"/>
<polygon fill="midnightblue" stroke="midnightblue" points="213.15,-29.49 220.26,-21.64 209.81,-23.34 213.15,-29.49"/>
</g>
</g>
</svg>
