<?xml version="1.0" encoding="UTF-8" standalone="no"?>
<!DOCTYPE svg PUBLIC "-//W3C//DTD SVG 1.1//EN"
 "http://www.w3.org/Graphics/SVG/1.1/DTD/svg11.dtd">
<!-- Generated by graphviz version 2.50.0 (20211204.2007)
 -->
<!-- Title: ExerciseLogger/ExerciseLogger.cpp Pages: 1 -->
<svg width="296pt" height="378pt"
 viewBox="0.00 0.00 295.81 378.00" xmlns="http://www.w3.org/2000/svg" xmlns:xlink="http://www.w3.org/1999/xlink">
<g id="graph0" class="graph" transform="scale(1 1) rotate(0) translate(4 374)">
<title>ExerciseLogger/ExerciseLogger.cpp</title>
<polygon fill="white" stroke="transparent" points="-4,4 -4,-374 291.81,-374 291.81,4 -4,4"/>
<!-- Node1 -->
<g id="node1" class="node">
<title>Node1</title>
<g id="a_node1"><a xlink:title=" ">
<polygon fill="#bfbfbf" stroke="black" points="23.81,-348.5 23.81,-369.5 232.81,-369.5 232.81,-348.5 23.81,-348.5"/>
<text text-anchor="middle" x="128.31" y="-355.9" font-family="Helvetica,sans-Serif" font-size="12.00">ExerciseLogger/ExerciseLogger.cpp</text>
</a>
</g>
</g>
<!-- Node2 -->
<g id="node2" class="node">
<title>Node2</title>
<g id="a_node2"><a xlink:href="_menu_8h.html" target="_top" xlink:title=" ">
<polygon fill="white" stroke="black" points="101.31,-290.5 101.31,-311.5 155.31,-311.5 155.31,-290.5 101.31,-290.5"/>
<text text-anchor="middle" x="128.31" y="-297.9" font-family="Helvetica,sans-Serif" font-size="12.00">Menu.h</text>
</a>
</g>
</g>
<!-- Node1&#45;&gt;Node2 -->
<g id="edge1" class="edge">
<title>Node1&#45;&gt;Node2</title>
<path fill="none" stroke="midnightblue" d="M128.31,-348.25C128.31,-340.94 128.31,-330.69 128.31,-321.7"/>
<polygon fill="midnightblue" stroke="midnightblue" points="131.81,-321.64 128.31,-311.64 124.81,-321.64 131.81,-321.64"/>
</g>
<!-- Node3 -->
<g id="node3" class="node">
<title>Node3</title>
<g id="a_node3"><a xlink:href="_person_8h.html" target="_top" xlink:title=" ">
<polygon fill="white" stroke="black" points="96.81,-232.5 96.81,-253.5 159.81,-253.5 159.81,-232.5 96.81,-232.5"/>
<text text-anchor="middle" x="128.31" y="-239.9" font-family="Helvetica,sans-Serif" font-size="12.00">Person.h</text>
</a>
</g>
</g>
<!-- Node2&#45;&gt;Node3 -->
<g id="edge2" class="edge">
<title>Node2&#45;&gt;Node3</title>
<path fill="none" stroke="midnightblue" d="M128.31,-290.25C128.31,-282.94 128.31,-272.69 128.31,-263.7"/>
<polygon fill="midnightblue" stroke="midnightblue" points="131.81,-263.64 128.31,-253.64 124.81,-263.64 131.81,-263.64"/>
</g>
<!-- Node4 -->
<g id="node4" class="node">
<title>Node4</title>
<g id="a_node4"><a xlink:href="_run_8h.html" target="_top" xlink:title=" ">
<polygon fill="white" stroke="black" points="15.31,-116.5 15.31,-137.5 61.31,-137.5 61.31,-116.5 15.31,-116.5"/>
<text text-anchor="middle" x="38.31" y="-123.9" font-family="Helvetica,sans-Serif" font-size="12.00">Run.h</text>
</a>
</g>
</g>
<!-- Node3&#45;&gt;Node4 -->
<g id="edge3" class="edge">
<title>Node3&#45;&gt;Node4</title>
<path fill="none" stroke="midnightblue" d="M96.53,-240C67.13,-236.26 24.96,-225.69 4.31,-196 -7.01,-179.73 6.65,-159.14 19.88,-144.91"/>
<polygon fill="midnightblue" stroke="midnightblue" points="22.46,-147.28 27.02,-137.72 17.49,-142.35 22.46,-147.28"/>
</g>
<!-- Node10 -->
<g id="node10" class="node">
<title>Node10</title>
<g id="a_node10"><a xlink:href="_weight_lifting_8h.html" target="_top" xlink:title=" ">
<polygon fill="white" stroke="black" points="81.31,-174.5 81.31,-195.5 175.31,-195.5 175.31,-174.5 81.31,-174.5"/>
<text text-anchor="middle" x="128.31" y="-181.9" font-family="Helvetica,sans-Serif" font-size="12.00">WeightLifting.h</text>
</a>
</g>
</g>
<!-- Node3&#45;&gt;Node10 -->
<g id="edge9" class="edge">
<title>Node3&#45;&gt;Node10</title>
<path fill="none" stroke="midnightblue" d="M128.31,-232.25C128.31,-224.94 128.31,-214.69 128.31,-205.7"/>
<polygon fill="midnightblue" stroke="midnightblue" points="131.81,-205.64 128.31,-195.64 124.81,-205.64 131.81,-205.64"/>
</g>
<!-- Node11 -->
<g id="node11" class="node">
<title>Node11</title>
<g id="a_node11"><a xlink:href="_swimming_8h.html" target="_top" xlink:title=" ">
<polygon fill="white" stroke="black" points="136.31,-116.5 136.31,-137.5 216.31,-137.5 216.31,-116.5 136.31,-116.5"/>
<text text-anchor="middle" x="176.31" y="-123.9" font-family="Helvetica,sans-Serif" font-size="12.00">Swimming.h</text>
</a>
</g>
</g>
<!-- Node3&#45;&gt;Node11 -->
<g id="edge11" class="edge">
<title>Node3&#45;&gt;Node11</title>
<path fill="none" stroke="midnightblue" d="M147.19,-232.37C160.28,-224.54 176.67,-212.15 184.31,-196 191.51,-180.76 188.28,-161.53 183.96,-147.41"/>
<polygon fill="midnightblue" stroke="midnightblue" points="187.19,-146.06 180.6,-137.76 180.58,-148.36 187.19,-146.06"/>
</g>
<!-- Node12 -->
<g id="node12" class="node">
<title>Node12</title>
<g id="a_node12"><a xlink:href="_hike_8h.html" target="_top" xlink:title=" ">
<polygon fill="white" stroke="black" points="13.31,-174.5 13.31,-195.5 63.31,-195.5 63.31,-174.5 13.31,-174.5"/>
<text text-anchor="middle" x="38.31" y="-181.9" font-family="Helvetica,sans-Serif" font-size="12.00">Hike.h</text>
</a>
</g>
</g>
<!-- Node3&#45;&gt;Node12 -->
<g id="edge13" class="edge">
<title>Node3&#45;&gt;Node12</title>
<path fill="none" stroke="midnightblue" d="M112.63,-232.25C98.82,-223.65 78.49,-211 62.58,-201.1"/>
<polygon fill="midnightblue" stroke="midnightblue" points="64.14,-197.95 53.8,-195.64 60.45,-203.9 64.14,-197.95"/>
</g>
<!-- Node13 -->
<g id="node13" class="node">
<title>Node13</title>
<g id="a_node13"><a xlink:href="_yoga_8h.html" target="_top" xlink:title=" ">
<polygon fill="white" stroke="black" points="234.81,-116.5 234.81,-137.5 287.81,-137.5 287.81,-116.5 234.81,-116.5"/>
<text text-anchor="middle" x="261.31" y="-123.9" font-family="Helvetica,sans-Serif" font-size="12.00">Yoga.h</text>
</a>
</g>
</g>
<!-- Node3&#45;&gt;Node13 -->
<g id="edge15" class="edge">
<title>Node3&#45;&gt;Node13</title>
<path fill="none" stroke="midnightblue" d="M146.69,-232.36C162.07,-223.85 184.19,-210.56 201.31,-196 219.18,-180.79 236.58,-160.24 248,-145.72"/>
<polygon fill="midnightblue" stroke="midnightblue" points="250.96,-147.62 254.29,-137.56 245.41,-143.35 250.96,-147.62"/>
</g>
<!-- Node5 -->
<g id="node5" class="node">
<title>Node5</title>
<g id="a_node5"><a xlink:href="_exercise_8h.html" target="_top" xlink:title=" ">
<polygon fill="white" stroke="black" points="106.81,-58.5 106.81,-79.5 177.81,-79.5 177.81,-58.5 106.81,-58.5"/>
<text text-anchor="middle" x="142.31" y="-65.9" font-family="Helvetica,sans-Serif" font-size="12.00">Exercise.h</text>
</a>
</g>
</g>
<!-- Node4&#45;&gt;Node5 -->
<g id="edge4" class="edge">
<title>Node4&#45;&gt;Node5</title>
<path fill="none" stroke="midnightblue" d="M56.42,-116.25C72.75,-107.45 96.98,-94.41 115.54,-84.41"/>
<polygon fill="midnightblue" stroke="midnightblue" points="117.25,-87.47 124.4,-79.64 113.93,-81.3 117.25,-87.47"/>
</g>
<!-- Node6 -->
<g id="node6" class="node">
<title>Node6</title>
<g id="a_node6"><a xlink:title=" ">
<polygon fill="white" stroke="#bfbfbf" points="11.81,-0.5 11.81,-21.5 56.81,-21.5 56.81,-0.5 11.81,-0.5"/>
<text text-anchor="middle" x="34.31" y="-7.9" font-family="Helvetica,sans-Serif" font-size="12.00">string</text>
</a>
</g>
</g>
<!-- Node5&#45;&gt;Node6 -->
<g id="edge5" class="edge">
<title>Node5&#45;&gt;Node6</title>
<path fill="none" stroke="midnightblue" d="M123.49,-58.25C106.46,-49.41 81.15,-36.29 61.84,-26.28"/>
<polygon fill="midnightblue" stroke="midnightblue" points="63.39,-23.14 52.9,-21.64 60.17,-29.35 63.39,-23.14"/>
</g>
<!-- Node7 -->
<g id="node7" class="node">
<title>Node7</title>
<g id="a_node7"><a xlink:title=" ">
<polygon fill="white" stroke="#bfbfbf" points="75.31,-0.5 75.31,-21.5 137.31,-21.5 137.31,-0.5 75.31,-0.5"/>
<text text-anchor="middle" x="106.31" y="-7.9" font-family="Helvetica,sans-Serif" font-size="12.00">iostream</text>
</a>
</g>
</g>
<!-- Node5&#45;&gt;Node7 -->
<g id="edge6" class="edge">
<title>Node5&#45;&gt;Node7</title>
<path fill="none" stroke="midnightblue" d="M136.04,-58.25C131.08,-50.54 124.02,-39.56 118.03,-30.23"/>
<polygon fill="midnightblue" stroke="midnightblue" points="120.86,-28.16 112.51,-21.64 114.97,-31.95 120.86,-28.16"/>
</g>
<!-- Node8 -->
<g id="node8" class="node">
<title>Node8</title>
<g id="a_node8"><a xlink:title=" ">
<polygon fill="white" stroke="#bfbfbf" points="155.31,-0.5 155.31,-21.5 203.31,-21.5 203.31,-0.5 155.31,-0.5"/>
<text text-anchor="middle" x="179.31" y="-7.9" font-family="Helvetica,sans-Serif" font-size="12.00">vector</text>
</a>
</g>
</g>
<!-- Node5&#45;&gt;Node8 -->
<g id="edge7" class="edge">
<title>Node5&#45;&gt;Node8</title>
<path fill="none" stroke="midnightblue" d="M148.75,-58.25C153.84,-50.54 161.1,-39.56 167.26,-30.23"/>
<polygon fill="midnightblue" stroke="midnightblue" points="170.34,-31.92 172.94,-21.64 164.5,-28.06 170.34,-31.92"/>
</g>
<!-- Node9 -->
<g id="node9" class="node">
<title>Node9</title>
<g id="a_node9"><a xlink:title=" ">
<polygon fill="white" stroke="#bfbfbf" points="221.31,-0.5 221.31,-21.5 277.31,-21.5 277.31,-0.5 221.31,-0.5"/>
<text text-anchor="middle" x="249.31" y="-7.9" font-family="Helvetica,sans-Serif" font-size="12.00">fstream</text>
</a>
</g>
</g>
<!-- Node5&#45;&gt;Node9 -->
<g id="edge8" class="edge">
<title>Node5&#45;&gt;Node9</title>
<path fill="none" stroke="midnightblue" d="M160.94,-58.25C177.75,-49.45 202.67,-36.41 221.77,-26.41"/>
<polygon fill="midnightblue" stroke="midnightblue" points="223.65,-29.38 230.88,-21.64 220.4,-23.18 223.65,-29.38"/>
</g>
<!-- Node10&#45;&gt;Node5 -->
<g id="edge10" class="edge">
<title>Node10&#45;&gt;Node5</title>
<path fill="none" stroke="midnightblue" d="M127.12,-174.24C125.74,-160.97 124.05,-136.52 127.31,-116 128.74,-107 131.65,-97.37 134.53,-89.26"/>
<polygon fill="midnightblue" stroke="midnightblue" points="137.9,-90.24 138.17,-79.65 131.35,-87.76 137.9,-90.24"/>
</g>
<!-- Node11&#45;&gt;Node5 -->
<g id="edge12" class="edge">
<title>Node11&#45;&gt;Node5</title>
<path fill="none" stroke="midnightblue" d="M170.38,-116.25C165.7,-108.54 159.04,-97.56 153.38,-88.23"/>
<polygon fill="midnightblue" stroke="midnightblue" points="156.34,-86.37 148.16,-79.64 150.36,-90.01 156.34,-86.37"/>
</g>
<!-- Node12&#45;&gt;Node4 -->
<g id="edge14" class="edge">
<title>Node12&#45;&gt;Node4</title>
<path fill="none" stroke="midnightblue" d="M38.31,-174.25C38.31,-166.94 38.31,-156.69 38.31,-147.7"/>
<polygon fill="midnightblue" stroke="midnightblue" points="41.81,-147.64 38.31,-137.64 34.81,-147.64 41.81,-147.64"/>
</g>
<!-- Node13&#45;&gt;Node5 -->
<g id="edge16" class="edge">
<title>Node13&#45;&gt;Node5</title>
<path fill="none" stroke="midnightblue" d="M240.85,-116.37C221.83,-107.42 193.29,-93.99 171.81,-83.88"/>
<polygon fill="midnightblue" stroke="midnightblue" points="173.04,-80.59 162.5,-79.5 170.05,-86.93 173.04,-80.59"/>
</g>
</g>
</svg>
