<?xml version="1.0" encoding="UTF-8" standalone="no"?>
<!DOCTYPE svg PUBLIC "-//W3C//DTD SVG 1.1//EN"
 "http://www.w3.org/Graphics/SVG/1.1/DTD/svg11.dtd">
<!-- Generated by graphviz version 2.50.0 (20211204.2007)
 -->
<!-- Title: ExerciseLogger/Exercise.h Pages: 1 -->
<svg width="1047pt" height="320pt"
 viewBox="0.00 0.00 1046.50 320.00" xmlns="http://www.w3.org/2000/svg" xmlns:xlink="http://www.w3.org/1999/xlink">
<g id="graph0" class="graph" transform="scale(1 1) rotate(0) translate(4 316)">
<title>ExerciseLogger/Exercise.h</title>
<polygon fill="white" stroke="transparent" points="-4,4 -4,-316 1042.5,-316 1042.5,4 -4,4"/>
<!-- Node1 -->
<g id="node1" class="node">
<title>Node1</title>
<g id="a_node1"><a xlink:title=" ">
<polygon fill="#bfbfbf" stroke="black" points="348.5,-290.5 348.5,-311.5 506.5,-311.5 506.5,-290.5 348.5,-290.5"/>
<text text-anchor="middle" x="427.5" y="-297.9" font-family="Helvetica,sans-Serif" font-size="12.00">ExerciseLogger/Exercise.h</text>
</a>
</g>
</g>
<!-- Node2 -->
<g id="node2" class="node">
<title>Node2</title>
<g id="a_node2"><a xlink:href="_exercise_8cpp.html" target="_top" xlink:title=" ">
<polygon fill="white" stroke="black" points="4,-232.5 4,-253.5 175,-253.5 175,-232.5 4,-232.5"/>
<text text-anchor="middle" x="89.5" y="-239.9" font-family="Helvetica,sans-Serif" font-size="12.00">ExerciseLogger/Exercise.cpp</text>
</a>
</g>
</g>
<!-- Node1&#45;&gt;Node2 -->
<g id="edge1" class="edge">
<title>Node1&#45;&gt;Node2</title>
<path fill="none" stroke="midnightblue" d="M359.64,-288.76C297.28,-278.42 205.83,-263.27 146.98,-253.52"/>
<polygon fill="midnightblue" stroke="midnightblue" points="359.34,-292.26 369.78,-290.44 360.49,-285.35 359.34,-292.26"/>
</g>
<!-- Node3 -->
<g id="node3" class="node">
<title>Node3</title>
<g id="a_node3"><a xlink:href="_run_8h.html" target="_top" xlink:title=" ">
<polygon fill="white" stroke="black" points="193.5,-232.5 193.5,-253.5 325.5,-253.5 325.5,-232.5 193.5,-232.5"/>
<text text-anchor="middle" x="259.5" y="-239.9" font-family="Helvetica,sans-Serif" font-size="12.00">ExerciseLogger/Run.h</text>
</a>
</g>
</g>
<!-- Node1&#45;&gt;Node3 -->
<g id="edge2" class="edge">
<title>Node1&#45;&gt;Node3</title>
<path fill="none" stroke="midnightblue" d="M389.07,-287.19C358.29,-276.93 315.81,-262.77 288,-253.5"/>
<polygon fill="midnightblue" stroke="midnightblue" points="388.03,-290.53 398.62,-290.37 390.24,-283.89 388.03,-290.53"/>
</g>
<!-- Node12 -->
<g id="node12" class="node">
<title>Node12</title>
<g id="a_node12"><a xlink:href="_swimming_8h.html" target="_top" xlink:title=" ">
<polygon fill="white" stroke="black" points="344,-232.5 344,-253.5 511,-253.5 511,-232.5 344,-232.5"/>
<text text-anchor="middle" x="427.5" y="-239.9" font-family="Helvetica,sans-Serif" font-size="12.00">ExerciseLogger/Swimming.h</text>
</a>
</g>
</g>
<!-- Node1&#45;&gt;Node12 -->
<g id="edge12" class="edge">
<title>Node1&#45;&gt;Node12</title>
<path fill="none" stroke="midnightblue" d="M427.5,-280.16C427.5,-271.16 427.5,-260.92 427.5,-253.64"/>
<polygon fill="midnightblue" stroke="midnightblue" points="424,-280.25 427.5,-290.25 431,-280.25 424,-280.25"/>
</g>
<!-- Node14 -->
<g id="node14" class="node">
<title>Node14</title>
<g id="a_node14"><a xlink:href="_weight_lifting_8h.html" target="_top" xlink:title=" ">
<polygon fill="white" stroke="black" points="529.5,-232.5 529.5,-253.5 709.5,-253.5 709.5,-232.5 529.5,-232.5"/>
<text text-anchor="middle" x="619.5" y="-239.9" font-family="Helvetica,sans-Serif" font-size="12.00">ExerciseLogger/WeightLifting.h</text>
</a>
</g>
</g>
<!-- Node1&#45;&gt;Node14 -->
<g id="edge15" class="edge">
<title>Node1&#45;&gt;Node14</title>
<path fill="none" stroke="midnightblue" d="M470.51,-287.46C505.75,-277.18 554.87,-262.85 586.92,-253.5"/>
<polygon fill="midnightblue" stroke="midnightblue" points="469.13,-284.21 460.51,-290.37 471.09,-290.93 469.13,-284.21"/>
</g>
<!-- Node16 -->
<g id="node16" class="node">
<title>Node16</title>
<g id="a_node16"><a xlink:href="_yoga_8h.html" target="_top" xlink:title=" ">
<polygon fill="white" stroke="black" points="789,-232.5 789,-253.5 928,-253.5 928,-232.5 789,-232.5"/>
<text text-anchor="middle" x="858.5" y="-239.9" font-family="Helvetica,sans-Serif" font-size="12.00">ExerciseLogger/Yoga.h</text>
</a>
</g>
</g>
<!-- Node1&#45;&gt;Node16 -->
<g id="edge18" class="edge">
<title>Node1&#45;&gt;Node16</title>
<path fill="none" stroke="midnightblue" d="M511.25,-289.12C592.07,-278.62 713.03,-262.9 788.77,-253.06"/>
<polygon fill="midnightblue" stroke="midnightblue" points="510.57,-285.68 501.1,-290.44 511.47,-292.62 510.57,-285.68"/>
</g>
<!-- Node4 -->
<g id="node4" class="node">
<title>Node4</title>
<g id="a_node4"><a xlink:href="_hike_8h.html" target="_top" xlink:title=" ">
<polygon fill="white" stroke="black" points="6.5,-174.5 6.5,-195.5 142.5,-195.5 142.5,-174.5 6.5,-174.5"/>
<text text-anchor="middle" x="74.5" y="-181.9" font-family="Helvetica,sans-Serif" font-size="12.00">ExerciseLogger/Hike.h</text>
</a>
</g>
</g>
<!-- Node3&#45;&gt;Node4 -->
<g id="edge3" class="edge">
<title>Node3&#45;&gt;Node4</title>
<path fill="none" stroke="midnightblue" d="M218.06,-229.46C184.1,-219.18 136.77,-204.85 105.89,-195.5"/>
<polygon fill="midnightblue" stroke="midnightblue" points="217.11,-232.83 227.7,-232.37 219.14,-226.13 217.11,-232.83"/>
</g>
<!-- Node6 -->
<g id="node6" class="node">
<title>Node6</title>
<g id="a_node6"><a xlink:href="_person_8h.html" target="_top" xlink:title=" ">
<polygon fill="white" stroke="black" points="298,-116.5 298,-137.5 447,-137.5 447,-116.5 298,-116.5"/>
<text text-anchor="middle" x="372.5" y="-123.9" font-family="Helvetica,sans-Serif" font-size="12.00">ExerciseLogger/Person.h</text>
</a>
</g>
</g>
<!-- Node3&#45;&gt;Node6 -->
<g id="edge10" class="edge">
<title>Node3&#45;&gt;Node6</title>
<path fill="none" stroke="midnightblue" d="M227.41,-228.04C202.08,-215.03 173.45,-194.59 189.5,-174 203.1,-156.56 253.24,-144.72 297.61,-137.43"/>
<polygon fill="midnightblue" stroke="midnightblue" points="225.99,-231.24 236.51,-232.48 229.06,-224.95 225.99,-231.24"/>
</g>
<!-- Node11 -->
<g id="node11" class="node">
<title>Node11</title>
<g id="a_node11"><a xlink:href="_run_8cpp.html" target="_top" xlink:title=" ">
<polygon fill="white" stroke="black" points="198.5,-174.5 198.5,-195.5 344.5,-195.5 344.5,-174.5 198.5,-174.5"/>
<text text-anchor="middle" x="271.5" y="-181.9" font-family="Helvetica,sans-Serif" font-size="12.00">ExerciseLogger/Run.cpp</text>
</a>
</g>
</g>
<!-- Node3&#45;&gt;Node11 -->
<g id="edge11" class="edge">
<title>Node3&#45;&gt;Node11</title>
<path fill="none" stroke="midnightblue" d="M263.69,-222.45C265.63,-213.38 267.86,-203 269.43,-195.64"/>
<polygon fill="midnightblue" stroke="midnightblue" points="260.26,-221.73 261.59,-232.25 267.11,-223.2 260.26,-221.73"/>
</g>
<!-- Node5 -->
<g id="node5" class="node">
<title>Node5</title>
<g id="a_node5"><a xlink:href="_hike_8cpp.html" target="_top" xlink:title=" ">
<polygon fill="white" stroke="black" points="0,-116.5 0,-137.5 149,-137.5 149,-116.5 0,-116.5"/>
<text text-anchor="middle" x="74.5" y="-123.9" font-family="Helvetica,sans-Serif" font-size="12.00">ExerciseLogger/Hike.cpp</text>
</a>
</g>
</g>
<!-- Node4&#45;&gt;Node5 -->
<g id="edge4" class="edge">
<title>Node4&#45;&gt;Node5</title>
<path fill="none" stroke="midnightblue" d="M74.5,-164.16C74.5,-155.16 74.5,-144.92 74.5,-137.64"/>
<polygon fill="midnightblue" stroke="midnightblue" points="71,-164.25 74.5,-174.25 78,-164.25 71,-164.25"/>
</g>
<!-- Node4&#45;&gt;Node6 -->
<g id="edge5" class="edge">
<title>Node4&#45;&gt;Node6</title>
<path fill="none" stroke="midnightblue" d="M135.35,-172.57C190.31,-162.24 270.25,-147.21 321.82,-137.52"/>
<polygon fill="midnightblue" stroke="midnightblue" points="134.57,-169.15 125.39,-174.44 135.86,-176.03 134.57,-169.15"/>
</g>
<!-- Node7 -->
<g id="node7" class="node">
<title>Node7</title>
<g id="a_node7"><a xlink:href="_menu_8h.html" target="_top" xlink:title=" ">
<polygon fill="white" stroke="black" points="217.5,-58.5 217.5,-79.5 357.5,-79.5 357.5,-58.5 217.5,-58.5"/>
<text text-anchor="middle" x="287.5" y="-65.9" font-family="Helvetica,sans-Serif" font-size="12.00">ExerciseLogger/Menu.h</text>
</a>
</g>
</g>
<!-- Node6&#45;&gt;Node7 -->
<g id="edge6" class="edge">
<title>Node6&#45;&gt;Node7</title>
<path fill="none" stroke="midnightblue" d="M348.96,-110.49C333.96,-100.61 315,-88.12 302.14,-79.64"/>
<polygon fill="midnightblue" stroke="midnightblue" points="347.42,-113.67 357.69,-116.25 351.27,-107.82 347.42,-113.67"/>
</g>
<!-- Node10 -->
<g id="node10" class="node">
<title>Node10</title>
<g id="a_node10"><a xlink:href="_person_8cpp.html" target="_top" xlink:title=" ">
<polygon fill="white" stroke="black" points="376,-58.5 376,-79.5 539,-79.5 539,-58.5 376,-58.5"/>
<text text-anchor="middle" x="457.5" y="-65.9" font-family="Helvetica,sans-Serif" font-size="12.00">ExerciseLogger/Person.cpp</text>
</a>
</g>
</g>
<!-- Node6&#45;&gt;Node10 -->
<g id="edge9" class="edge">
<title>Node6&#45;&gt;Node10</title>
<path fill="none" stroke="midnightblue" d="M396.04,-110.49C411.04,-100.61 430,-88.12 442.86,-79.64"/>
<polygon fill="midnightblue" stroke="midnightblue" points="393.73,-107.82 387.31,-116.25 397.58,-113.67 393.73,-107.82"/>
</g>
<!-- Node8 -->
<g id="node8" class="node">
<title>Node8</title>
<g id="a_node8"><a xlink:href="_exercise_logger_8cpp.html" target="_top" xlink:title=" ">
<polygon fill="white" stroke="black" points="83,-0.5 83,-21.5 292,-21.5 292,-0.5 83,-0.5"/>
<text text-anchor="middle" x="187.5" y="-7.9" font-family="Helvetica,sans-Serif" font-size="12.00">ExerciseLogger/ExerciseLogger.cpp</text>
</a>
</g>
</g>
<!-- Node7&#45;&gt;Node8 -->
<g id="edge7" class="edge">
<title>Node7&#45;&gt;Node8</title>
<path fill="none" stroke="midnightblue" d="M261.29,-53.32C243.43,-43.32 220.28,-30.36 204.72,-21.64"/>
<polygon fill="midnightblue" stroke="midnightblue" points="259.65,-56.41 270.08,-58.25 263.07,-50.31 259.65,-56.41"/>
</g>
<!-- Node9 -->
<g id="node9" class="node">
<title>Node9</title>
<g id="a_node9"><a xlink:href="_menu_8cpp.html" target="_top" xlink:title=" ">
<polygon fill="white" stroke="black" points="310.5,-0.5 310.5,-21.5 464.5,-21.5 464.5,-0.5 310.5,-0.5"/>
<text text-anchor="middle" x="387.5" y="-7.9" font-family="Helvetica,sans-Serif" font-size="12.00">ExerciseLogger/Menu.cpp</text>
</a>
</g>
</g>
<!-- Node7&#45;&gt;Node9 -->
<g id="edge8" class="edge">
<title>Node7&#45;&gt;Node9</title>
<path fill="none" stroke="midnightblue" d="M313.71,-53.32C331.57,-43.32 354.72,-30.36 370.28,-21.64"/>
<polygon fill="midnightblue" stroke="midnightblue" points="311.93,-50.31 304.92,-58.25 315.35,-56.41 311.93,-50.31"/>
</g>
<!-- Node12&#45;&gt;Node6 -->
<g id="edge13" class="edge">
<title>Node12&#45;&gt;Node6</title>
<path fill="none" stroke="midnightblue" d="M411.16,-224.51C404.27,-216.35 396.66,-206.21 391.5,-196 381.65,-176.53 376.31,-151.26 373.97,-137.67"/>
<polygon fill="midnightblue" stroke="midnightblue" points="408.71,-227.02 417.95,-232.2 413.96,-222.39 408.71,-227.02"/>
</g>
<!-- Node13 -->
<g id="node13" class="node">
<title>Node13</title>
<g id="a_node13"><a xlink:href="_swimming_8cpp.html" target="_top" xlink:title=" ">
<polygon fill="white" stroke="black" points="400.5,-174.5 400.5,-195.5 580.5,-195.5 580.5,-174.5 400.5,-174.5"/>
<text text-anchor="middle" x="490.5" y="-181.9" font-family="Helvetica,sans-Serif" font-size="12.00">ExerciseLogger/Swimming.cpp</text>
</a>
</g>
</g>
<!-- Node12&#45;&gt;Node13 -->
<g id="edge14" class="edge">
<title>Node12&#45;&gt;Node13</title>
<path fill="none" stroke="midnightblue" d="M446.22,-225.36C457.12,-215.67 470.48,-203.8 479.65,-195.64"/>
<polygon fill="midnightblue" stroke="midnightblue" points="443.62,-222.99 438.47,-232.25 448.27,-228.22 443.62,-222.99"/>
</g>
<!-- Node14&#45;&gt;Node6 -->
<g id="edge16" class="edge">
<title>Node14&#45;&gt;Node6</title>
<path fill="none" stroke="midnightblue" d="M615.91,-222.35C612.04,-206.9 604.33,-186.04 589.5,-174 567.79,-156.37 500.86,-143.94 447.01,-136.48"/>
<polygon fill="midnightblue" stroke="midnightblue" points="612.55,-223.41 618.09,-232.44 619.4,-221.93 612.55,-223.41"/>
</g>
<!-- Node15 -->
<g id="node15" class="node">
<title>Node15</title>
<g id="a_node15"><a xlink:href="_weight_lifting_8cpp.html" target="_top" xlink:title=" ">
<polygon fill="white" stroke="black" points="636.5,-174.5 636.5,-195.5 830.5,-195.5 830.5,-174.5 636.5,-174.5"/>
<text text-anchor="middle" x="733.5" y="-181.9" font-family="Helvetica,sans-Serif" font-size="12.00">ExerciseLogger/WeightLifting.cpp</text>
</a>
</g>
</g>
<!-- Node14&#45;&gt;Node15 -->
<g id="edge17" class="edge">
<title>Node14&#45;&gt;Node15</title>
<path fill="none" stroke="midnightblue" d="M648.33,-227.84C668.94,-217.71 696.11,-204.37 714.16,-195.5"/>
<polygon fill="midnightblue" stroke="midnightblue" points="646.53,-224.82 639.1,-232.37 649.62,-231.11 646.53,-224.82"/>
</g>
<!-- Node16&#45;&gt;Node6 -->
<g id="edge19" class="edge">
<title>Node16&#45;&gt;Node6</title>
<path fill="none" stroke="midnightblue" d="M858.63,-222.15C857.58,-206.59 853.4,-185.67 839.5,-174 810.13,-149.35 571.43,-136.08 447.14,-130.78"/>
<polygon fill="midnightblue" stroke="midnightblue" points="855.14,-222.44 858.94,-232.33 862.13,-222.23 855.14,-222.44"/>
</g>
<!-- Node17 -->
<g id="node17" class="node">
<title>Node17</title>
<g id="a_node17"><a xlink:href="_yoga_8cpp.html" target="_top" xlink:title=" ">
<polygon fill="white" stroke="black" points="886.5,-174.5 886.5,-195.5 1038.5,-195.5 1038.5,-174.5 886.5,-174.5"/>
<text text-anchor="middle" x="962.5" y="-181.9" font-family="Helvetica,sans-Serif" font-size="12.00">ExerciseLogger/Yoga.cpp</text>
</a>
</g>
</g>
<!-- Node16&#45;&gt;Node17 -->
<g id="edge20" class="edge">
<title>Node16&#45;&gt;Node17</title>
<path fill="none" stroke="midnightblue" d="M885.5,-227.46C904.11,-217.44 928.33,-204.4 944.59,-195.64"/>
<polygon fill="midnightblue" stroke="midnightblue" points="883.76,-224.42 876.62,-232.25 887.08,-230.59 883.76,-224.42"/>
</g>
</g>
</svg>
