<?xml version="1.0" encoding="UTF-8" standalone="no"?>
<!DOCTYPE svg PUBLIC "-//W3C//DTD SVG 1.1//EN"
 "http://www.w3.org/Graphics/SVG/1.1/DTD/svg11.dtd">
<!-- Generated by graphviz version 2.50.0 (20211204.2007)
 -->
<!-- Title: ExerciseLogger/Exercise.h Pages: 1 -->
<!--zoomable 320 -->
<svg id="main" version="1.1" xmlns="http://www.w3.org/2000/svg" xmlns:xlink="http://www.w3.org/1999/xlink" xml:space="preserve" onload="init(evt)">
<style type="text/css"><![CDATA[
.edge:hover path { stroke: red; }
.edge:hover polygon { stroke: red; fill: red; }
]]></style>
<script type="text/javascript"><![CDATA[
var edges = document.getElementsByTagName('g');
if (edges && edges.length) {
  for (var i=0;i<edges.length;i++) {
    if (edges[i].id.substr(0,4)=='edge') {
      edges[i].setAttribute('class','edge');
    }
  }
}
]]></script>
        <defs>
                <circle id="rim" cx="0" cy="0" r="7"/>
                <circle id="rim2" cx="0" cy="0" r="3.5"/>
                <g id="zoomPlus">
                        <use xlink:href="#rim" fill="#404040">
                                <set attributeName="fill" to="#808080" begin="zoomplus.mouseover" end="zoomplus.mouseout"/>
                        </use>
                        <path d="M-4,0h8M0,-4v8" fill="none" stroke="white" stroke-width="1.5" pointer-events="none"/>
                </g>
                <g id="zoomMin">
                        <use xlink:href="#rim" fill="#404040">
                                <set attributeName="fill" to="#808080" begin="zoomminus.mouseover" end="zoomminus.mouseout"/>
                        </use>
                        <path d="M-4,0h8" fill="none" stroke="white" stroke-width="1.5" pointer-events="none"/>
                </g>
                <g id="dirArrow">
                        <path fill="none" stroke="white" stroke-width="1.5" d="M0,-3.0v7 M-2.5,-0.5L0,-3.0L2.5,-0.5"/>
                </g>
               <g id="resetDef">
                       <use xlink:href="#rim2" fill="#404040">
                               <set attributeName="fill" to="#808080" begin="reset.mouseover" end="reset.mouseout"/>
                       </use>
               </g>
        </defs>

<script type="text/javascript">
var viewWidth = 868;
var viewHeight = 320;
var sectionId = 'dynsection-1';
</script>
<script xlink:href="svgpan.js"/>
<svg id="graph" class="graph">
<g id="viewport">
<title>ExerciseLogger/Exercise.h</title>
<polygon fill="white" stroke="transparent" points="-4,4 -4,-316 863.5,-316 863.5,4 -4,4"/>
<!-- Node1 -->
<g id="node1" class="node">
<title>Node1</title>
<g id="a_node1"><a xlink:title=" ">
<polygon fill="#bfbfbf" stroke="black" points="260.5,-290.5 260.5,-311.5 418.5,-311.5 418.5,-290.5 260.5,-290.5"/>
<text text-anchor="middle" x="339.5" y="-297.9" font-family="Helvetica,sans-Serif" font-size="12.00">ExerciseLogger/Exercise.h</text>
</a>
</g>
</g>
<!-- Node2 -->
<g id="node2" class="node">
<title>Node2</title>
<g id="a_node2"><a xlink:href="_exercise_8cpp.html" target="_top" xlink:title=" ">
<polygon fill="white" stroke="black" points="0,-232.5 0,-253.5 171,-253.5 171,-232.5 0,-232.5"/>
<text text-anchor="middle" x="85.5" y="-239.9" font-family="Helvetica,sans-Serif" font-size="12.00">ExerciseLogger/Exercise.cpp</text>
</a>
</g>
</g>
<!-- Node1&#45;&gt;Node2 -->
<g id="edge1" class="edge">
<title>Node1&#45;&gt;Node2</title>
<path fill="none" stroke="midnightblue" d="M286.17,-288.24C239.38,-277.93 172.19,-263.11 128.7,-253.52"/>
<polygon fill="midnightblue" stroke="midnightblue" points="285.61,-291.7 296.12,-290.44 287.11,-284.87 285.61,-291.7"/>
</g>
<!-- Node3 -->
<g id="node3" class="node">
<title>Node3</title>
<g id="a_node3"><a xlink:href="_run_8h.html" target="_top" xlink:title=" ">
<polygon fill="white" stroke="black" points="189.5,-232.5 189.5,-253.5 321.5,-253.5 321.5,-232.5 189.5,-232.5"/>
<text text-anchor="middle" x="255.5" y="-239.9" font-family="Helvetica,sans-Serif" font-size="12.00">ExerciseLogger/Run.h</text>
</a>
</g>
</g>
<!-- Node1&#45;&gt;Node3 -->
<g id="edge2" class="edge">
<title>Node1&#45;&gt;Node3</title>
<path fill="none" stroke="midnightblue" d="M316.24,-284.49C301.41,-274.61 282.68,-262.12 269.96,-253.64"/>
<polygon fill="midnightblue" stroke="midnightblue" points="314.61,-287.61 324.87,-290.25 318.49,-281.79 314.61,-287.61"/>
</g>
<!-- Node12 -->
<g id="node12" class="node">
<title>Node12</title>
<g id="a_node12"><a xlink:href="_swimming_8h.html" target="_top" xlink:title=" ">
<polygon fill="white" stroke="black" points="340,-232.5 340,-253.5 507,-253.5 507,-232.5 340,-232.5"/>
<text text-anchor="middle" x="423.5" y="-239.9" font-family="Helvetica,sans-Serif" font-size="12.00">ExerciseLogger/Swimming.h</text>
</a>
</g>
</g>
<!-- Node1&#45;&gt;Node12 -->
<g id="edge12" class="edge">
<title>Node1&#45;&gt;Node12</title>
<path fill="none" stroke="midnightblue" d="M362.76,-284.49C377.59,-274.61 396.32,-262.12 409.04,-253.64"/>
<polygon fill="midnightblue" stroke="midnightblue" points="360.51,-281.79 354.13,-290.25 364.39,-287.61 360.51,-281.79"/>
</g>
<!-- Node14 -->
<g id="node14" class="node">
<title>Node14</title>
<g id="a_node14"><a xlink:href="_weight_lifting_8h.html" target="_top" xlink:title=" ">
<polygon fill="white" stroke="black" points="547.5,-232.5 547.5,-253.5 727.5,-253.5 727.5,-232.5 547.5,-232.5"/>
<text text-anchor="middle" x="637.5" y="-239.9" font-family="Helvetica,sans-Serif" font-size="12.00">ExerciseLogger/WeightLifting.h</text>
</a>
</g>
</g>
<!-- Node1&#45;&gt;Node14 -->
<g id="edge15" class="edge">
<title>Node1&#45;&gt;Node14</title>
<path fill="none" stroke="midnightblue" d="M400.35,-288.57C455.31,-278.24 535.25,-263.21 586.82,-253.52"/>
<polygon fill="midnightblue" stroke="midnightblue" points="399.57,-285.15 390.39,-290.44 400.86,-292.03 399.57,-285.15"/>
</g>
<!-- Node4 -->
<g id="node4" class="node">
<title>Node4</title>
<g id="a_node4"><a xlink:href="_hike_8h.html" target="_top" xlink:title=" ">
<polygon fill="white" stroke="black" points="35.5,-174.5 35.5,-195.5 171.5,-195.5 171.5,-174.5 35.5,-174.5"/>
<text text-anchor="middle" x="103.5" y="-181.9" font-family="Helvetica,sans-Serif" font-size="12.00">ExerciseLogger/Hike.h</text>
</a>
</g>
</g>
<!-- Node3&#45;&gt;Node4 -->
<g id="edge3" class="edge">
<title>Node3&#45;&gt;Node4</title>
<path fill="none" stroke="midnightblue" d="M219.64,-228.79C191.89,-218.56 154.12,-204.65 129.29,-195.5"/>
<polygon fill="midnightblue" stroke="midnightblue" points="218.78,-232.2 229.37,-232.37 221.2,-225.63 218.78,-232.2"/>
</g>
<!-- Node6 -->
<g id="node6" class="node">
<title>Node6</title>
<g id="a_node6"><a xlink:href="_person_8h.html" target="_top" xlink:title=" ">
<polygon fill="white" stroke="black" points="261,-116.5 261,-137.5 410,-137.5 410,-116.5 261,-116.5"/>
<text text-anchor="middle" x="335.5" y="-123.9" font-family="Helvetica,sans-Serif" font-size="12.00">ExerciseLogger/Person.h</text>
</a>
</g>
</g>
<!-- Node3&#45;&gt;Node6 -->
<g id="edge10" class="edge">
<title>Node3&#45;&gt;Node6</title>
<path fill="none" stroke="midnightblue" d="M235.94,-225.3C221.84,-211.19 207.13,-190.68 218.5,-174 231.28,-155.24 252.99,-144.13 274.26,-137.55"/>
<polygon fill="midnightblue" stroke="midnightblue" points="233.84,-228.14 243.54,-232.41 238.63,-223.03 233.84,-228.14"/>
</g>
<!-- Node11 -->
<g id="node11" class="node">
<title>Node11</title>
<g id="a_node11"><a xlink:href="_run_8cpp.html" target="_top" xlink:title=" ">
<polygon fill="white" stroke="black" points="227.5,-174.5 227.5,-195.5 373.5,-195.5 373.5,-174.5 227.5,-174.5"/>
<text text-anchor="middle" x="300.5" y="-181.9" font-family="Helvetica,sans-Serif" font-size="12.00">ExerciseLogger/Run.cpp</text>
</a>
</g>
</g>
<!-- Node3&#45;&gt;Node11 -->
<g id="edge11" class="edge">
<title>Node3&#45;&gt;Node11</title>
<path fill="none" stroke="midnightblue" d="M269.79,-224.21C277.4,-214.75 286.45,-203.48 292.75,-195.64"/>
<polygon fill="midnightblue" stroke="midnightblue" points="266.87,-222.26 263.34,-232.25 272.33,-226.64 266.87,-222.26"/>
</g>
<!-- Node5 -->
<g id="node5" class="node">
<title>Node5</title>
<g id="a_node5"><a xlink:href="_hike_8cpp.html" target="_top" xlink:title=" ">
<polygon fill="white" stroke="black" points="29,-116.5 29,-137.5 178,-137.5 178,-116.5 29,-116.5"/>
<text text-anchor="middle" x="103.5" y="-123.9" font-family="Helvetica,sans-Serif" font-size="12.00">ExerciseLogger/Hike.cpp</text>
</a>
</g>
</g>
<!-- Node4&#45;&gt;Node5 -->
<g id="edge4" class="edge">
<title>Node4&#45;&gt;Node5</title>
<path fill="none" stroke="midnightblue" d="M103.5,-164.16C103.5,-155.16 103.5,-144.92 103.5,-137.64"/>
<polygon fill="midnightblue" stroke="midnightblue" points="100,-164.25 103.5,-174.25 107,-164.25 100,-164.25"/>
</g>
<!-- Node4&#45;&gt;Node6 -->
<g id="edge5" class="edge">
<title>Node4&#45;&gt;Node6</title>
<path fill="none" stroke="midnightblue" d="M153.02,-172.05C195.72,-161.74 256.57,-147.05 296.04,-137.52"/>
<polygon fill="midnightblue" stroke="midnightblue" points="152.02,-168.69 143.12,-174.44 153.66,-175.49 152.02,-168.69"/>
</g>
<!-- Node7 -->
<g id="node7" class="node">
<title>Node7</title>
<g id="a_node7"><a xlink:href="_menu_8h.html" target="_top" xlink:title=" ">
<polygon fill="white" stroke="black" points="180.5,-58.5 180.5,-79.5 320.5,-79.5 320.5,-58.5 180.5,-58.5"/>
<text text-anchor="middle" x="250.5" y="-65.9" font-family="Helvetica,sans-Serif" font-size="12.00">ExerciseLogger/Menu.h</text>
</a>
</g>
</g>
<!-- Node6&#45;&gt;Node7 -->
<g id="edge6" class="edge">
<title>Node6&#45;&gt;Node7</title>
<path fill="none" stroke="midnightblue" d="M311.96,-110.49C296.96,-100.61 278,-88.12 265.14,-79.64"/>
<polygon fill="midnightblue" stroke="midnightblue" points="310.42,-113.67 320.69,-116.25 314.27,-107.82 310.42,-113.67"/>
</g>
<!-- Node10 -->
<g id="node10" class="node">
<title>Node10</title>
<g id="a_node10"><a xlink:href="_person_8cpp.html" target="_top" xlink:title=" ">
<polygon fill="white" stroke="black" points="339,-58.5 339,-79.5 502,-79.5 502,-58.5 339,-58.5"/>
<text text-anchor="middle" x="420.5" y="-65.9" font-family="Helvetica,sans-Serif" font-size="12.00">ExerciseLogger/Person.cpp</text>
</a>
</g>
</g>
<!-- Node6&#45;&gt;Node10 -->
<g id="edge9" class="edge">
<title>Node6&#45;&gt;Node10</title>
<path fill="none" stroke="midnightblue" d="M359.04,-110.49C374.04,-100.61 393,-88.12 405.86,-79.64"/>
<polygon fill="midnightblue" stroke="midnightblue" points="356.73,-107.82 350.31,-116.25 360.58,-113.67 356.73,-107.82"/>
</g>
<!-- Node8 -->
<g id="node8" class="node">
<title>Node8</title>
<g id="a_node8"><a xlink:href="_exercise_logger_8cpp.html" target="_top" xlink:title=" ">
<polygon fill="white" stroke="black" points="46,-0.5 46,-21.5 255,-21.5 255,-0.5 46,-0.5"/>
<text text-anchor="middle" x="150.5" y="-7.9" font-family="Helvetica,sans-Serif" font-size="12.00">ExerciseLogger/ExerciseLogger.cpp</text>
</a>
</g>
</g>
<!-- Node7&#45;&gt;Node8 -->
<g id="edge7" class="edge">
<title>Node7&#45;&gt;Node8</title>
<path fill="none" stroke="midnightblue" d="M224.29,-53.32C206.43,-43.32 183.28,-30.36 167.72,-21.64"/>
<polygon fill="midnightblue" stroke="midnightblue" points="222.65,-56.41 233.08,-58.25 226.07,-50.31 222.65,-56.41"/>
</g>
<!-- Node9 -->
<g id="node9" class="node">
<title>Node9</title>
<g id="a_node9"><a xlink:href="_menu_8cpp.html" target="_top" xlink:title=" ">
<polygon fill="white" stroke="black" points="273.5,-0.5 273.5,-21.5 427.5,-21.5 427.5,-0.5 273.5,-0.5"/>
<text text-anchor="middle" x="350.5" y="-7.9" font-family="Helvetica,sans-Serif" font-size="12.00">ExerciseLogger/Menu.cpp</text>
</a>
</g>
</g>
<!-- Node7&#45;&gt;Node9 -->
<g id="edge8" class="edge">
<title>Node7&#45;&gt;Node9</title>
<path fill="none" stroke="midnightblue" d="M276.71,-53.32C294.57,-43.32 317.72,-30.36 333.28,-21.64"/>
<polygon fill="midnightblue" stroke="midnightblue" points="274.93,-50.31 267.92,-58.25 278.35,-56.41 274.93,-50.31"/>
</g>
<!-- Node12&#45;&gt;Node6 -->
<g id="edge13" class="edge">
<title>Node12&#45;&gt;Node6</title>
<path fill="none" stroke="midnightblue" d="M413.77,-223.05C406.13,-208.93 394.75,-189.48 382.5,-174 371.59,-160.21 356.8,-146.37 346.74,-137.52"/>
<polygon fill="midnightblue" stroke="midnightblue" points="410.88,-225.06 418.64,-232.27 417.06,-221.79 410.88,-225.06"/>
</g>
<!-- Node13 -->
<g id="node13" class="node">
<title>Node13</title>
<g id="a_node13"><a xlink:href="_swimming_8cpp.html" target="_top" xlink:title=" ">
<polygon fill="white" stroke="black" points="429.5,-174.5 429.5,-195.5 609.5,-195.5 609.5,-174.5 429.5,-174.5"/>
<text text-anchor="middle" x="519.5" y="-181.9" font-family="Helvetica,sans-Serif" font-size="12.00">ExerciseLogger/Swimming.cpp</text>
</a>
</g>
</g>
<!-- Node12&#45;&gt;Node13 -->
<g id="edge14" class="edge">
<title>Node12&#45;&gt;Node13</title>
<path fill="none" stroke="midnightblue" d="M449.13,-227.05C466.22,-217.08 488.16,-204.28 502.97,-195.64"/>
<polygon fill="midnightblue" stroke="midnightblue" points="447.1,-224.18 440.22,-232.25 450.62,-230.23 447.1,-224.18"/>
</g>
<!-- Node14&#45;&gt;Node6 -->
<g id="edge16" class="edge">
<title>Node14&#45;&gt;Node6</title>
<path fill="none" stroke="midnightblue" d="M637.43,-222.38C636.26,-206.95 632.03,-186.1 618.5,-174 588.49,-147.16 483.43,-135.87 410.13,-131.2"/>
<polygon fill="midnightblue" stroke="midnightblue" points="633.94,-222.6 637.83,-232.46 640.93,-222.33 633.94,-222.6"/>
</g>
<!-- Node15 -->
<g id="node15" class="node">
<title>Node15</title>
<g id="a_node15"><a xlink:href="_weight_lifting_8cpp.html" target="_top" xlink:title=" ">
<polygon fill="white" stroke="black" points="665.5,-174.5 665.5,-195.5 859.5,-195.5 859.5,-174.5 665.5,-174.5"/>
<text text-anchor="middle" x="762.5" y="-181.9" font-family="Helvetica,sans-Serif" font-size="12.00">ExerciseLogger/WeightLifting.cpp</text>
</a>
</g>
</g>
<!-- Node14&#45;&gt;Node15 -->
<g id="edge17" class="edge">
<title>Node14&#45;&gt;Node15</title>
<path fill="none" stroke="midnightblue" d="M668.2,-228.25C690.9,-218.08 721.23,-204.49 741.29,-195.5"/>
<polygon fill="midnightblue" stroke="midnightblue" points="666.68,-225.09 658.99,-232.37 669.55,-231.48 666.68,-225.09"/>
</g>
</g>
</svg>
        <g id="navigator" transform="translate(0 0)" fill="#404254">
                <rect fill="#f2f5e9" fill-opacity="0.5" stroke="#606060" stroke-width=".5" x="0" y="0" width="60" height="60"/>
                <use id="zoomplus" xlink:href="#zoomPlus" x="17" y="9" onmousedown="handleZoom(evt,'in')"/>
                <use id="zoomminus" xlink:href="#zoomMin" x="42" y="9" onmousedown="handleZoom(evt,'out')"/>
                <use id="reset" xlink:href="#resetDef" x="30" y="36" onmousedown="handleReset()"/>
                <g id="arrowUp" xlink:href="#dirArrow" transform="translate(30 24)" onmousedown="handlePan(0,-1)">
                  <use xlink:href="#rim" fill="#404040">
                        <set attributeName="fill" to="#808080" begin="arrowUp.mouseover" end="arrowUp.mouseout"/>
                  </use>
                  <path fill="none" stroke="white" stroke-width="1.5" d="M0,-3.0v7 M-2.5,-0.5L0,-3.0L2.5,-0.5"/>
                </g>
                <g id="arrowRight" xlink:href="#dirArrow" transform="rotate(90) translate(36 -43)" onmousedown="handlePan(1,0)">
                  <use xlink:href="#rim" fill="#404040">
                        <set attributeName="fill" to="#808080" begin="arrowRight.mouseover" end="arrowRight.mouseout"/>
                  </use>
                  <path fill="none" stroke="white" stroke-width="1.5" d="M0,-3.0v7 M-2.5,-0.5L0,-3.0L2.5,-0.5"/>
                </g>
                <g id="arrowDown" xlink:href="#dirArrow" transform="rotate(180) translate(-30 -48)" onmousedown="handlePan(0,1)">
                  <use xlink:href="#rim" fill="#404040">
                        <set attributeName="fill" to="#808080" begin="arrowDown.mouseover" end="arrowDown.mouseout"/>
                  </use>
                  <path fill="none" stroke="white" stroke-width="1.5" d="M0,-3.0v7 M-2.5,-0.5L0,-3.0L2.5,-0.5"/>
                </g>
                <g id="arrowLeft" xlink:href="#dirArrow" transform="rotate(270) translate(-36 17)" onmousedown="handlePan(-1,0)">
                  <use xlink:href="#rim" fill="#404040">
                        <set attributeName="fill" to="#808080" begin="arrowLeft.mouseover" end="arrowLeft.mouseout"/>
                  </use>
                  <path fill="none" stroke="white" stroke-width="1.5" d="M0,-3.0v7 M-2.5,-0.5L0,-3.0L2.5,-0.5"/>
                </g>
        </g>
        <svg viewBox="0 0 15 15" width="100%" height="30px" preserveAspectRatio="xMaxYMin meet">
         <g id="arrow_out" transform="scale(0.3 0.3)">
          <a xlink:href="_exercise_8h__dep__incl_org.svg" target="_base">
           <rect id="button" ry="5" rx="5" y="6" x="6" height="38" width="38"
                fill="#f2f5e9" fill-opacity="0.5" stroke="#606060" stroke-width="1.0"/>
           <path id="arrow"
             d="M 11.500037,31.436501 C 11.940474,20.09759 22.043105,11.32322 32.158766,21.979434 L 37.068811,17.246167 C 37.068811,17.246167 37.088388,32 37.088388,32 L 22.160133,31.978069 C 22.160133,31.978069 26.997745,27.140456 26.997745,27.140456 C 18.528582,18.264221 13.291696,25.230495 11.500037,31.436501 z"
             style="fill:#404040;"/>
          </a>
         </g>
        </svg>
</svg>
