<?xml version="1.0" encoding="UTF-8" standalone="no"?>
<!DOCTYPE svg PUBLIC "-//W3C//DTD SVG 1.1//EN"
 "http://www.w3.org/Graphics/SVG/1.1/DTD/svg11.dtd">
<!-- Generated by graphviz version 2.50.0 (20211204.2007)
 -->
<!-- Title: main Pages: 1 -->
<svg width="913pt" height="262pt"
 viewBox="0.00 0.00 913.00 261.58" xmlns="http://www.w3.org/2000/svg" xmlns:xlink="http://www.w3.org/1999/xlink">
<g id="graph0" class="graph" transform="scale(1 1) rotate(0) translate(4 257.58)">
<title>main</title>
<polygon fill="white" stroke="transparent" points="-4,4 -4,-257.58 909,-257.58 909,4 -4,4"/>
<!-- Node1 -->
<g id="node1" class="node">
<title>Node1</title>
<g id="a_node1"><a xlink:title=" ">
<polygon fill="#bfbfbf" stroke="black" points="0,-112.08 0,-133.08 42,-133.08 42,-112.08 0,-112.08"/>
<text text-anchor="middle" x="21" y="-119.48" font-family="Helvetica,sans-Serif" font-size="12.00">main</text>
</a>
</g>
</g>
<!-- Node2 -->
<g id="node2" class="node">
<title>Node2</title>
<g id="a_node2"><a xlink:href="class_menu.html#ae1ec62e738dda7faaaec850bd0b58ffe" target="_top" xlink:title=" ">
<polygon fill="white" stroke="black" points="78,-112.08 78,-133.08 152,-133.08 152,-112.08 78,-112.08"/>
<text text-anchor="middle" x="115" y="-119.48" font-family="Helvetica,sans-Serif" font-size="12.00">Menu::start</text>
</a>
</g>
</g>
<!-- Node1&#45;&gt;Node2 -->
<g id="edge1" class="edge">
<title>Node1&#45;&gt;Node2</title>
<path fill="none" stroke="midnightblue" d="M42.42,-122.58C49.88,-122.58 58.65,-122.58 67.45,-122.58"/>
<polygon fill="midnightblue" stroke="midnightblue" points="67.71,-126.08 77.71,-122.58 67.71,-119.08 67.71,-126.08"/>
</g>
<!-- Node3 -->
<g id="node3" class="node">
<title>Node3</title>
<g id="a_node3"><a xlink:href="class_menu.html#a70673c67e9c671ec8930868f90467760" target="_top" xlink:title=" ">
<polygon fill="white" stroke="black" points="188,-232.08 188,-253.08 328,-253.08 328,-232.08 188,-232.08"/>
<text text-anchor="middle" x="258" y="-239.48" font-family="Helvetica,sans-Serif" font-size="12.00">Menu::addNewExercise</text>
</a>
</g>
</g>
<!-- Node2&#45;&gt;Node3 -->
<g id="edge2" class="edge">
<title>Node2&#45;&gt;Node3</title>
<path fill="none" stroke="midnightblue" d="M120.66,-133.13C130.23,-153.56 154.09,-198.65 188,-222.58 190.7,-224.49 193.58,-226.21 196.58,-227.77"/>
<polygon fill="midnightblue" stroke="midnightblue" points="195.28,-231.03 205.84,-231.99 198.18,-224.66 195.28,-231.03"/>
</g>
<!-- Node5 -->
<g id="node5" class="node">
<title>Node5</title>
<g id="a_node5"><a xlink:href="class_menu.html#aa7ebe69aba410a13a88ccde79a5c7f3f" target="_top" xlink:title=" ">
<polygon fill="white" stroke="black" points="192,-112.08 192,-133.08 324,-133.08 324,-112.08 192,-112.08"/>
<text text-anchor="middle" x="258" y="-119.48" font-family="Helvetica,sans-Serif" font-size="12.00">Menu::addNewPerson</text>
</a>
</g>
</g>
<!-- Node2&#45;&gt;Node5 -->
<g id="edge4" class="edge">
<title>Node2&#45;&gt;Node5</title>
<path fill="none" stroke="midnightblue" d="M152.31,-122.58C161.37,-122.58 171.42,-122.58 181.61,-122.58"/>
<polygon fill="midnightblue" stroke="midnightblue" points="181.81,-126.08 191.81,-122.58 181.81,-119.08 181.81,-126.08"/>
</g>
<!-- Node11 -->
<g id="node11" class="node">
<title>Node11</title>
<g id="a_node11"><a xlink:href="class_menu.html#ab24a09633db8d1be3bcd84adf059f0d6" target="_top" xlink:title=" ">
<polygon fill="white" stroke="black" points="204,-192.08 204,-213.08 312,-213.08 312,-192.08 204,-192.08"/>
<text text-anchor="middle" x="258" y="-199.48" font-family="Helvetica,sans-Serif" font-size="12.00">Menu::editPerson</text>
</a>
</g>
</g>
<!-- Node2&#45;&gt;Node11 -->
<g id="edge10" class="edge">
<title>Node2&#45;&gt;Node11</title>
<path fill="none" stroke="midnightblue" d="M126.19,-133.48C139.28,-146.88 163.29,-169.45 188,-182.58 192.19,-184.8 196.65,-186.81 201.21,-188.61"/>
<polygon fill="midnightblue" stroke="midnightblue" points="200.08,-191.92 210.68,-192.03 202.46,-185.34 200.08,-191.92"/>
</g>
<!-- Node12 -->
<g id="node12" class="node">
<title>Node12</title>
<g id="a_node12"><a xlink:href="class_menu.html#af9f654347310d43ee1cb2ddbefbee9df" target="_top" xlink:title=" ">
<polygon fill="white" stroke="black" points="197.5,-72.08 197.5,-93.08 318.5,-93.08 318.5,-72.08 197.5,-72.08"/>
<text text-anchor="middle" x="258" y="-79.48" font-family="Helvetica,sans-Serif" font-size="12.00">Menu::loadFromFile</text>
</a>
</g>
</g>
<!-- Node2&#45;&gt;Node12 -->
<g id="edge12" class="edge">
<title>Node2&#45;&gt;Node12</title>
<path fill="none" stroke="midnightblue" d="M152.31,-112.28C169.88,-107.3 191.18,-101.25 209.98,-95.92"/>
<polygon fill="midnightblue" stroke="midnightblue" points="211.16,-99.22 219.83,-93.13 209.25,-92.49 211.16,-99.22"/>
</g>
<!-- Node17 -->
<g id="node17" class="node">
<title>Node17</title>
<g id="a_node17"><a xlink:href="class_menu.html#a5a974ab9c87b95a19770f94b3eb5066f" target="_top" xlink:title=" ">
<polygon fill="white" stroke="black" points="199,-32.08 199,-53.08 317,-53.08 317,-32.08 199,-32.08"/>
<text text-anchor="middle" x="258" y="-39.48" font-family="Helvetica,sans-Serif" font-size="12.00">Menu::saveAndQuit</text>
</a>
</g>
</g>
<!-- Node2&#45;&gt;Node17 -->
<g id="edge17" class="edge">
<title>Node2&#45;&gt;Node17</title>
<path fill="none" stroke="midnightblue" d="M126.19,-111.68C139.28,-98.28 163.29,-75.71 188,-62.58 192.19,-60.36 196.65,-58.35 201.21,-56.55"/>
<polygon fill="midnightblue" stroke="midnightblue" points="202.46,-59.82 210.68,-53.13 200.08,-53.24 202.46,-59.82"/>
</g>
<!-- Node18 -->
<g id="node18" class="node">
<title>Node18</title>
<g id="a_node18"><a xlink:href="class_menu.html#a2298302836fd3658f43d74d1bc6b9a29" target="_top" xlink:title=" ">
<polygon fill="white" stroke="black" points="387,-13.08 387,-34.08 496,-34.08 496,-13.08 387,-13.08"/>
<text text-anchor="middle" x="441.5" y="-20.48" font-family="Helvetica,sans-Serif" font-size="12.00">Menu::writeToFile</text>
</a>
</g>
</g>
<!-- Node2&#45;&gt;Node18 -->
<g id="edge21" class="edge">
<title>Node2&#45;&gt;Node18</title>
<path fill="none" stroke="midnightblue" d="M119.86,-111.83C128.3,-90.16 150.68,-41.7 188,-22.58 252.51,10.46 339.02,0.41 392.2,-10.86"/>
<polygon fill="midnightblue" stroke="midnightblue" points="391.53,-14.3 402.05,-13.04 393.05,-7.46 391.53,-14.3"/>
</g>
<!-- Node19 -->
<g id="node19" class="node">
<title>Node19</title>
<g id="a_node19"><a xlink:href="class_menu.html#a8196e617d71a059fc968f522eed4c4ca" target="_top" xlink:title=" ">
<polygon fill="white" stroke="black" points="200,-152.08 200,-173.08 316,-173.08 316,-152.08 200,-152.08"/>
<text text-anchor="middle" x="258" y="-159.48" font-family="Helvetica,sans-Serif" font-size="12.00">Menu::showPerson</text>
</a>
</g>
</g>
<!-- Node2&#45;&gt;Node19 -->
<g id="edge19" class="edge">
<title>Node2&#45;&gt;Node19</title>
<path fill="none" stroke="midnightblue" d="M152.31,-132.88C169.88,-137.87 191.18,-143.91 209.98,-149.24"/>
<polygon fill="midnightblue" stroke="midnightblue" points="209.25,-152.67 219.83,-152.04 211.16,-145.94 209.25,-152.67"/>
</g>
<!-- Node4 -->
<g id="node4" class="node">
<title>Node4</title>
<g id="a_node4"><a xlink:href="class_menu.html#abd3f594403e9f8acc62d5b3f2e394ddc" target="_top" xlink:title=" ">
<polygon fill="white" stroke="black" points="368.5,-192.08 368.5,-213.08 514.5,-213.08 514.5,-192.08 368.5,-192.08"/>
<text text-anchor="middle" x="441.5" y="-199.48" font-family="Helvetica,sans-Serif" font-size="12.00">Menu::printPersonVector</text>
</a>
</g>
</g>
<!-- Node3&#45;&gt;Node4 -->
<g id="edge3" class="edge">
<title>Node3&#45;&gt;Node4</title>
<path fill="none" stroke="midnightblue" d="M306.69,-232.07C330.04,-226.92 358.35,-220.69 382.9,-215.27"/>
<polygon fill="midnightblue" stroke="midnightblue" points="383.8,-218.66 392.82,-213.09 382.3,-211.82 383.8,-218.66"/>
</g>
<!-- Node6 -->
<g id="node6" class="node">
<title>Node6</title>
<g id="a_node6"><a xlink:href="class_person.html#ac2d03633c439fe91ee1b00b28dda0f34" target="_top" xlink:title=" ">
<polygon fill="white" stroke="black" points="388.5,-132.08 388.5,-153.08 494.5,-153.08 494.5,-132.08 388.5,-132.08"/>
<text text-anchor="middle" x="441.5" y="-139.48" font-family="Helvetica,sans-Serif" font-size="12.00">Person::addData</text>
</a>
</g>
</g>
<!-- Node5&#45;&gt;Node6 -->
<g id="edge5" class="edge">
<title>Node5&#45;&gt;Node6</title>
<path fill="none" stroke="midnightblue" d="M324.01,-129.74C341.7,-131.69 360.81,-133.8 378.33,-135.73"/>
<polygon fill="midnightblue" stroke="midnightblue" points="378.12,-139.23 388.44,-136.84 378.89,-132.27 378.12,-139.23"/>
</g>
<!-- Node7 -->
<g id="node7" class="node">
<title>Node7</title>
<g id="a_node7"><a xlink:href="class_person.html#a26a9c92ced3166b11140e0bda83b1eb3" target="_top" xlink:title=" ">
<polygon fill="white" stroke="black" points="583,-152.08 583,-173.08 709,-173.08 709,-152.08 583,-152.08"/>
<text text-anchor="middle" x="646" y="-159.48" font-family="Helvetica,sans-Serif" font-size="12.00">Person::addExercise</text>
</a>
</g>
</g>
<!-- Node6&#45;&gt;Node7 -->
<g id="edge6" class="edge">
<title>Node6&#45;&gt;Node7</title>
<path fill="none" stroke="midnightblue" d="M494.65,-147.73C518.44,-150.08 547.01,-152.9 572.82,-155.45"/>
<polygon fill="midnightblue" stroke="midnightblue" points="572.64,-158.95 582.94,-156.45 573.33,-151.99 572.64,-158.95"/>
</g>
<!-- Node8 -->
<g id="node8" class="node">
<title>Node8</title>
<g id="a_node8"><a xlink:href="class_run.html#aeda5a32098dffc91e53ee8941dc109f3" target="_top" xlink:title=" ">
<polygon fill="white" stroke="black" points="794.5,-192.08 794.5,-213.08 883.5,-213.08 883.5,-192.08 794.5,-192.08"/>
<text text-anchor="middle" x="839" y="-199.48" font-family="Helvetica,sans-Serif" font-size="12.00">Run::addData</text>
</a>
</g>
</g>
<!-- Node7&#45;&gt;Node8 -->
<g id="edge7" class="edge">
<title>Node7&#45;&gt;Node8</title>
<path fill="none" stroke="midnightblue" d="M697.18,-173.09C724.06,-178.72 757.16,-185.65 784.52,-191.38"/>
<polygon fill="midnightblue" stroke="midnightblue" points="783.81,-194.81 794.32,-193.43 785.25,-187.96 783.81,-194.81"/>
</g>
<!-- Node9 -->
<g id="node9" class="node">
<title>Node9</title>
<g id="a_node9"><a xlink:href="class_weightlifting.html#a8800d964a57bbbb5ae1a2c6ca613f322" target="_top" xlink:title=" ">
<polygon fill="white" stroke="black" points="773,-152.08 773,-173.08 905,-173.08 905,-152.08 773,-152.08"/>
<text text-anchor="middle" x="839" y="-159.48" font-family="Helvetica,sans-Serif" font-size="12.00">Weightlifting::addData</text>
</a>
</g>
</g>
<!-- Node7&#45;&gt;Node9 -->
<g id="edge8" class="edge">
<title>Node7&#45;&gt;Node9</title>
<path fill="none" stroke="midnightblue" d="M709.01,-162.58C726.04,-162.58 744.69,-162.58 762.39,-162.58"/>
<polygon fill="midnightblue" stroke="midnightblue" points="762.69,-166.08 772.69,-162.58 762.68,-159.08 762.69,-166.08"/>
</g>
<!-- Node10 -->
<g id="node10" class="node">
<title>Node10</title>
<g id="a_node10"><a xlink:href="class_swimming.html#ac0790d61cd6663f894e3aae8da15fd2d" target="_top" xlink:title=" ">
<polygon fill="white" stroke="black" points="777.5,-112.08 777.5,-133.08 900.5,-133.08 900.5,-112.08 777.5,-112.08"/>
<text text-anchor="middle" x="839" y="-119.48" font-family="Helvetica,sans-Serif" font-size="12.00">Swimming::addData</text>
</a>
</g>
</g>
<!-- Node7&#45;&gt;Node10 -->
<g id="edge9" class="edge">
<title>Node7&#45;&gt;Node10</title>
<path fill="none" stroke="midnightblue" d="M697.18,-152.07C721.87,-146.9 751.82,-140.63 777.73,-135.2"/>
<polygon fill="midnightblue" stroke="midnightblue" points="778.75,-138.56 787.82,-133.09 777.32,-131.71 778.75,-138.56"/>
</g>
<!-- Node11&#45;&gt;Node4 -->
<g id="edge11" class="edge">
<title>Node11&#45;&gt;Node4</title>
<path fill="none" stroke="midnightblue" d="M312.47,-202.58C326.8,-202.58 342.62,-202.58 358.12,-202.58"/>
<polygon fill="midnightblue" stroke="midnightblue" points="358.24,-206.08 368.24,-202.58 358.24,-199.08 358.24,-206.08"/>
</g>
<!-- Node13 -->
<g id="node13" class="node">
<title>Node13</title>
<g id="a_node13"><a xlink:href="class_person.html#ad4703ef7c3ce2ed4ff7fbfb26ead614d" target="_top" xlink:title=" ">
<polygon fill="white" stroke="black" points="364,-72.08 364,-93.08 519,-93.08 519,-72.08 364,-72.08"/>
<text text-anchor="middle" x="441.5" y="-79.48" font-family="Helvetica,sans-Serif" font-size="12.00">Person::loadDataFromFile</text>
</a>
</g>
</g>
<!-- Node12&#45;&gt;Node13 -->
<g id="edge13" class="edge">
<title>Node12&#45;&gt;Node13</title>
<path fill="none" stroke="midnightblue" d="M318.68,-82.58C329.87,-82.58 341.77,-82.58 353.59,-82.58"/>
<polygon fill="midnightblue" stroke="midnightblue" points="353.93,-86.08 363.93,-82.58 353.93,-79.08 353.93,-86.08"/>
</g>
<!-- Node14 -->
<g id="node14" class="node">
<title>Node14</title>
<g id="a_node14"><a xlink:href="class_run.html#a3d526b27092ac87ccc7566846c87d311" target="_top" xlink:title=" ">
<polygon fill="white" stroke="black" points="577,-112.08 577,-133.08 715,-133.08 715,-112.08 577,-112.08"/>
<text text-anchor="middle" x="646" y="-119.48" font-family="Helvetica,sans-Serif" font-size="12.00">Run::loadDataFromFile</text>
</a>
</g>
</g>
<!-- Node13&#45;&gt;Node14 -->
<g id="edge14" class="edge">
<title>Node13&#45;&gt;Node14</title>
<path fill="none" stroke="midnightblue" d="M495.7,-93.09C522.11,-98.31 554.19,-104.64 581.83,-110.1"/>
<polygon fill="midnightblue" stroke="midnightblue" points="581.31,-113.57 591.8,-112.07 582.67,-106.7 581.31,-113.57"/>
</g>
<!-- Node15 -->
<g id="node15" class="node">
<title>Node15</title>
<g id="a_node15"><a xlink:href="class_weightlifting.html#a68980175f7047fba24f9e4621b6b2df4" target="_top" xlink:title=" ">
<polygon fill="white" stroke="black" points="555,-72.08 555,-93.08 737,-93.08 737,-72.08 555,-72.08"/>
<text text-anchor="middle" x="646" y="-79.48" font-family="Helvetica,sans-Serif" font-size="12.00">Weightlifting::loadDataFromFile</text>
</a>
</g>
</g>
<!-- Node13&#45;&gt;Node15 -->
<g id="edge15" class="edge">
<title>Node13&#45;&gt;Node15</title>
<path fill="none" stroke="midnightblue" d="M519.06,-82.58C527.43,-82.58 536.04,-82.58 544.64,-82.58"/>
<polygon fill="midnightblue" stroke="midnightblue" points="544.72,-86.08 554.72,-82.58 544.72,-79.08 544.72,-86.08"/>
</g>
<!-- Node16 -->
<g id="node16" class="node">
<title>Node16</title>
<g id="a_node16"><a xlink:href="class_swimming.html#ae7c9886f5ea1443dc0e7572f19fd03a9" target="_top" xlink:title=" ">
<polygon fill="white" stroke="black" points="559.5,-32.08 559.5,-53.08 732.5,-53.08 732.5,-32.08 559.5,-32.08"/>
<text text-anchor="middle" x="646" y="-39.48" font-family="Helvetica,sans-Serif" font-size="12.00">Swimming::loadDataFromFile</text>
</a>
</g>
</g>
<!-- Node13&#45;&gt;Node16 -->
<g id="edge16" class="edge">
<title>Node13&#45;&gt;Node16</title>
<path fill="none" stroke="midnightblue" d="M495.7,-72.07C522.11,-66.86 554.19,-60.52 581.83,-55.06"/>
<polygon fill="midnightblue" stroke="midnightblue" points="582.67,-58.46 591.8,-53.09 581.31,-51.59 582.67,-58.46"/>
</g>
<!-- Node17&#45;&gt;Node18 -->
<g id="edge18" class="edge">
<title>Node17&#45;&gt;Node18</title>
<path fill="none" stroke="midnightblue" d="M317.18,-36.49C336.25,-34.49 357.53,-32.27 376.98,-30.23"/>
<polygon fill="midnightblue" stroke="midnightblue" points="377.38,-33.71 386.96,-29.19 376.65,-26.75 377.38,-33.71"/>
</g>
<!-- Node19&#45;&gt;Node4 -->
<g id="edge20" class="edge">
<title>Node19&#45;&gt;Node4</title>
<path fill="none" stroke="midnightblue" d="M306.69,-173.09C330.04,-178.24 358.35,-184.48 382.9,-189.89"/>
<polygon fill="midnightblue" stroke="midnightblue" points="382.3,-193.34 392.82,-192.07 383.8,-186.5 382.3,-193.34"/>
</g>
</g>
</svg>
