<?xml version="1.0" encoding="UTF-8" standalone="no"?>
<!DOCTYPE svg PUBLIC "-//W3C//DTD SVG 1.1//EN"
 "http://www.w3.org/Graphics/SVG/1.1/DTD/svg11.dtd">
<!-- Generated by graphviz version 2.50.0 (20211204.2007)
 -->
<!-- Title: main Pages: 1 -->
<svg width="913pt" height="270pt"
 viewBox="0.00 0.00 913.00 270.00" xmlns="http://www.w3.org/2000/svg" xmlns:xlink="http://www.w3.org/1999/xlink">
<g id="graph0" class="graph" transform="scale(1 1) rotate(0) translate(4 266)">
<title>main</title>
<polygon fill="white" stroke="transparent" points="-4,4 -4,-266 909,-266 909,4 -4,4"/>
<!-- Node1 -->
<g id="node1" class="node">
<title>Node1</title>
<g id="a_node1"><a xlink:title=" ">
<polygon fill="#bfbfbf" stroke="black" points="0,-120.5 0,-141.5 42,-141.5 42,-120.5 0,-120.5"/>
<text text-anchor="middle" x="21" y="-127.9" font-family="Helvetica,sans-Serif" font-size="12.00">main</text>
</a>
</g>
</g>
<!-- Node2 -->
<g id="node2" class="node">
<title>Node2</title>
<g id="a_node2"><a xlink:href="class_menu.html#ae1ec62e738dda7faaaec850bd0b58ffe" target="_top" xlink:title=" ">
<polygon fill="white" stroke="black" points="78,-120.5 78,-141.5 152,-141.5 152,-120.5 78,-120.5"/>
<text text-anchor="middle" x="115" y="-127.9" font-family="Helvetica,sans-Serif" font-size="12.00">Menu::start</text>
</a>
</g>
</g>
<!-- Node1&#45;&gt;Node2 -->
<g id="edge1" class="edge">
<title>Node1&#45;&gt;Node2</title>
<path fill="none" stroke="midnightblue" d="M42.42,-131C49.88,-131 58.65,-131 67.45,-131"/>
<polygon fill="midnightblue" stroke="midnightblue" points="67.71,-134.5 77.71,-131 67.71,-127.5 67.71,-134.5"/>
</g>
<!-- Node3 -->
<g id="node3" class="node">
<title>Node3</title>
<g id="a_node3"><a xlink:href="class_menu.html#a70673c67e9c671ec8930868f90467760" target="_top" xlink:title=" ">
<polygon fill="white" stroke="black" points="188,-240.5 188,-261.5 328,-261.5 328,-240.5 188,-240.5"/>
<text text-anchor="middle" x="258" y="-247.9" font-family="Helvetica,sans-Serif" font-size="12.00">Menu::addNewExercise</text>
</a>
</g>
</g>
<!-- Node2&#45;&gt;Node3 -->
<g id="edge2" class="edge">
<title>Node2&#45;&gt;Node3</title>
<path fill="none" stroke="midnightblue" d="M120.66,-141.55C130.23,-161.98 154.09,-207.07 188,-231 190.7,-232.91 193.58,-234.63 196.58,-236.19"/>
<polygon fill="midnightblue" stroke="midnightblue" points="195.28,-239.45 205.84,-240.41 198.18,-233.08 195.28,-239.45"/>
</g>
<!-- Node5 -->
<g id="node5" class="node">
<title>Node5</title>
<g id="a_node5"><a xlink:href="class_menu.html#aa7ebe69aba410a13a88ccde79a5c7f3f" target="_top" xlink:title=" ">
<polygon fill="white" stroke="black" points="192,-120.5 192,-141.5 324,-141.5 324,-120.5 192,-120.5"/>
<text text-anchor="middle" x="258" y="-127.9" font-family="Helvetica,sans-Serif" font-size="12.00">Menu::addNewPerson</text>
</a>
</g>
</g>
<!-- Node2&#45;&gt;Node5 -->
<g id="edge4" class="edge">
<title>Node2&#45;&gt;Node5</title>
<path fill="none" stroke="midnightblue" d="M152.31,-131C161.37,-131 171.42,-131 181.61,-131"/>
<polygon fill="midnightblue" stroke="midnightblue" points="181.81,-134.5 191.81,-131 181.81,-127.5 181.81,-134.5"/>
</g>
<!-- Node12 -->
<g id="node12" class="node">
<title>Node12</title>
<g id="a_node12"><a xlink:href="class_menu.html#ab24a09633db8d1be3bcd84adf059f0d6" target="_top" xlink:title=" ">
<polygon fill="white" stroke="black" points="204,-200.5 204,-221.5 312,-221.5 312,-200.5 204,-200.5"/>
<text text-anchor="middle" x="258" y="-207.9" font-family="Helvetica,sans-Serif" font-size="12.00">Menu::editPerson</text>
</a>
</g>
</g>
<!-- Node2&#45;&gt;Node12 -->
<g id="edge11" class="edge">
<title>Node2&#45;&gt;Node12</title>
<path fill="none" stroke="midnightblue" d="M126.19,-141.9C139.28,-155.3 163.29,-177.87 188,-191 192.19,-193.22 196.65,-195.23 201.21,-197.03"/>
<polygon fill="midnightblue" stroke="midnightblue" points="200.08,-200.34 210.68,-200.45 202.46,-193.76 200.08,-200.34"/>
</g>
<!-- Node13 -->
<g id="node13" class="node">
<title>Node13</title>
<g id="a_node13"><a xlink:href="class_menu.html#af9f654347310d43ee1cb2ddbefbee9df" target="_top" xlink:title=" ">
<polygon fill="white" stroke="black" points="197.5,-80.5 197.5,-101.5 318.5,-101.5 318.5,-80.5 197.5,-80.5"/>
<text text-anchor="middle" x="258" y="-87.9" font-family="Helvetica,sans-Serif" font-size="12.00">Menu::loadFromFile</text>
</a>
</g>
</g>
<!-- Node2&#45;&gt;Node13 -->
<g id="edge13" class="edge">
<title>Node2&#45;&gt;Node13</title>
<path fill="none" stroke="midnightblue" d="M152.31,-120.7C169.88,-115.72 191.18,-109.67 209.98,-104.34"/>
<polygon fill="midnightblue" stroke="midnightblue" points="211.16,-107.64 219.83,-101.54 209.25,-100.91 211.16,-107.64"/>
</g>
<!-- Node19 -->
<g id="node19" class="node">
<title>Node19</title>
<g id="a_node19"><a xlink:href="class_menu.html#a5a974ab9c87b95a19770f94b3eb5066f" target="_top" xlink:title=" ">
<polygon fill="white" stroke="black" points="199,-40.5 199,-61.5 317,-61.5 317,-40.5 199,-40.5"/>
<text text-anchor="middle" x="258" y="-47.9" font-family="Helvetica,sans-Serif" font-size="12.00">Menu::saveAndQuit</text>
</a>
</g>
</g>
<!-- Node2&#45;&gt;Node19 -->
<g id="edge19" class="edge">
<title>Node2&#45;&gt;Node19</title>
<path fill="none" stroke="midnightblue" d="M126.19,-120.1C139.28,-106.7 163.29,-84.13 188,-71 192.19,-68.78 196.65,-66.77 201.21,-64.97"/>
<polygon fill="midnightblue" stroke="midnightblue" points="202.46,-68.24 210.68,-61.55 200.08,-61.66 202.46,-68.24"/>
</g>
<!-- Node20 -->
<g id="node20" class="node">
<title>Node20</title>
<g id="a_node20"><a xlink:href="class_menu.html#a2298302836fd3658f43d74d1bc6b9a29" target="_top" xlink:title=" ">
<polygon fill="white" stroke="black" points="387,-21.5 387,-42.5 496,-42.5 496,-21.5 387,-21.5"/>
<text text-anchor="middle" x="441.5" y="-28.9" font-family="Helvetica,sans-Serif" font-size="12.00">Menu::writeToFile</text>
</a>
</g>
</g>
<!-- Node2&#45;&gt;Node20 -->
<g id="edge23" class="edge">
<title>Node2&#45;&gt;Node20</title>
<path fill="none" stroke="midnightblue" d="M119.86,-120.25C128.3,-98.58 150.68,-50.12 188,-31 252.51,2.04 339.02,-8.01 392.2,-19.28"/>
<polygon fill="midnightblue" stroke="midnightblue" points="391.53,-22.72 402.05,-21.46 393.05,-15.88 391.53,-22.72"/>
</g>
<!-- Node21 -->
<g id="node21" class="node">
<title>Node21</title>
<g id="a_node21"><a xlink:href="class_menu.html#a8196e617d71a059fc968f522eed4c4ca" target="_top" xlink:title=" ">
<polygon fill="white" stroke="black" points="200,-160.5 200,-181.5 316,-181.5 316,-160.5 200,-160.5"/>
<text text-anchor="middle" x="258" y="-167.9" font-family="Helvetica,sans-Serif" font-size="12.00">Menu::showPerson</text>
</a>
</g>
</g>
<!-- Node2&#45;&gt;Node21 -->
<g id="edge21" class="edge">
<title>Node2&#45;&gt;Node21</title>
<path fill="none" stroke="midnightblue" d="M152.31,-141.3C169.88,-146.28 191.18,-152.33 209.98,-157.66"/>
<polygon fill="midnightblue" stroke="midnightblue" points="209.25,-161.09 219.83,-160.46 211.16,-154.36 209.25,-161.09"/>
</g>
<!-- Node4 -->
<g id="node4" class="node">
<title>Node4</title>
<g id="a_node4"><a xlink:href="class_menu.html#abd3f594403e9f8acc62d5b3f2e394ddc" target="_top" xlink:title=" ">
<polygon fill="white" stroke="black" points="368.5,-200.5 368.5,-221.5 514.5,-221.5 514.5,-200.5 368.5,-200.5"/>
<text text-anchor="middle" x="441.5" y="-207.9" font-family="Helvetica,sans-Serif" font-size="12.00">Menu::printPersonVector</text>
</a>
</g>
</g>
<!-- Node3&#45;&gt;Node4 -->
<g id="edge3" class="edge">
<title>Node3&#45;&gt;Node4</title>
<path fill="none" stroke="midnightblue" d="M306.69,-240.49C330.04,-235.34 358.35,-229.1 382.9,-223.69"/>
<polygon fill="midnightblue" stroke="midnightblue" points="383.8,-227.08 392.82,-221.51 382.3,-220.24 383.8,-227.08"/>
</g>
<!-- Node6 -->
<g id="node6" class="node">
<title>Node6</title>
<g id="a_node6"><a xlink:href="class_person.html#ac2d03633c439fe91ee1b00b28dda0f34" target="_top" xlink:title=" ">
<polygon fill="white" stroke="black" points="388.5,-140.5 388.5,-161.5 494.5,-161.5 494.5,-140.5 388.5,-140.5"/>
<text text-anchor="middle" x="441.5" y="-147.9" font-family="Helvetica,sans-Serif" font-size="12.00">Person::addData</text>
</a>
</g>
</g>
<!-- Node5&#45;&gt;Node6 -->
<g id="edge5" class="edge">
<title>Node5&#45;&gt;Node6</title>
<path fill="none" stroke="midnightblue" d="M324.01,-138.16C341.7,-140.11 360.81,-142.22 378.33,-144.15"/>
<polygon fill="midnightblue" stroke="midnightblue" points="378.12,-147.65 388.44,-145.26 378.89,-140.69 378.12,-147.65"/>
</g>
<!-- Node7 -->
<g id="node7" class="node">
<title>Node7</title>
<g id="a_node7"><a xlink:href="class_person.html#a26a9c92ced3166b11140e0bda83b1eb3" target="_top" xlink:title=" ">
<polygon fill="white" stroke="black" points="583,-160.5 583,-181.5 709,-181.5 709,-160.5 583,-160.5"/>
<text text-anchor="middle" x="646" y="-167.9" font-family="Helvetica,sans-Serif" font-size="12.00">Person::addExercise</text>
</a>
</g>
</g>
<!-- Node6&#45;&gt;Node7 -->
<g id="edge6" class="edge">
<title>Node6&#45;&gt;Node7</title>
<path fill="none" stroke="midnightblue" d="M494.65,-156.15C518.44,-158.5 547.01,-161.32 572.82,-163.87"/>
<polygon fill="midnightblue" stroke="midnightblue" points="572.64,-167.37 582.94,-164.87 573.33,-160.4 572.64,-167.37"/>
</g>
<!-- Node8 -->
<g id="node8" class="node">
<title>Node8</title>
<g id="a_node8"><a xlink:href="class_run.html#aeda5a32098dffc91e53ee8941dc109f3" target="_top" xlink:title=" ">
<polygon fill="white" stroke="black" points="794.5,-220.5 794.5,-241.5 883.5,-241.5 883.5,-220.5 794.5,-220.5"/>
<text text-anchor="middle" x="839" y="-227.9" font-family="Helvetica,sans-Serif" font-size="12.00">Run::addData</text>
</a>
</g>
</g>
<!-- Node7&#45;&gt;Node8 -->
<g id="edge7" class="edge">
<title>Node7&#45;&gt;Node8</title>
<path fill="none" stroke="midnightblue" d="M679.87,-181.52C705.28,-189.64 741.35,-201.11 773,-211 779.66,-213.08 786.72,-215.27 793.62,-217.4"/>
<polygon fill="midnightblue" stroke="midnightblue" points="792.99,-220.87 803.57,-220.47 795.05,-214.18 792.99,-220.87"/>
</g>
<!-- Node9 -->
<g id="node9" class="node">
<title>Node9</title>
<g id="a_node9"><a xlink:href="class_swimming.html#ac0790d61cd6663f894e3aae8da15fd2d" target="_top" xlink:title=" ">
<polygon fill="white" stroke="black" points="777.5,-180.5 777.5,-201.5 900.5,-201.5 900.5,-180.5 777.5,-180.5"/>
<text text-anchor="middle" x="839" y="-187.9" font-family="Helvetica,sans-Serif" font-size="12.00">Swimming::addData</text>
</a>
</g>
</g>
<!-- Node7&#45;&gt;Node9 -->
<g id="edge8" class="edge">
<title>Node7&#45;&gt;Node9</title>
<path fill="none" stroke="midnightblue" d="M709.01,-177.49C727.57,-179.44 748.06,-181.58 767.14,-183.58"/>
<polygon fill="midnightblue" stroke="midnightblue" points="766.97,-187.08 777.28,-184.64 767.7,-180.12 766.97,-187.08"/>
</g>
<!-- Node10 -->
<g id="node10" class="node">
<title>Node10</title>
<g id="a_node10"><a xlink:href="class_weightlifting.html#a8800d964a57bbbb5ae1a2c6ca613f322" target="_top" xlink:title=" ">
<polygon fill="white" stroke="black" points="773,-140.5 773,-161.5 905,-161.5 905,-140.5 773,-140.5"/>
<text text-anchor="middle" x="839" y="-147.9" font-family="Helvetica,sans-Serif" font-size="12.00">Weightlifting::addData</text>
</a>
</g>
</g>
<!-- Node7&#45;&gt;Node10 -->
<g id="edge9" class="edge">
<title>Node7&#45;&gt;Node10</title>
<path fill="none" stroke="midnightblue" d="M709.01,-164.51C726.04,-162.72 744.69,-160.77 762.39,-158.92"/>
<polygon fill="midnightblue" stroke="midnightblue" points="763.1,-162.36 772.69,-157.84 762.37,-155.4 763.1,-162.36"/>
</g>
<!-- Node11 -->
<g id="node11" class="node">
<title>Node11</title>
<g id="a_node11"><a xlink:href="class_yoga.html#a6d45e2b9163ebc99a1a8cba100d8c00b" target="_top" xlink:title=" ">
<polygon fill="white" stroke="black" points="791.5,-100.5 791.5,-121.5 886.5,-121.5 886.5,-100.5 791.5,-100.5"/>
<text text-anchor="middle" x="839" y="-107.9" font-family="Helvetica,sans-Serif" font-size="12.00">Yoga::addData</text>
</a>
</g>
</g>
<!-- Node7&#45;&gt;Node11 -->
<g id="edge10" class="edge">
<title>Node7&#45;&gt;Node11</title>
<path fill="none" stroke="midnightblue" d="M705.82,-160.5C716.36,-157.9 727.12,-154.75 737,-151 754.11,-144.5 756.16,-138.17 773,-131 778.16,-128.8 783.64,-126.73 789.15,-124.82"/>
<polygon fill="midnightblue" stroke="midnightblue" points="790.64,-128.01 799.03,-121.54 788.43,-121.36 790.64,-128.01"/>
</g>
<!-- Node12&#45;&gt;Node4 -->
<g id="edge12" class="edge">
<title>Node12&#45;&gt;Node4</title>
<path fill="none" stroke="midnightblue" d="M312.47,-211C326.8,-211 342.62,-211 358.12,-211"/>
<polygon fill="midnightblue" stroke="midnightblue" points="358.24,-214.5 368.24,-211 358.24,-207.5 358.24,-214.5"/>
</g>
<!-- Node14 -->
<g id="node14" class="node">
<title>Node14</title>
<g id="a_node14"><a xlink:href="class_person.html#ad4703ef7c3ce2ed4ff7fbfb26ead614d" target="_top" xlink:title=" ">
<polygon fill="white" stroke="black" points="364,-80.5 364,-101.5 519,-101.5 519,-80.5 364,-80.5"/>
<text text-anchor="middle" x="441.5" y="-87.9" font-family="Helvetica,sans-Serif" font-size="12.00">Person::loadDataFromFile</text>
</a>
</g>
</g>
<!-- Node13&#45;&gt;Node14 -->
<g id="edge14" class="edge">
<title>Node13&#45;&gt;Node14</title>
<path fill="none" stroke="midnightblue" d="M318.68,-91C329.87,-91 341.77,-91 353.59,-91"/>
<polygon fill="midnightblue" stroke="midnightblue" points="353.93,-94.5 363.93,-91 353.93,-87.5 353.93,-94.5"/>
</g>
<!-- Node15 -->
<g id="node15" class="node">
<title>Node15</title>
<g id="a_node15"><a xlink:href="class_yoga.html#a97aaa961fd71deb8450b2b6acdd6de94" target="_top" xlink:title=" ">
<polygon fill="white" stroke="black" points="573.5,-120.5 573.5,-141.5 718.5,-141.5 718.5,-120.5 573.5,-120.5"/>
<text text-anchor="middle" x="646" y="-127.9" font-family="Helvetica,sans-Serif" font-size="12.00">Yoga::loadDataFromFile</text>
</a>
</g>
</g>
<!-- Node14&#45;&gt;Node15 -->
<g id="edge15" class="edge">
<title>Node14&#45;&gt;Node15</title>
<path fill="none" stroke="midnightblue" d="M495.7,-101.51C522.11,-106.73 554.19,-113.06 581.83,-118.52"/>
<polygon fill="midnightblue" stroke="midnightblue" points="581.31,-121.99 591.8,-120.49 582.67,-115.12 581.31,-121.99"/>
</g>
<!-- Node16 -->
<g id="node16" class="node">
<title>Node16</title>
<g id="a_node16"><a xlink:href="class_run.html#a3d526b27092ac87ccc7566846c87d311" target="_top" xlink:title=" ">
<polygon fill="white" stroke="black" points="577,-80.5 577,-101.5 715,-101.5 715,-80.5 577,-80.5"/>
<text text-anchor="middle" x="646" y="-87.9" font-family="Helvetica,sans-Serif" font-size="12.00">Run::loadDataFromFile</text>
</a>
</g>
</g>
<!-- Node14&#45;&gt;Node16 -->
<g id="edge16" class="edge">
<title>Node14&#45;&gt;Node16</title>
<path fill="none" stroke="midnightblue" d="M519.06,-91C534.68,-91 551.13,-91 566.8,-91"/>
<polygon fill="midnightblue" stroke="midnightblue" points="566.98,-94.5 576.98,-91 566.98,-87.5 566.98,-94.5"/>
</g>
<!-- Node17 -->
<g id="node17" class="node">
<title>Node17</title>
<g id="a_node17"><a xlink:href="class_swimming.html#ae7c9886f5ea1443dc0e7572f19fd03a9" target="_top" xlink:title=" ">
<polygon fill="white" stroke="black" points="559.5,-40.5 559.5,-61.5 732.5,-61.5 732.5,-40.5 559.5,-40.5"/>
<text text-anchor="middle" x="646" y="-47.9" font-family="Helvetica,sans-Serif" font-size="12.00">Swimming::loadDataFromFile</text>
</a>
</g>
</g>
<!-- Node14&#45;&gt;Node17 -->
<g id="edge17" class="edge">
<title>Node14&#45;&gt;Node17</title>
<path fill="none" stroke="midnightblue" d="M495.7,-80.49C522.11,-75.27 554.19,-68.94 581.83,-63.48"/>
<polygon fill="midnightblue" stroke="midnightblue" points="582.67,-66.88 591.8,-61.51 581.31,-60.01 582.67,-66.88"/>
</g>
<!-- Node18 -->
<g id="node18" class="node">
<title>Node18</title>
<g id="a_node18"><a xlink:href="class_weightlifting.html#a68980175f7047fba24f9e4621b6b2df4" target="_top" xlink:title=" ">
<polygon fill="white" stroke="black" points="555,-0.5 555,-21.5 737,-21.5 737,-0.5 555,-0.5"/>
<text text-anchor="middle" x="646" y="-7.9" font-family="Helvetica,sans-Serif" font-size="12.00">Weightlifting::loadDataFromFile</text>
</a>
</g>
</g>
<!-- Node14&#45;&gt;Node18 -->
<g id="edge18" class="edge">
<title>Node14&#45;&gt;Node18</title>
<path fill="none" stroke="midnightblue" d="M464.1,-80.39C479.52,-72.73 500.68,-62 519,-52 535.26,-43.12 537.75,-37.76 555,-31 561.41,-28.49 568.2,-26.26 575.07,-24.28"/>
<polygon fill="midnightblue" stroke="midnightblue" points="576.41,-27.55 585.16,-21.57 574.59,-20.79 576.41,-27.55"/>
</g>
<!-- Node19&#45;&gt;Node20 -->
<g id="edge20" class="edge">
<title>Node19&#45;&gt;Node20</title>
<path fill="none" stroke="midnightblue" d="M317.18,-44.91C336.25,-42.91 357.53,-40.69 376.98,-38.65"/>
<polygon fill="midnightblue" stroke="midnightblue" points="377.38,-42.13 386.96,-37.6 376.65,-35.16 377.38,-42.13"/>
</g>
<!-- Node21&#45;&gt;Node4 -->
<g id="edge22" class="edge">
<title>Node21&#45;&gt;Node4</title>
<path fill="none" stroke="midnightblue" d="M306.69,-181.51C330.04,-186.66 358.35,-192.9 382.9,-198.31"/>
<polygon fill="midnightblue" stroke="midnightblue" points="382.3,-201.76 392.82,-200.49 383.8,-194.92 382.3,-201.76"/>
</g>
</g>
</svg>
