<?xml version="1.0" encoding="UTF-8" standalone="no"?>
<!DOCTYPE svg PUBLIC "-//W3C//DTD SVG 1.1//EN"
 "http://www.w3.org/Graphics/SVG/1.1/DTD/svg11.dtd">
<!-- Generated by graphviz version 2.50.0 (20211204.2007)
 -->
<!-- Title: ExerciseLogger/Menu.h Pages: 1 -->
<svg width="390pt" height="88pt"
 viewBox="0.00 0.00 389.50 88.00" xmlns="http://www.w3.org/2000/svg" xmlns:xlink="http://www.w3.org/1999/xlink">
<g id="graph0" class="graph" transform="scale(1 1) rotate(0) translate(4 84)">
<title>ExerciseLogger/Menu.h</title>
<polygon fill="white" stroke="transparent" points="-4,4 -4,-84 385.5,-84 385.5,4 -4,4"/>
<!-- Node1 -->
<g id="node1" class="node">
<title>Node1</title>
<g id="a_node1"><a xlink:title=" ">
<polygon fill="#bfbfbf" stroke="black" points="134.5,-58.5 134.5,-79.5 274.5,-79.5 274.5,-58.5 134.5,-58.5"/>
<text text-anchor="middle" x="204.5" y="-65.9" font-family="Helvetica,sans-Serif" font-size="12.00">ExerciseLogger/Menu.h</text>
</a>
</g>
</g>
<!-- Node2 -->
<g id="node2" class="node">
<title>Node2</title>
<g id="a_node2"><a xlink:href="_exercise_logger_8cpp.html" target="_top" xlink:title=" ">
<polygon fill="white" stroke="black" points="0,-0.5 0,-21.5 209,-21.5 209,-0.5 0,-0.5"/>
<text text-anchor="middle" x="104.5" y="-7.9" font-family="Helvetica,sans-Serif" font-size="12.00">ExerciseLogger/ExerciseLogger.cpp</text>
</a>
</g>
</g>
<!-- Node1&#45;&gt;Node2 -->
<g id="edge1" class="edge">
<title>Node1&#45;&gt;Node2</title>
<path fill="none" stroke="midnightblue" d="M178.29,-53.32C160.43,-43.32 137.28,-30.36 121.72,-21.64"/>
<polygon fill="midnightblue" stroke="midnightblue" points="176.65,-56.41 187.08,-58.25 180.07,-50.31 176.65,-56.41"/>
</g>
<!-- Node3 -->
<g id="node3" class="node">
<title>Node3</title>
<g id="a_node3"><a xlink:href="_menu_8cpp.html" target="_top" xlink:title=" ">
<polygon fill="white" stroke="black" points="227.5,-0.5 227.5,-21.5 381.5,-21.5 381.5,-0.5 227.5,-0.5"/>
<text text-anchor="middle" x="304.5" y="-7.9" font-family="Helvetica,sans-Serif" font-size="12.00">ExerciseLogger/Menu.cpp</text>
</a>
</g>
</g>
<!-- Node1&#45;&gt;Node3 -->
<g id="edge2" class="edge">
<title>Node1&#45;&gt;Node3</title>
<path fill="none" stroke="midnightblue" d="M230.71,-53.32C248.57,-43.32 271.72,-30.36 287.28,-21.64"/>
<polygon fill="midnightblue" stroke="midnightblue" points="228.93,-50.31 221.92,-58.25 232.35,-56.41 228.93,-50.31"/>
</g>
</g>
</svg>
