<?xml version="1.0" encoding="UTF-8" standalone="no"?>
<!DOCTYPE svg PUBLIC "-//W3C//DTD SVG 1.1//EN"
 "http://www.w3.org/Graphics/SVG/1.1/DTD/svg11.dtd">
<!-- Generated by graphviz version 2.50.0 (20211204.2007)
 -->
<!-- Title: ExerciseLogger/Person.cpp Pages: 1 -->
<svg width="274pt" height="320pt"
 viewBox="0.00 0.00 273.50 320.00" xmlns="http://www.w3.org/2000/svg" xmlns:xlink="http://www.w3.org/1999/xlink">
<g id="graph0" class="graph" transform="scale(1 1) rotate(0) translate(4 316)">
<title>ExerciseLogger/Person.cpp</title>
<polygon fill="white" stroke="transparent" points="-4,4 -4,-316 269.5,-316 269.5,4 -4,4"/>
<!-- Node1 -->
<g id="node1" class="node">
<title>Node1</title>
<g id="a_node1"><a xlink:title=" ">
<polygon fill="#bfbfbf" stroke="black" points="4,-290.5 4,-311.5 167,-311.5 167,-290.5 4,-290.5"/>
<text text-anchor="middle" x="85.5" y="-297.9" font-family="Helvetica,sans-Serif" font-size="12.00">ExerciseLogger/Person.cpp</text>
</a>
</g>
</g>
<!-- Node2 -->
<g id="node2" class="node">
<title>Node2</title>
<g id="a_node2"><a xlink:href="_person_8h.html" target="_top" xlink:title=" ">
<polygon fill="white" stroke="black" points="54,-232.5 54,-253.5 117,-253.5 117,-232.5 54,-232.5"/>
<text text-anchor="middle" x="85.5" y="-239.9" font-family="Helvetica,sans-Serif" font-size="12.00">Person.h</text>
</a>
</g>
</g>
<!-- Node1&#45;&gt;Node2 -->
<g id="edge1" class="edge">
<title>Node1&#45;&gt;Node2</title>
<path fill="none" stroke="midnightblue" d="M85.5,-290.25C85.5,-282.94 85.5,-272.69 85.5,-263.7"/>
<polygon fill="midnightblue" stroke="midnightblue" points="89,-263.64 85.5,-253.64 82,-263.64 89,-263.64"/>
</g>
<!-- Node3 -->
<g id="node3" class="node">
<title>Node3</title>
<g id="a_node3"><a xlink:href="_run_8h.html" target="_top" xlink:title=" ">
<polygon fill="white" stroke="black" points="17.5,-116.5 17.5,-137.5 63.5,-137.5 63.5,-116.5 17.5,-116.5"/>
<text text-anchor="middle" x="40.5" y="-123.9" font-family="Helvetica,sans-Serif" font-size="12.00">Run.h</text>
</a>
</g>
</g>
<!-- Node2&#45;&gt;Node3 -->
<g id="edge2" class="edge">
<title>Node2&#45;&gt;Node3</title>
<path fill="none" stroke="midnightblue" d="M54,-232.37C36.68,-225.29 16.7,-213.75 6.5,-196 -3.18,-179.16 9.5,-159.22 22.03,-145.3"/>
<polygon fill="midnightblue" stroke="midnightblue" points="24.78,-147.49 29.22,-137.87 19.75,-142.62 24.78,-147.49"/>
</g>
<!-- Node9 -->
<g id="node9" class="node">
<title>Node9</title>
<g id="a_node9"><a xlink:href="_weight_lifting_8h.html" target="_top" xlink:title=" ">
<polygon fill="white" stroke="black" points="83.5,-174.5 83.5,-195.5 177.5,-195.5 177.5,-174.5 83.5,-174.5"/>
<text text-anchor="middle" x="130.5" y="-181.9" font-family="Helvetica,sans-Serif" font-size="12.00">WeightLifting.h</text>
</a>
</g>
</g>
<!-- Node2&#45;&gt;Node9 -->
<g id="edge8" class="edge">
<title>Node2&#45;&gt;Node9</title>
<path fill="none" stroke="midnightblue" d="M93.34,-232.25C99.66,-224.38 108.72,-213.1 116.31,-203.65"/>
<polygon fill="midnightblue" stroke="midnightblue" points="119.22,-205.63 122.75,-195.64 113.76,-201.25 119.22,-205.63"/>
</g>
<!-- Node10 -->
<g id="node10" class="node">
<title>Node10</title>
<g id="a_node10"><a xlink:href="_swimming_8h.html" target="_top" xlink:title=" ">
<polygon fill="white" stroke="black" points="161.5,-116.5 161.5,-137.5 241.5,-137.5 241.5,-116.5 161.5,-116.5"/>
<text text-anchor="middle" x="201.5" y="-123.9" font-family="Helvetica,sans-Serif" font-size="12.00">Swimming.h</text>
</a>
</g>
</g>
<!-- Node2&#45;&gt;Node10 -->
<g id="edge10" class="edge">
<title>Node2&#45;&gt;Node10</title>
<path fill="none" stroke="midnightblue" d="M117.03,-235.54C139.69,-229.26 169.17,-217.42 186.5,-196 197.41,-182.52 200.8,-162.8 201.68,-148.06"/>
<polygon fill="midnightblue" stroke="midnightblue" points="205.18,-148.04 201.94,-137.95 198.18,-147.85 205.18,-148.04"/>
</g>
<!-- Node11 -->
<g id="node11" class="node">
<title>Node11</title>
<g id="a_node11"><a xlink:href="_hike_8h.html" target="_top" xlink:title=" ">
<polygon fill="white" stroke="black" points="15.5,-174.5 15.5,-195.5 65.5,-195.5 65.5,-174.5 15.5,-174.5"/>
<text text-anchor="middle" x="40.5" y="-181.9" font-family="Helvetica,sans-Serif" font-size="12.00">Hike.h</text>
</a>
</g>
</g>
<!-- Node2&#45;&gt;Node11 -->
<g id="edge12" class="edge">
<title>Node2&#45;&gt;Node11</title>
<path fill="none" stroke="midnightblue" d="M77.66,-232.25C71.34,-224.38 62.28,-213.1 54.69,-203.65"/>
<polygon fill="midnightblue" stroke="midnightblue" points="57.24,-201.25 48.25,-195.64 51.78,-205.63 57.24,-201.25"/>
</g>
<!-- Node4 -->
<g id="node4" class="node">
<title>Node4</title>
<g id="a_node4"><a xlink:href="_exercise_8h.html" target="_top" xlink:title=" ">
<polygon fill="white" stroke="black" points="95,-58.5 95,-79.5 166,-79.5 166,-58.5 95,-58.5"/>
<text text-anchor="middle" x="130.5" y="-65.9" font-family="Helvetica,sans-Serif" font-size="12.00">Exercise.h</text>
</a>
</g>
</g>
<!-- Node3&#45;&gt;Node4 -->
<g id="edge3" class="edge">
<title>Node3&#45;&gt;Node4</title>
<path fill="none" stroke="midnightblue" d="M56.18,-116.25C69.99,-107.65 90.32,-95 106.23,-85.1"/>
<polygon fill="midnightblue" stroke="midnightblue" points="108.36,-87.9 115,-79.64 104.66,-81.95 108.36,-87.9"/>
</g>
<!-- Node5 -->
<g id="node5" class="node">
<title>Node5</title>
<g id="a_node5"><a xlink:title=" ">
<polygon fill="white" stroke="#bfbfbf" points="0,-0.5 0,-21.5 45,-21.5 45,-0.5 0,-0.5"/>
<text text-anchor="middle" x="22.5" y="-7.9" font-family="Helvetica,sans-Serif" font-size="12.00">string</text>
</a>
</g>
</g>
<!-- Node4&#45;&gt;Node5 -->
<g id="edge4" class="edge">
<title>Node4&#45;&gt;Node5</title>
<path fill="none" stroke="midnightblue" d="M111.69,-58.25C94.65,-49.41 69.34,-36.29 50.03,-26.28"/>
<polygon fill="midnightblue" stroke="midnightblue" points="51.59,-23.14 41.1,-21.64 48.36,-29.35 51.59,-23.14"/>
</g>
<!-- Node6 -->
<g id="node6" class="node">
<title>Node6</title>
<g id="a_node6"><a xlink:title=" ">
<polygon fill="white" stroke="#bfbfbf" points="63.5,-0.5 63.5,-21.5 125.5,-21.5 125.5,-0.5 63.5,-0.5"/>
<text text-anchor="middle" x="94.5" y="-7.9" font-family="Helvetica,sans-Serif" font-size="12.00">iostream</text>
</a>
</g>
</g>
<!-- Node4&#45;&gt;Node6 -->
<g id="edge5" class="edge">
<title>Node4&#45;&gt;Node6</title>
<path fill="none" stroke="midnightblue" d="M124.23,-58.25C119.27,-50.54 112.22,-39.56 106.22,-30.23"/>
<polygon fill="midnightblue" stroke="midnightblue" points="109.05,-28.16 100.7,-21.64 103.16,-31.95 109.05,-28.16"/>
</g>
<!-- Node7 -->
<g id="node7" class="node">
<title>Node7</title>
<g id="a_node7"><a xlink:title=" ">
<polygon fill="white" stroke="#bfbfbf" points="143.5,-0.5 143.5,-21.5 191.5,-21.5 191.5,-0.5 143.5,-0.5"/>
<text text-anchor="middle" x="167.5" y="-7.9" font-family="Helvetica,sans-Serif" font-size="12.00">vector</text>
</a>
</g>
</g>
<!-- Node4&#45;&gt;Node7 -->
<g id="edge6" class="edge">
<title>Node4&#45;&gt;Node7</title>
<path fill="none" stroke="midnightblue" d="M136.94,-58.25C142.04,-50.54 149.29,-39.56 155.45,-30.23"/>
<polygon fill="midnightblue" stroke="midnightblue" points="158.54,-31.92 161.13,-21.64 152.7,-28.06 158.54,-31.92"/>
</g>
<!-- Node8 -->
<g id="node8" class="node">
<title>Node8</title>
<g id="a_node8"><a xlink:title=" ">
<polygon fill="white" stroke="#bfbfbf" points="209.5,-0.5 209.5,-21.5 265.5,-21.5 265.5,-0.5 209.5,-0.5"/>
<text text-anchor="middle" x="237.5" y="-7.9" font-family="Helvetica,sans-Serif" font-size="12.00">fstream</text>
</a>
</g>
</g>
<!-- Node4&#45;&gt;Node8 -->
<g id="edge7" class="edge">
<title>Node4&#45;&gt;Node8</title>
<path fill="none" stroke="midnightblue" d="M149.14,-58.25C165.94,-49.45 190.86,-36.41 209.96,-26.41"/>
<polygon fill="midnightblue" stroke="midnightblue" points="211.84,-29.38 219.08,-21.64 208.59,-23.18 211.84,-29.38"/>
</g>
<!-- Node9&#45;&gt;Node4 -->
<g id="edge9" class="edge">
<title>Node9&#45;&gt;Node4</title>
<path fill="none" stroke="midnightblue" d="M130.5,-174.28C130.5,-155.6 130.5,-114.37 130.5,-89.72"/>
<polygon fill="midnightblue" stroke="midnightblue" points="134,-89.69 130.5,-79.69 127,-89.7 134,-89.69"/>
</g>
<!-- Node10&#45;&gt;Node4 -->
<g id="edge11" class="edge">
<title>Node10&#45;&gt;Node4</title>
<path fill="none" stroke="midnightblue" d="M189.13,-116.25C178.54,-107.89 163.09,-95.71 150.71,-85.94"/>
<polygon fill="midnightblue" stroke="midnightblue" points="152.74,-83.09 142.73,-79.64 148.41,-88.58 152.74,-83.09"/>
</g>
<!-- Node11&#45;&gt;Node3 -->
<g id="edge13" class="edge">
<title>Node11&#45;&gt;Node3</title>
<path fill="none" stroke="midnightblue" d="M40.5,-174.25C40.5,-166.94 40.5,-156.69 40.5,-147.7"/>
<polygon fill="midnightblue" stroke="midnightblue" points="44,-147.64 40.5,-137.64 37,-147.64 44,-147.64"/>
</g>
</g>
</svg>
