<?xml version="1.0" encoding="UTF-8" standalone="no"?>
<!DOCTYPE svg PUBLIC "-//W3C//DTD SVG 1.1//EN"
 "http://www.w3.org/Graphics/SVG/1.1/DTD/svg11.dtd">
<!-- Generated by graphviz version 2.50.0 (20211204.2007)
 -->
<!-- Title: ExerciseLogger/Run.h Pages: 1 -->
<svg width="472pt" height="262pt"
 viewBox="0.00 0.00 471.50 262.00" xmlns="http://www.w3.org/2000/svg" xmlns:xlink="http://www.w3.org/1999/xlink">
<g id="graph0" class="graph" transform="scale(1 1) rotate(0) translate(4 258)">
<title>ExerciseLogger/Run.h</title>
<polygon fill="white" stroke="transparent" points="-4,4 -4,-258 467.5,-258 467.5,4 -4,4"/>
<!-- Node1 -->
<g id="node1" class="node">
<title>Node1</title>
<g id="a_node1"><a xlink:title=" ">
<polygon fill="#bfbfbf" stroke="black" points="223.5,-232.5 223.5,-253.5 355.5,-253.5 355.5,-232.5 223.5,-232.5"/>
<text text-anchor="middle" x="289.5" y="-239.9" font-family="Helvetica,sans-Serif" font-size="12.00">ExerciseLogger/Run.h</text>
</a>
</g>
</g>
<!-- Node2 -->
<g id="node2" class="node">
<title>Node2</title>
<g id="a_node2"><a xlink:href="_hike_8h.html" target="_top" xlink:title=" ">
<polygon fill="white" stroke="black" points="125.5,-174.5 125.5,-195.5 261.5,-195.5 261.5,-174.5 125.5,-174.5"/>
<text text-anchor="middle" x="193.5" y="-181.9" font-family="Helvetica,sans-Serif" font-size="12.00">ExerciseLogger/Hike.h</text>
</a>
</g>
</g>
<!-- Node1&#45;&gt;Node2 -->
<g id="edge1" class="edge">
<title>Node1&#45;&gt;Node2</title>
<path fill="none" stroke="midnightblue" d="M263.87,-227.05C246.78,-217.08 224.84,-204.28 210.03,-195.64"/>
<polygon fill="midnightblue" stroke="midnightblue" points="262.38,-230.23 272.78,-232.25 265.9,-224.18 262.38,-230.23"/>
</g>
<!-- Node4 -->
<g id="node4" class="node">
<title>Node4</title>
<g id="a_node4"><a xlink:href="_person_8h.html" target="_top" xlink:title=" ">
<polygon fill="white" stroke="black" points="215,-116.5 215,-137.5 364,-137.5 364,-116.5 215,-116.5"/>
<text text-anchor="middle" x="289.5" y="-123.9" font-family="Helvetica,sans-Serif" font-size="12.00">ExerciseLogger/Person.h</text>
</a>
</g>
</g>
<!-- Node1&#45;&gt;Node4 -->
<g id="edge8" class="edge">
<title>Node1&#45;&gt;Node4</title>
<path fill="none" stroke="midnightblue" d="M289.5,-222.25C289.5,-197.58 289.5,-156.35 289.5,-137.69"/>
<polygon fill="midnightblue" stroke="midnightblue" points="286,-222.28 289.5,-232.28 293,-222.28 286,-222.28"/>
</g>
<!-- Node9 -->
<g id="node9" class="node">
<title>Node9</title>
<g id="a_node9"><a xlink:href="_run_8cpp.html" target="_top" xlink:title=" ">
<polygon fill="white" stroke="black" points="317.5,-174.5 317.5,-195.5 463.5,-195.5 463.5,-174.5 317.5,-174.5"/>
<text text-anchor="middle" x="390.5" y="-181.9" font-family="Helvetica,sans-Serif" font-size="12.00">ExerciseLogger/Run.cpp</text>
</a>
</g>
</g>
<!-- Node1&#45;&gt;Node9 -->
<g id="edge9" class="edge">
<title>Node1&#45;&gt;Node9</title>
<path fill="none" stroke="midnightblue" d="M315.97,-227.32C334.01,-217.32 357.39,-204.36 373.11,-195.64"/>
<polygon fill="midnightblue" stroke="midnightblue" points="314.14,-224.34 307.09,-232.25 317.54,-230.46 314.14,-224.34"/>
</g>
<!-- Node3 -->
<g id="node3" class="node">
<title>Node3</title>
<g id="a_node3"><a xlink:href="_hike_8cpp.html" target="_top" xlink:title=" ">
<polygon fill="white" stroke="black" points="48,-116.5 48,-137.5 197,-137.5 197,-116.5 48,-116.5"/>
<text text-anchor="middle" x="122.5" y="-123.9" font-family="Helvetica,sans-Serif" font-size="12.00">ExerciseLogger/Hike.cpp</text>
</a>
</g>
</g>
<!-- Node2&#45;&gt;Node3 -->
<g id="edge2" class="edge">
<title>Node2&#45;&gt;Node3</title>
<path fill="none" stroke="midnightblue" d="M173.12,-167.93C160.71,-158.14 145.27,-145.96 134.73,-137.64"/>
<polygon fill="midnightblue" stroke="midnightblue" points="171.11,-170.8 181.13,-174.25 175.45,-165.3 171.11,-170.8"/>
</g>
<!-- Node2&#45;&gt;Node4 -->
<g id="edge3" class="edge">
<title>Node2&#45;&gt;Node4</title>
<path fill="none" stroke="midnightblue" d="M219.13,-169.05C236.22,-159.08 258.16,-146.28 272.97,-137.64"/>
<polygon fill="midnightblue" stroke="midnightblue" points="217.1,-166.18 210.22,-174.25 220.62,-172.23 217.1,-166.18"/>
</g>
<!-- Node5 -->
<g id="node5" class="node">
<title>Node5</title>
<g id="a_node5"><a xlink:href="_menu_8h.html" target="_top" xlink:title=" ">
<polygon fill="white" stroke="black" points="134.5,-58.5 134.5,-79.5 274.5,-79.5 274.5,-58.5 134.5,-58.5"/>
<text text-anchor="middle" x="204.5" y="-65.9" font-family="Helvetica,sans-Serif" font-size="12.00">ExerciseLogger/Menu.h</text>
</a>
</g>
</g>
<!-- Node4&#45;&gt;Node5 -->
<g id="edge4" class="edge">
<title>Node4&#45;&gt;Node5</title>
<path fill="none" stroke="midnightblue" d="M265.96,-110.49C250.96,-100.61 232,-88.12 219.14,-79.64"/>
<polygon fill="midnightblue" stroke="midnightblue" points="264.42,-113.67 274.69,-116.25 268.27,-107.82 264.42,-113.67"/>
</g>
<!-- Node8 -->
<g id="node8" class="node">
<title>Node8</title>
<g id="a_node8"><a xlink:href="_person_8cpp.html" target="_top" xlink:title=" ">
<polygon fill="white" stroke="black" points="293,-58.5 293,-79.5 456,-79.5 456,-58.5 293,-58.5"/>
<text text-anchor="middle" x="374.5" y="-65.9" font-family="Helvetica,sans-Serif" font-size="12.00">ExerciseLogger/Person.cpp</text>
</a>
</g>
</g>
<!-- Node4&#45;&gt;Node8 -->
<g id="edge7" class="edge">
<title>Node4&#45;&gt;Node8</title>
<path fill="none" stroke="midnightblue" d="M313.04,-110.49C328.04,-100.61 347,-88.12 359.86,-79.64"/>
<polygon fill="midnightblue" stroke="midnightblue" points="310.73,-107.82 304.31,-116.25 314.58,-113.67 310.73,-107.82"/>
</g>
<!-- Node6 -->
<g id="node6" class="node">
<title>Node6</title>
<g id="a_node6"><a xlink:href="_exercise_logger_8cpp.html" target="_top" xlink:title=" ">
<polygon fill="white" stroke="black" points="0,-0.5 0,-21.5 209,-21.5 209,-0.5 0,-0.5"/>
<text text-anchor="middle" x="104.5" y="-7.9" font-family="Helvetica,sans-Serif" font-size="12.00">ExerciseLogger/ExerciseLogger.cpp</text>
</a>
</g>
</g>
<!-- Node5&#45;&gt;Node6 -->
<g id="edge5" class="edge">
<title>Node5&#45;&gt;Node6</title>
<path fill="none" stroke="midnightblue" d="M178.29,-53.32C160.43,-43.32 137.28,-30.36 121.72,-21.64"/>
<polygon fill="midnightblue" stroke="midnightblue" points="176.65,-56.41 187.08,-58.25 180.07,-50.31 176.65,-56.41"/>
</g>
<!-- Node7 -->
<g id="node7" class="node">
<title>Node7</title>
<g id="a_node7"><a xlink:href="_menu_8cpp.html" target="_top" xlink:title=" ">
<polygon fill="white" stroke="black" points="227.5,-0.5 227.5,-21.5 381.5,-21.5 381.5,-0.5 227.5,-0.5"/>
<text text-anchor="middle" x="304.5" y="-7.9" font-family="Helvetica,sans-Serif" font-size="12.00">ExerciseLogger/Menu.cpp</text>
</a>
</g>
</g>
<!-- Node5&#45;&gt;Node7 -->
<g id="edge6" class="edge">
<title>Node5&#45;&gt;Node7</title>
<path fill="none" stroke="midnightblue" d="M230.71,-53.32C248.57,-43.32 271.72,-30.36 287.28,-21.64"/>
<polygon fill="midnightblue" stroke="midnightblue" points="228.93,-50.31 221.92,-58.25 232.35,-56.41 228.93,-50.31"/>
</g>
</g>
</svg>
