<?xml version="1.0" encoding="UTF-8" standalone="no"?>
<!DOCTYPE svg PUBLIC "-//W3C//DTD SVG 1.1//EN"
 "http://www.w3.org/Graphics/SVG/1.1/DTD/svg11.dtd">
<!-- Generated by graphviz version 2.50.0 (20211204.2007)
 -->
<!-- Title: ExerciseLogger/Swimming.h Pages: 1 -->
<svg width="274pt" height="146pt"
 viewBox="0.00 0.00 273.50 146.00" xmlns="http://www.w3.org/2000/svg" xmlns:xlink="http://www.w3.org/1999/xlink">
<g id="graph0" class="graph" transform="scale(1 1) rotate(0) translate(4 142)">
<title>ExerciseLogger/Swimming.h</title>
<polygon fill="white" stroke="transparent" points="-4,4 -4,-142 269.5,-142 269.5,4 -4,4"/>
<!-- Node1 -->
<g id="node1" class="node">
<title>Node1</title>
<g id="a_node1"><a xlink:title=" ">
<polygon fill="#bfbfbf" stroke="black" points="47,-116.5 47,-137.5 214,-137.5 214,-116.5 47,-116.5"/>
<text text-anchor="middle" x="130.5" y="-123.9" font-family="Helvetica,sans-Serif" font-size="12.00">ExerciseLogger/Swimming.h</text>
</a>
</g>
</g>
<!-- Node2 -->
<g id="node2" class="node">
<title>Node2</title>
<g id="a_node2"><a xlink:href="_exercise_8h.html" target="_top" xlink:title=" ">
<polygon fill="white" stroke="black" points="95,-58.5 95,-79.5 166,-79.5 166,-58.5 95,-58.5"/>
<text text-anchor="middle" x="130.5" y="-65.9" font-family="Helvetica,sans-Serif" font-size="12.00">Exercise.h</text>
</a>
</g>
</g>
<!-- Node1&#45;&gt;Node2 -->
<g id="edge1" class="edge">
<title>Node1&#45;&gt;Node2</title>
<path fill="none" stroke="midnightblue" d="M130.5,-116.25C130.5,-108.94 130.5,-98.69 130.5,-89.7"/>
<polygon fill="midnightblue" stroke="midnightblue" points="134,-89.64 130.5,-79.64 127,-89.64 134,-89.64"/>
</g>
<!-- Node3 -->
<g id="node3" class="node">
<title>Node3</title>
<g id="a_node3"><a xlink:title=" ">
<polygon fill="white" stroke="#bfbfbf" points="0,-0.5 0,-21.5 45,-21.5 45,-0.5 0,-0.5"/>
<text text-anchor="middle" x="22.5" y="-7.9" font-family="Helvetica,sans-Serif" font-size="12.00">string</text>
</a>
</g>
</g>
<!-- Node2&#45;&gt;Node3 -->
<g id="edge2" class="edge">
<title>Node2&#45;&gt;Node3</title>
<path fill="none" stroke="midnightblue" d="M111.69,-58.25C94.65,-49.41 69.34,-36.29 50.03,-26.28"/>
<polygon fill="midnightblue" stroke="midnightblue" points="51.59,-23.14 41.1,-21.64 48.36,-29.35 51.59,-23.14"/>
</g>
<!-- Node4 -->
<g id="node4" class="node">
<title>Node4</title>
<g id="a_node4"><a xlink:title=" ">
<polygon fill="white" stroke="#bfbfbf" points="63.5,-0.5 63.5,-21.5 125.5,-21.5 125.5,-0.5 63.5,-0.5"/>
<text text-anchor="middle" x="94.5" y="-7.9" font-family="Helvetica,sans-Serif" font-size="12.00">iostream</text>
</a>
</g>
</g>
<!-- Node2&#45;&gt;Node4 -->
<g id="edge3" class="edge">
<title>Node2&#45;&gt;Node4</title>
<path fill="none" stroke="midnightblue" d="M124.23,-58.25C119.27,-50.54 112.22,-39.56 106.22,-30.23"/>
<polygon fill="midnightblue" stroke="midnightblue" points="109.05,-28.16 100.7,-21.64 103.16,-31.95 109.05,-28.16"/>
</g>
<!-- Node5 -->
<g id="node5" class="node">
<title>Node5</title>
<g id="a_node5"><a xlink:title=" ">
<polygon fill="white" stroke="#bfbfbf" points="143.5,-0.5 143.5,-21.5 191.5,-21.5 191.5,-0.5 143.5,-0.5"/>
<text text-anchor="middle" x="167.5" y="-7.9" font-family="Helvetica,sans-Serif" font-size="12.00">vector</text>
</a>
</g>
</g>
<!-- Node2&#45;&gt;Node5 -->
<g id="edge4" class="edge">
<title>Node2&#45;&gt;Node5</title>
<path fill="none" stroke="midnightblue" d="M136.94,-58.25C142.04,-50.54 149.29,-39.56 155.45,-30.23"/>
<polygon fill="midnightblue" stroke="midnightblue" points="158.54,-31.92 161.13,-21.64 152.7,-28.06 158.54,-31.92"/>
</g>
<!-- Node6 -->
<g id="node6" class="node">
<title>Node6</title>
<g id="a_node6"><a xlink:title=" ">
<polygon fill="white" stroke="#bfbfbf" points="209.5,-0.5 209.5,-21.5 265.5,-21.5 265.5,-0.5 209.5,-0.5"/>
<text text-anchor="middle" x="237.5" y="-7.9" font-family="Helvetica,sans-Serif" font-size="12.00">fstream</text>
</a>
</g>
</g>
<!-- Node2&#45;&gt;Node6 -->
<g id="edge5" class="edge">
<title>Node2&#45;&gt;Node6</title>
<path fill="none" stroke="midnightblue" d="M149.14,-58.25C165.94,-49.45 190.86,-36.41 209.96,-26.41"/>
<polygon fill="midnightblue" stroke="midnightblue" points="211.84,-29.38 219.08,-21.64 208.59,-23.18 211.84,-29.38"/>
</g>
</g>
</svg>
