<?xml version="1.0" encoding="UTF-8" standalone="no"?>
<!DOCTYPE svg PUBLIC "-//W3C//DTD SVG 1.1//EN"
 "http://www.w3.org/Graphics/SVG/1.1/DTD/svg11.dtd">
<!-- Generated by graphviz version 2.50.0 (20211204.2007)
 -->
<!-- Title: Swimming Pages: 1 -->
<svg width="159pt" height="315pt"
 viewBox="0.00 0.00 159.00 315.00" xmlns="http://www.w3.org/2000/svg" xmlns:xlink="http://www.w3.org/1999/xlink">
<g id="graph0" class="graph" transform="scale(1 1) rotate(0) translate(4 311)">
<title>Swimming</title>
<polygon fill="white" stroke="transparent" points="-4,4 -4,-311 155,-311 155,4 -4,4"/>
<!-- Node1 -->
<g id="node1" class="node">
<title>Node1</title>
<g id="a_node1"><a xlink:title=" ">
<polygon fill="#bfbfbf" stroke="black" points="2.5,-0.5 2.5,-167.5 148.5,-167.5 148.5,-0.5 2.5,-0.5"/>
<text text-anchor="middle" x="75.5" y="-153.9" font-family="Helvetica,sans-Serif" font-size="12.00">Swimming</text>
<polyline fill="none" stroke="black" points="2.5,-146.5 148.5,-146.5 "/>
<text text-anchor="start" x="10.5" y="-132.9" font-family="Helvetica,sans-Serif" font-size="12.00">&#45; int length</text>
<text text-anchor="start" x="10.5" y="-119.9" font-family="Helvetica,sans-Serif" font-size="12.00">&#45; int laps</text>
<text text-anchor="start" x="10.5" y="-106.9" font-family="Helvetica,sans-Serif" font-size="12.00">&#45; string stroke</text>
<polyline fill="none" stroke="black" points="2.5,-99.5 148.5,-99.5 "/>
<text text-anchor="start" x="10.5" y="-85.9" font-family="Helvetica,sans-Serif" font-size="12.00">+ Swimming()</text>
<text text-anchor="start" x="10.5" y="-72.9" font-family="Helvetica,sans-Serif" font-size="12.00">+ void addData()</text>
<text text-anchor="start" x="10.5" y="-59.9" font-family="Helvetica,sans-Serif" font-size="12.00">+ void display()</text>
<text text-anchor="start" x="10.5" y="-46.9" font-family="Helvetica,sans-Serif" font-size="12.00">+ string getDataForFile()</text>
<text text-anchor="start" x="10.5" y="-33.9" font-family="Helvetica,sans-Serif" font-size="12.00">+ void loadDataFromFile</text>
<text text-anchor="start" x="10.5" y="-20.9" font-family="Helvetica,sans-Serif" font-size="12.00">(ifstream &amp;file)</text>
<text text-anchor="start" x="10.5" y="-7.9" font-family="Helvetica,sans-Serif" font-size="12.00">&#45; int calcTotalDistance()</text>
</a>
</g>
</g>
<!-- Node2 -->
<g id="node2" class="node">
<title>Node2</title>
<g id="a_node2"><a xlink:href="class_exericse.html" target="_top" xlink:title=" ">
<polygon fill="white" stroke="black" points="0,-204.5 0,-306.5 151,-306.5 151,-204.5 0,-204.5"/>
<text text-anchor="middle" x="75.5" y="-292.9" font-family="Helvetica,sans-Serif" font-size="12.00">Exericse</text>
<polyline fill="none" stroke="black" points="0,-285.5 151,-285.5 "/>
<text text-anchor="middle" x="75.5" y="-271.9" font-family="Helvetica,sans-Serif" font-size="12.00"> </text>
<polyline fill="none" stroke="black" points="0,-264.5 151,-264.5 "/>
<text text-anchor="start" x="8" y="-250.9" font-family="Helvetica,sans-Serif" font-size="12.00">+ virtual void display()=0</text>
<text text-anchor="start" x="8" y="-237.9" font-family="Helvetica,sans-Serif" font-size="12.00">+ virtual string getDataFor</text>
<text text-anchor="start" x="8" y="-224.9" font-family="Helvetica,sans-Serif" font-size="12.00">File()=0</text>
<text text-anchor="start" x="8" y="-211.9" font-family="Helvetica,sans-Serif" font-size="12.00">+ virtual void addData()=0</text>
</a>
</g>
</g>
<!-- Node2&#45;&gt;Node1 -->
<g id="edge1" class="edge">
<title>Node2&#45;&gt;Node1</title>
<path fill="none" stroke="midnightblue" d="M75.5,-193.89C75.5,-185.35 75.5,-176.45 75.5,-167.58"/>
<polygon fill="none" stroke="midnightblue" points="72,-194.1 75.5,-204.1 79,-194.1 72,-194.1"/>
</g>
</g>
</svg>
