<?xml version="1.0" encoding="UTF-8" standalone="no"?>
<!DOCTYPE svg PUBLIC "-//W3C//DTD SVG 1.1//EN"
 "http://www.w3.org/Graphics/SVG/1.1/DTD/svg11.dtd">
<!-- Generated by graphviz version 2.50.0 (20211204.2007)
 -->
<!-- Title: Menu::addNewPerson Pages: 1 -->
<svg width="612pt" height="110pt"
 viewBox="0.00 0.00 612.00 110.00" xmlns="http://www.w3.org/2000/svg" xmlns:xlink="http://www.w3.org/1999/xlink">
<g id="graph0" class="graph" transform="scale(1 1) rotate(0) translate(4 106)">
<title>Menu::addNewPerson</title>
<polygon fill="white" stroke="transparent" points="-4,4 -4,-106 608,-106 608,4 -4,4"/>
<!-- Node1 -->
<g id="node1" class="node">
<title>Node1</title>
<g id="a_node1"><a xlink:title=" ">
<polygon fill="#bfbfbf" stroke="black" points="0,-40.5 0,-61.5 132,-61.5 132,-40.5 0,-40.5"/>
<text text-anchor="middle" x="66" y="-47.9" font-family="Helvetica,sans-Serif" font-size="12.00">Menu::addNewPerson</text>
</a>
</g>
</g>
<!-- Node2 -->
<g id="node2" class="node">
<title>Node2</title>
<g id="a_node2"><a xlink:href="class_person.html#ac2d03633c439fe91ee1b00b28dda0f34" target="_top" xlink:title=" ">
<polygon fill="white" stroke="black" points="168,-40.5 168,-61.5 274,-61.5 274,-40.5 168,-40.5"/>
<text text-anchor="middle" x="221" y="-47.9" font-family="Helvetica,sans-Serif" font-size="12.00">Person::addData</text>
</a>
</g>
</g>
<!-- Node1&#45;&gt;Node2 -->
<g id="edge1" class="edge">
<title>Node1&#45;&gt;Node2</title>
<path fill="none" stroke="midnightblue" d="M132.33,-51C140.76,-51 149.38,-51 157.75,-51"/>
<polygon fill="midnightblue" stroke="midnightblue" points="157.83,-54.5 167.83,-51 157.83,-47.5 157.83,-54.5"/>
</g>
<!-- Node3 -->
<g id="node3" class="node">
<title>Node3</title>
<g id="a_node3"><a xlink:href="class_person.html#a26a9c92ced3166b11140e0bda83b1eb3" target="_top" xlink:title=" ">
<polygon fill="white" stroke="black" points="310,-40.5 310,-61.5 436,-61.5 436,-40.5 310,-40.5"/>
<text text-anchor="middle" x="373" y="-47.9" font-family="Helvetica,sans-Serif" font-size="12.00">Person::addExercise</text>
</a>
</g>
</g>
<!-- Node2&#45;&gt;Node3 -->
<g id="edge2" class="edge">
<title>Node2&#45;&gt;Node3</title>
<path fill="none" stroke="midnightblue" d="M274.04,-51C282.37,-51 291.12,-51 299.82,-51"/>
<polygon fill="midnightblue" stroke="midnightblue" points="299.99,-54.5 309.99,-51 299.99,-47.5 299.99,-54.5"/>
</g>
<!-- Node4 -->
<g id="node4" class="node">
<title>Node4</title>
<g id="a_node4"><a xlink:href="class_run.html#aeda5a32098dffc91e53ee8941dc109f3" target="_top" xlink:title=" ">
<polygon fill="white" stroke="black" points="493.5,-80.5 493.5,-101.5 582.5,-101.5 582.5,-80.5 493.5,-80.5"/>
<text text-anchor="middle" x="538" y="-87.9" font-family="Helvetica,sans-Serif" font-size="12.00">Run::addData</text>
</a>
</g>
</g>
<!-- Node3&#45;&gt;Node4 -->
<g id="edge3" class="edge">
<title>Node3&#45;&gt;Node4</title>
<path fill="none" stroke="midnightblue" d="M416.83,-61.51C437.52,-66.59 462.55,-72.73 484.39,-78.09"/>
<polygon fill="midnightblue" stroke="midnightblue" points="483.63,-81.51 494.18,-80.49 485.3,-74.71 483.63,-81.51"/>
</g>
<!-- Node5 -->
<g id="node5" class="node">
<title>Node5</title>
<g id="a_node5"><a xlink:href="class_weightlifting.html#a8800d964a57bbbb5ae1a2c6ca613f322" target="_top" xlink:title=" ">
<polygon fill="white" stroke="black" points="472,-40.5 472,-61.5 604,-61.5 604,-40.5 472,-40.5"/>
<text text-anchor="middle" x="538" y="-47.9" font-family="Helvetica,sans-Serif" font-size="12.00">Weightlifting::addData</text>
</a>
</g>
</g>
<!-- Node3&#45;&gt;Node5 -->
<g id="edge4" class="edge">
<title>Node3&#45;&gt;Node5</title>
<path fill="none" stroke="midnightblue" d="M436.09,-51C444.49,-51 453.19,-51 461.8,-51"/>
<polygon fill="midnightblue" stroke="midnightblue" points="461.83,-54.5 471.83,-51 461.83,-47.5 461.83,-54.5"/>
</g>
<!-- Node6 -->
<g id="node6" class="node">
<title>Node6</title>
<g id="a_node6"><a xlink:href="class_swimming.html#ac0790d61cd6663f894e3aae8da15fd2d" target="_top" xlink:title=" ">
<polygon fill="white" stroke="black" points="476.5,-0.5 476.5,-21.5 599.5,-21.5 599.5,-0.5 476.5,-0.5"/>
<text text-anchor="middle" x="538" y="-7.9" font-family="Helvetica,sans-Serif" font-size="12.00">Swimming::addData</text>
</a>
</g>
</g>
<!-- Node3&#45;&gt;Node6 -->
<g id="edge5" class="edge">
<title>Node3&#45;&gt;Node6</title>
<path fill="none" stroke="midnightblue" d="M416.83,-40.49C437.52,-35.41 462.55,-29.27 484.39,-23.91"/>
<polygon fill="midnightblue" stroke="midnightblue" points="485.3,-27.29 494.18,-21.51 483.63,-20.49 485.3,-27.29"/>
</g>
</g>
</svg>
