<?xml version="1.0" encoding="UTF-8" standalone="no"?>
<!DOCTYPE svg PUBLIC "-//W3C//DTD SVG 1.1//EN"
 "http://www.w3.org/Graphics/SVG/1.1/DTD/svg11.dtd">
<!-- Generated by graphviz version 2.50.0 (20211204.2007)
 -->
<!-- Title: Menu::start Pages: 1 -->
<!--zoomable 262 -->
<svg id="main" version="1.1" xmlns="http://www.w3.org/2000/svg" xmlns:xlink="http://www.w3.org/1999/xlink" xml:space="preserve" onload="init(evt)">
<style type="text/css"><![CDATA[
.edge:hover path { stroke: red; }
.edge:hover polygon { stroke: red; fill: red; }
]]></style>
<script type="text/javascript"><![CDATA[
var edges = document.getElementsByTagName('g');
if (edges && edges.length) {
  for (var i=0;i<edges.length;i++) {
    if (edges[i].id.substr(0,4)=='edge') {
      edges[i].setAttribute('class','edge');
    }
  }
}
]]></script>
        <defs>
                <circle id="rim" cx="0" cy="0" r="7"/>
                <circle id="rim2" cx="0" cy="0" r="3.5"/>
                <g id="zoomPlus">
                        <use xlink:href="#rim" fill="#404040">
                                <set attributeName="fill" to="#808080" begin="zoomplus.mouseover" end="zoomplus.mouseout"/>
                        </use>
                        <path d="M-4,0h8M0,-4v8" fill="none" stroke="white" stroke-width="1.5" pointer-events="none"/>
                </g>
                <g id="zoomMin">
                        <use xlink:href="#rim" fill="#404040">
                                <set attributeName="fill" to="#808080" begin="zoomminus.mouseover" end="zoomminus.mouseout"/>
                        </use>
                        <path d="M-4,0h8" fill="none" stroke="white" stroke-width="1.5" pointer-events="none"/>
                </g>
                <g id="dirArrow">
                        <path fill="none" stroke="white" stroke-width="1.5" d="M0,-3.0v7 M-2.5,-0.5L0,-3.0L2.5,-0.5"/>
                </g>
               <g id="resetDef">
                       <use xlink:href="#rim2" fill="#404040">
                               <set attributeName="fill" to="#808080" begin="reset.mouseover" end="reset.mouseout"/>
                       </use>
               </g>
        </defs>

<script type="text/javascript">
var viewWidth = 835;
var viewHeight = 262;
var sectionId = 'dynsection-14';
</script>
<script xlink:href="svgpan.js"/>
<svg id="graph" class="graph">
<g id="viewport">
<title>Menu::start</title>
<polygon fill="white" stroke="transparent" points="-4,4 -4,-257.58 831,-257.58 831,4 -4,4"/>
<!-- Node1 -->
<g id="node1" class="node">
<title>Node1</title>
<g id="a_node1"><a xlink:title=" ">
<polygon fill="#bfbfbf" stroke="black" points="0,-112.08 0,-133.08 74,-133.08 74,-112.08 0,-112.08"/>
<text text-anchor="middle" x="37" y="-119.48" font-family="Helvetica,sans-Serif" font-size="12.00">Menu::start</text>
</a>
</g>
</g>
<!-- Node2 -->
<g id="node2" class="node">
<title>Node2</title>
<g id="a_node2"><a xlink:href="class_menu.html#a70673c67e9c671ec8930868f90467760" target="_top" xlink:title=" ">
<polygon fill="white" stroke="black" points="110,-232.08 110,-253.08 250,-253.08 250,-232.08 110,-232.08"/>
<text text-anchor="middle" x="180" y="-239.48" font-family="Helvetica,sans-Serif" font-size="12.00">Menu::addNewExercise</text>
</a>
</g>
</g>
<!-- Node1&#45;&gt;Node2 -->
<g id="edge1" class="edge">
<title>Node1&#45;&gt;Node2</title>
<path fill="none" stroke="midnightblue" d="M42.66,-133.13C52.23,-153.56 76.09,-198.65 110,-222.58 112.7,-224.49 115.58,-226.21 118.58,-227.77"/>
<polygon fill="midnightblue" stroke="midnightblue" points="117.28,-231.03 127.84,-231.99 120.18,-224.66 117.28,-231.03"/>
</g>
<!-- Node4 -->
<g id="node4" class="node">
<title>Node4</title>
<g id="a_node4"><a xlink:href="class_menu.html#aa7ebe69aba410a13a88ccde79a5c7f3f" target="_top" xlink:title=" ">
<polygon fill="white" stroke="black" points="114,-112.08 114,-133.08 246,-133.08 246,-112.08 114,-112.08"/>
<text text-anchor="middle" x="180" y="-119.48" font-family="Helvetica,sans-Serif" font-size="12.00">Menu::addNewPerson</text>
</a>
</g>
</g>
<!-- Node1&#45;&gt;Node4 -->
<g id="edge3" class="edge">
<title>Node1&#45;&gt;Node4</title>
<path fill="none" stroke="midnightblue" d="M74.31,-122.58C83.37,-122.58 93.42,-122.58 103.61,-122.58"/>
<polygon fill="midnightblue" stroke="midnightblue" points="103.81,-126.08 113.81,-122.58 103.81,-119.08 103.81,-126.08"/>
</g>
<!-- Node10 -->
<g id="node10" class="node">
<title>Node10</title>
<g id="a_node10"><a xlink:href="class_menu.html#ab24a09633db8d1be3bcd84adf059f0d6" target="_top" xlink:title=" ">
<polygon fill="white" stroke="black" points="126,-192.08 126,-213.08 234,-213.08 234,-192.08 126,-192.08"/>
<text text-anchor="middle" x="180" y="-199.48" font-family="Helvetica,sans-Serif" font-size="12.00">Menu::editPerson</text>
</a>
</g>
</g>
<!-- Node1&#45;&gt;Node10 -->
<g id="edge9" class="edge">
<title>Node1&#45;&gt;Node10</title>
<path fill="none" stroke="midnightblue" d="M48.19,-133.48C61.28,-146.88 85.29,-169.45 110,-182.58 114.19,-184.8 118.65,-186.81 123.21,-188.61"/>
<polygon fill="midnightblue" stroke="midnightblue" points="122.08,-191.92 132.68,-192.03 124.46,-185.34 122.08,-191.92"/>
</g>
<!-- Node11 -->
<g id="node11" class="node">
<title>Node11</title>
<g id="a_node11"><a xlink:href="class_menu.html#af9f654347310d43ee1cb2ddbefbee9df" target="_top" xlink:title=" ">
<polygon fill="white" stroke="black" points="119.5,-72.08 119.5,-93.08 240.5,-93.08 240.5,-72.08 119.5,-72.08"/>
<text text-anchor="middle" x="180" y="-79.48" font-family="Helvetica,sans-Serif" font-size="12.00">Menu::loadFromFile</text>
</a>
</g>
</g>
<!-- Node1&#45;&gt;Node11 -->
<g id="edge11" class="edge">
<title>Node1&#45;&gt;Node11</title>
<path fill="none" stroke="midnightblue" d="M74.31,-112.28C91.88,-107.3 113.18,-101.25 131.98,-95.92"/>
<polygon fill="midnightblue" stroke="midnightblue" points="133.16,-99.22 141.83,-93.13 131.25,-92.49 133.16,-99.22"/>
</g>
<!-- Node16 -->
<g id="node16" class="node">
<title>Node16</title>
<g id="a_node16"><a xlink:href="class_menu.html#a5a974ab9c87b95a19770f94b3eb5066f" target="_top" xlink:title=" ">
<polygon fill="white" stroke="black" points="121,-32.08 121,-53.08 239,-53.08 239,-32.08 121,-32.08"/>
<text text-anchor="middle" x="180" y="-39.48" font-family="Helvetica,sans-Serif" font-size="12.00">Menu::saveAndQuit</text>
</a>
</g>
</g>
<!-- Node1&#45;&gt;Node16 -->
<g id="edge16" class="edge">
<title>Node1&#45;&gt;Node16</title>
<path fill="none" stroke="midnightblue" d="M48.19,-111.68C61.28,-98.28 85.29,-75.71 110,-62.58 114.19,-60.36 118.65,-58.35 123.21,-56.55"/>
<polygon fill="midnightblue" stroke="midnightblue" points="124.46,-59.82 132.68,-53.13 122.08,-53.24 124.46,-59.82"/>
</g>
<!-- Node17 -->
<g id="node17" class="node">
<title>Node17</title>
<g id="a_node17"><a xlink:href="class_menu.html#a2298302836fd3658f43d74d1bc6b9a29" target="_top" xlink:title=" ">
<polygon fill="white" stroke="black" points="309,-13.08 309,-34.08 418,-34.08 418,-13.08 309,-13.08"/>
<text text-anchor="middle" x="363.5" y="-20.48" font-family="Helvetica,sans-Serif" font-size="12.00">Menu::writeToFile</text>
</a>
</g>
</g>
<!-- Node1&#45;&gt;Node17 -->
<g id="edge20" class="edge">
<title>Node1&#45;&gt;Node17</title>
<path fill="none" stroke="midnightblue" d="M41.86,-111.83C50.3,-90.16 72.68,-41.7 110,-22.58 174.51,10.46 261.02,0.41 314.2,-10.86"/>
<polygon fill="midnightblue" stroke="midnightblue" points="313.53,-14.3 324.05,-13.04 315.05,-7.46 313.53,-14.3"/>
</g>
<!-- Node18 -->
<g id="node18" class="node">
<title>Node18</title>
<g id="a_node18"><a xlink:href="class_menu.html#a8196e617d71a059fc968f522eed4c4ca" target="_top" xlink:title=" ">
<polygon fill="white" stroke="black" points="122,-152.08 122,-173.08 238,-173.08 238,-152.08 122,-152.08"/>
<text text-anchor="middle" x="180" y="-159.48" font-family="Helvetica,sans-Serif" font-size="12.00">Menu::showPerson</text>
</a>
</g>
</g>
<!-- Node1&#45;&gt;Node18 -->
<g id="edge18" class="edge">
<title>Node1&#45;&gt;Node18</title>
<path fill="none" stroke="midnightblue" d="M74.31,-132.88C91.88,-137.87 113.18,-143.91 131.98,-149.24"/>
<polygon fill="midnightblue" stroke="midnightblue" points="131.25,-152.67 141.83,-152.04 133.16,-145.94 131.25,-152.67"/>
</g>
<!-- Node3 -->
<g id="node3" class="node">
<title>Node3</title>
<g id="a_node3"><a xlink:href="class_menu.html#abd3f594403e9f8acc62d5b3f2e394ddc" target="_top" xlink:title=" ">
<polygon fill="white" stroke="black" points="290.5,-192.08 290.5,-213.08 436.5,-213.08 436.5,-192.08 290.5,-192.08"/>
<text text-anchor="middle" x="363.5" y="-199.48" font-family="Helvetica,sans-Serif" font-size="12.00">Menu::printPersonVector</text>
</a>
</g>
</g>
<!-- Node2&#45;&gt;Node3 -->
<g id="edge2" class="edge">
<title>Node2&#45;&gt;Node3</title>
<path fill="none" stroke="midnightblue" d="M228.69,-232.07C252.04,-226.92 280.35,-220.69 304.9,-215.27"/>
<polygon fill="midnightblue" stroke="midnightblue" points="305.8,-218.66 314.82,-213.09 304.3,-211.82 305.8,-218.66"/>
</g>
<!-- Node5 -->
<g id="node5" class="node">
<title>Node5</title>
<g id="a_node5"><a xlink:href="class_person.html#ac2d03633c439fe91ee1b00b28dda0f34" target="_top" xlink:title=" ">
<polygon fill="white" stroke="black" points="310.5,-132.08 310.5,-153.08 416.5,-153.08 416.5,-132.08 310.5,-132.08"/>
<text text-anchor="middle" x="363.5" y="-139.48" font-family="Helvetica,sans-Serif" font-size="12.00">Person::addData</text>
</a>
</g>
</g>
<!-- Node4&#45;&gt;Node5 -->
<g id="edge4" class="edge">
<title>Node4&#45;&gt;Node5</title>
<path fill="none" stroke="midnightblue" d="M246.01,-129.74C263.7,-131.69 282.81,-133.8 300.33,-135.73"/>
<polygon fill="midnightblue" stroke="midnightblue" points="300.12,-139.23 310.44,-136.84 300.89,-132.27 300.12,-139.23"/>
</g>
<!-- Node6 -->
<g id="node6" class="node">
<title>Node6</title>
<g id="a_node6"><a xlink:href="class_person.html#a26a9c92ced3166b11140e0bda83b1eb3" target="_top" xlink:title=" ">
<polygon fill="white" stroke="black" points="505,-152.08 505,-173.08 631,-173.08 631,-152.08 505,-152.08"/>
<text text-anchor="middle" x="568" y="-159.48" font-family="Helvetica,sans-Serif" font-size="12.00">Person::addExercise</text>
</a>
</g>
</g>
<!-- Node5&#45;&gt;Node6 -->
<g id="edge5" class="edge">
<title>Node5&#45;&gt;Node6</title>
<path fill="none" stroke="midnightblue" d="M416.65,-147.73C440.44,-150.08 469.01,-152.9 494.82,-155.45"/>
<polygon fill="midnightblue" stroke="midnightblue" points="494.64,-158.95 504.94,-156.45 495.33,-151.99 494.64,-158.95"/>
</g>
<!-- Node7 -->
<g id="node7" class="node">
<title>Node7</title>
<g id="a_node7"><a xlink:href="class_run.html#aeda5a32098dffc91e53ee8941dc109f3" target="_top" xlink:title=" ">
<polygon fill="white" stroke="black" points="716.5,-192.08 716.5,-213.08 805.5,-213.08 805.5,-192.08 716.5,-192.08"/>
<text text-anchor="middle" x="761" y="-199.48" font-family="Helvetica,sans-Serif" font-size="12.00">Run::addData</text>
</a>
</g>
</g>
<!-- Node6&#45;&gt;Node7 -->
<g id="edge6" class="edge">
<title>Node6&#45;&gt;Node7</title>
<path fill="none" stroke="midnightblue" d="M619.18,-173.09C646.06,-178.72 679.16,-185.65 706.52,-191.38"/>
<polygon fill="midnightblue" stroke="midnightblue" points="705.81,-194.81 716.32,-193.43 707.25,-187.96 705.81,-194.81"/>
</g>
<!-- Node8 -->
<g id="node8" class="node">
<title>Node8</title>
<g id="a_node8"><a xlink:href="class_weightlifting.html#a8800d964a57bbbb5ae1a2c6ca613f322" target="_top" xlink:title=" ">
<polygon fill="white" stroke="black" points="695,-152.08 695,-173.08 827,-173.08 827,-152.08 695,-152.08"/>
<text text-anchor="middle" x="761" y="-159.48" font-family="Helvetica,sans-Serif" font-size="12.00">Weightlifting::addData</text>
</a>
</g>
</g>
<!-- Node6&#45;&gt;Node8 -->
<g id="edge7" class="edge">
<title>Node6&#45;&gt;Node8</title>
<path fill="none" stroke="midnightblue" d="M631.01,-162.58C648.04,-162.58 666.69,-162.58 684.39,-162.58"/>
<polygon fill="midnightblue" stroke="midnightblue" points="684.69,-166.08 694.69,-162.58 684.68,-159.08 684.69,-166.08"/>
</g>
<!-- Node9 -->
<g id="node9" class="node">
<title>Node9</title>
<g id="a_node9"><a xlink:href="class_swimming.html#ac0790d61cd6663f894e3aae8da15fd2d" target="_top" xlink:title=" ">
<polygon fill="white" stroke="black" points="699.5,-112.08 699.5,-133.08 822.5,-133.08 822.5,-112.08 699.5,-112.08"/>
<text text-anchor="middle" x="761" y="-119.48" font-family="Helvetica,sans-Serif" font-size="12.00">Swimming::addData</text>
</a>
</g>
</g>
<!-- Node6&#45;&gt;Node9 -->
<g id="edge8" class="edge">
<title>Node6&#45;&gt;Node9</title>
<path fill="none" stroke="midnightblue" d="M619.18,-152.07C643.87,-146.9 673.82,-140.63 699.73,-135.2"/>
<polygon fill="midnightblue" stroke="midnightblue" points="700.75,-138.56 709.82,-133.09 699.32,-131.71 700.75,-138.56"/>
</g>
<!-- Node10&#45;&gt;Node3 -->
<g id="edge10" class="edge">
<title>Node10&#45;&gt;Node3</title>
<path fill="none" stroke="midnightblue" d="M234.47,-202.58C248.8,-202.58 264.62,-202.58 280.12,-202.58"/>
<polygon fill="midnightblue" stroke="midnightblue" points="280.24,-206.08 290.24,-202.58 280.24,-199.08 280.24,-206.08"/>
</g>
<!-- Node12 -->
<g id="node12" class="node">
<title>Node12</title>
<g id="a_node12"><a xlink:href="class_person.html#ad4703ef7c3ce2ed4ff7fbfb26ead614d" target="_top" xlink:title=" ">
<polygon fill="white" stroke="black" points="286,-72.08 286,-93.08 441,-93.08 441,-72.08 286,-72.08"/>
<text text-anchor="middle" x="363.5" y="-79.48" font-family="Helvetica,sans-Serif" font-size="12.00">Person::loadDataFromFile</text>
</a>
</g>
</g>
<!-- Node11&#45;&gt;Node12 -->
<g id="edge12" class="edge">
<title>Node11&#45;&gt;Node12</title>
<path fill="none" stroke="midnightblue" d="M240.68,-82.58C251.87,-82.58 263.77,-82.58 275.59,-82.58"/>
<polygon fill="midnightblue" stroke="midnightblue" points="275.93,-86.08 285.93,-82.58 275.93,-79.08 275.93,-86.08"/>
</g>
<!-- Node13 -->
<g id="node13" class="node">
<title>Node13</title>
<g id="a_node13"><a xlink:href="class_run.html#a3d526b27092ac87ccc7566846c87d311" target="_top" xlink:title=" ">
<polygon fill="white" stroke="black" points="499,-112.08 499,-133.08 637,-133.08 637,-112.08 499,-112.08"/>
<text text-anchor="middle" x="568" y="-119.48" font-family="Helvetica,sans-Serif" font-size="12.00">Run::loadDataFromFile</text>
</a>
</g>
</g>
<!-- Node12&#45;&gt;Node13 -->
<g id="edge13" class="edge">
<title>Node12&#45;&gt;Node13</title>
<path fill="none" stroke="midnightblue" d="M417.7,-93.09C444.11,-98.31 476.19,-104.64 503.83,-110.1"/>
<polygon fill="midnightblue" stroke="midnightblue" points="503.31,-113.57 513.8,-112.07 504.67,-106.7 503.31,-113.57"/>
</g>
<!-- Node14 -->
<g id="node14" class="node">
<title>Node14</title>
<g id="a_node14"><a xlink:href="class_weightlifting.html#a68980175f7047fba24f9e4621b6b2df4" target="_top" xlink:title=" ">
<polygon fill="white" stroke="black" points="477,-72.08 477,-93.08 659,-93.08 659,-72.08 477,-72.08"/>
<text text-anchor="middle" x="568" y="-79.48" font-family="Helvetica,sans-Serif" font-size="12.00">Weightlifting::loadDataFromFile</text>
</a>
</g>
</g>
<!-- Node12&#45;&gt;Node14 -->
<g id="edge14" class="edge">
<title>Node12&#45;&gt;Node14</title>
<path fill="none" stroke="midnightblue" d="M441.06,-82.58C449.43,-82.58 458.04,-82.58 466.64,-82.58"/>
<polygon fill="midnightblue" stroke="midnightblue" points="466.72,-86.08 476.72,-82.58 466.72,-79.08 466.72,-86.08"/>
</g>
<!-- Node15 -->
<g id="node15" class="node">
<title>Node15</title>
<g id="a_node15"><a xlink:href="class_swimming.html#ae7c9886f5ea1443dc0e7572f19fd03a9" target="_top" xlink:title=" ">
<polygon fill="white" stroke="black" points="481.5,-32.08 481.5,-53.08 654.5,-53.08 654.5,-32.08 481.5,-32.08"/>
<text text-anchor="middle" x="568" y="-39.48" font-family="Helvetica,sans-Serif" font-size="12.00">Swimming::loadDataFromFile</text>
</a>
</g>
</g>
<!-- Node12&#45;&gt;Node15 -->
<g id="edge15" class="edge">
<title>Node12&#45;&gt;Node15</title>
<path fill="none" stroke="midnightblue" d="M417.7,-72.07C444.11,-66.86 476.19,-60.52 503.83,-55.06"/>
<polygon fill="midnightblue" stroke="midnightblue" points="504.67,-58.46 513.8,-53.09 503.31,-51.59 504.67,-58.46"/>
</g>
<!-- Node16&#45;&gt;Node17 -->
<g id="edge17" class="edge">
<title>Node16&#45;&gt;Node17</title>
<path fill="none" stroke="midnightblue" d="M239.18,-36.49C258.25,-34.49 279.53,-32.27 298.98,-30.23"/>
<polygon fill="midnightblue" stroke="midnightblue" points="299.38,-33.71 308.96,-29.19 298.65,-26.75 299.38,-33.71"/>
</g>
<!-- Node18&#45;&gt;Node3 -->
<g id="edge19" class="edge">
<title>Node18&#45;&gt;Node3</title>
<path fill="none" stroke="midnightblue" d="M228.69,-173.09C252.04,-178.24 280.35,-184.48 304.9,-189.89"/>
<polygon fill="midnightblue" stroke="midnightblue" points="304.3,-193.34 314.82,-192.07 305.8,-186.5 304.3,-193.34"/>
</g>
</g>
</svg>
        <g id="navigator" transform="translate(0 0)" fill="#404254">
                <rect fill="#f2f5e9" fill-opacity="0.5" stroke="#606060" stroke-width=".5" x="0" y="0" width="60" height="60"/>
                <use id="zoomplus" xlink:href="#zoomPlus" x="17" y="9" onmousedown="handleZoom(evt,'in')"/>
                <use id="zoomminus" xlink:href="#zoomMin" x="42" y="9" onmousedown="handleZoom(evt,'out')"/>
                <use id="reset" xlink:href="#resetDef" x="30" y="36" onmousedown="handleReset()"/>
                <g id="arrowUp" xlink:href="#dirArrow" transform="translate(30 24)" onmousedown="handlePan(0,-1)">
                  <use xlink:href="#rim" fill="#404040">
                        <set attributeName="fill" to="#808080" begin="arrowUp.mouseover" end="arrowUp.mouseout"/>
                  </use>
                  <path fill="none" stroke="white" stroke-width="1.5" d="M0,-3.0v7 M-2.5,-0.5L0,-3.0L2.5,-0.5"/>
                </g>
                <g id="arrowRight" xlink:href="#dirArrow" transform="rotate(90) translate(36 -43)" onmousedown="handlePan(1,0)">
                  <use xlink:href="#rim" fill="#404040">
                        <set attributeName="fill" to="#808080" begin="arrowRight.mouseover" end="arrowRight.mouseout"/>
                  </use>
                  <path fill="none" stroke="white" stroke-width="1.5" d="M0,-3.0v7 M-2.5,-0.5L0,-3.0L2.5,-0.5"/>
                </g>
                <g id="arrowDown" xlink:href="#dirArrow" transform="rotate(180) translate(-30 -48)" onmousedown="handlePan(0,1)">
                  <use xlink:href="#rim" fill="#404040">
                        <set attributeName="fill" to="#808080" begin="arrowDown.mouseover" end="arrowDown.mouseout"/>
                  </use>
                  <path fill="none" stroke="white" stroke-width="1.5" d="M0,-3.0v7 M-2.5,-0.5L0,-3.0L2.5,-0.5"/>
                </g>
                <g id="arrowLeft" xlink:href="#dirArrow" transform="rotate(270) translate(-36 17)" onmousedown="handlePan(-1,0)">
                  <use xlink:href="#rim" fill="#404040">
                        <set attributeName="fill" to="#808080" begin="arrowLeft.mouseover" end="arrowLeft.mouseout"/>
                  </use>
                  <path fill="none" stroke="white" stroke-width="1.5" d="M0,-3.0v7 M-2.5,-0.5L0,-3.0L2.5,-0.5"/>
                </g>
        </g>
        <svg viewBox="0 0 15 15" width="100%" height="30px" preserveAspectRatio="xMaxYMin meet">
         <g id="arrow_out" transform="scale(0.3 0.3)">
          <a xlink:href="class_menu_ae1ec62e738dda7faaaec850bd0b58ffe_cgraph_org.svg" target="_base">
           <rect id="button" ry="5" rx="5" y="6" x="6" height="38" width="38"
                fill="#f2f5e9" fill-opacity="0.5" stroke="#606060" stroke-width="1.0"/>
           <path id="arrow"
             d="M 11.500037,31.436501 C 11.940474,20.09759 22.043105,11.32322 32.158766,21.979434 L 37.068811,17.246167 C 37.068811,17.246167 37.088388,32 37.088388,32 L 22.160133,31.978069 C 22.160133,31.978069 26.997745,27.140456 26.997745,27.140456 C 18.528582,18.264221 13.291696,25.230495 11.500037,31.436501 z"
             style="fill:#404040;"/>
          </a>
         </g>
        </svg>
</svg>
