<?xml version="1.0" encoding="UTF-8" standalone="no"?>
<!DOCTYPE svg PUBLIC "-//W3C//DTD SVG 1.1//EN"
 "http://www.w3.org/Graphics/SVG/1.1/DTD/svg11.dtd">
<!-- Generated by graphviz version 2.50.0 (20211204.2007)
 -->
<!-- Title: Run::calculateAvgPace Pages: 1 -->
<svg width="264pt" height="70pt"
 viewBox="0.00 0.00 264.00 70.00" xmlns="http://www.w3.org/2000/svg" xmlns:xlink="http://www.w3.org/1999/xlink">
<g id="graph0" class="graph" transform="scale(1 1) rotate(0) translate(4 66)">
<title>Run::calculateAvgPace</title>
<polygon fill="white" stroke="transparent" points="-4,4 -4,-66 260,-66 260,4 -4,4"/>
<!-- Node1 -->
<g id="node1" class="node">
<title>Node1</title>
<g id="a_node1"><a xlink:title=" ">
<polygon fill="#bfbfbf" stroke="black" points="119,-20.5 119,-41.5 256,-41.5 256,-20.5 119,-20.5"/>
<text text-anchor="middle" x="187.5" y="-27.9" font-family="Helvetica,sans-Serif" font-size="12.00">Run::calculateAvgPace</text>
</a>
</g>
</g>
<!-- Node2 -->
<g id="node2" class="node">
<title>Node2</title>
<g id="a_node2"><a xlink:href="class_hike.html#a0c9a64e3b1e5838dbb4bd8a79552a6f9" target="_top" xlink:title=" ">
<polygon fill="white" stroke="black" points="0,-40.5 0,-61.5 83,-61.5 83,-40.5 0,-40.5"/>
<text text-anchor="middle" x="41.5" y="-47.9" font-family="Helvetica,sans-Serif" font-size="12.00">Hike::display</text>
</a>
</g>
</g>
<!-- Node1&#45;&gt;Node2 -->
<g id="edge1" class="edge">
<title>Node1&#45;&gt;Node2</title>
<path fill="none" stroke="midnightblue" d="M108.78,-41.8C99.99,-43.02 91.32,-44.22 83.29,-45.34"/>
<polygon fill="midnightblue" stroke="midnightblue" points="109.29,-45.26 118.72,-40.41 108.33,-38.32 109.29,-45.26"/>
</g>
<!-- Node3 -->
<g id="node3" class="node">
<title>Node3</title>
<g id="a_node3"><a xlink:href="class_run.html#a2e82d7f0618766faab29155652019a36" target="_top" xlink:title=" ">
<polygon fill="white" stroke="black" points="1.5,-0.5 1.5,-21.5 81.5,-21.5 81.5,-0.5 1.5,-0.5"/>
<text text-anchor="middle" x="41.5" y="-7.9" font-family="Helvetica,sans-Serif" font-size="12.00">Run::display</text>
</a>
</g>
</g>
<!-- Node1&#45;&gt;Node3 -->
<g id="edge2" class="edge">
<title>Node1&#45;&gt;Node3</title>
<path fill="none" stroke="midnightblue" d="M108.59,-20.18C99.29,-18.89 90.11,-17.61 81.7,-16.44"/>
<polygon fill="midnightblue" stroke="midnightblue" points="108.33,-23.68 118.72,-21.59 109.29,-16.74 108.33,-23.68"/>
</g>
</g>
</svg>
