<?xml version="1.0" encoding="UTF-8" standalone="no"?>
<!DOCTYPE svg PUBLIC "-//W3C//DTD SVG 1.1//EN"
 "http://www.w3.org/Graphics/SVG/1.1/DTD/svg11.dtd">
<!-- Generated by graphviz version 2.50.0 (20211204.2007)
 -->
<!-- Title: Exercise Pages: 1 -->
<svg width="514pt" height="454pt"
 viewBox="0.00 0.00 513.50 454.00" xmlns="http://www.w3.org/2000/svg" xmlns:xlink="http://www.w3.org/1999/xlink">
<g id="graph0" class="graph" transform="scale(1 1) rotate(0) translate(4 450)">
<title>Exercise</title>
<polygon fill="white" stroke="transparent" points="-4,4 -4,-450 509.5,-450 509.5,4 -4,4"/>
<!-- Node1 -->
<g id="node1" class="node">
<title>Node1</title>
<g id="a_node1"><a xlink:title=" ">
<polygon fill="#bfbfbf" stroke="black" points="175,-343.5 175,-445.5 326,-445.5 326,-343.5 175,-343.5"/>
<text text-anchor="middle" x="250.5" y="-431.9" font-family="Helvetica,sans-Serif" font-size="12.00">Exercise</text>
<polyline fill="none" stroke="black" points="175,-424.5 326,-424.5 "/>
<text text-anchor="middle" x="250.5" y="-410.9" font-family="Helvetica,sans-Serif" font-size="12.00"> </text>
<polyline fill="none" stroke="black" points="175,-403.5 326,-403.5 "/>
<text text-anchor="start" x="183" y="-389.9" font-family="Helvetica,sans-Serif" font-size="12.00">+ virtual void display()=0</text>
<text text-anchor="start" x="183" y="-376.9" font-family="Helvetica,sans-Serif" font-size="12.00">+ virtual string getDataFor</text>
<text text-anchor="start" x="183" y="-363.9" font-family="Helvetica,sans-Serif" font-size="12.00">File()=0</text>
<text text-anchor="start" x="183" y="-350.9" font-family="Helvetica,sans-Serif" font-size="12.00">+ virtual void addData()=0</text>
</a>
</g>
</g>
<!-- Node2 -->
<g id="node2" class="node">
<title>Node2</title>
<g id="a_node2"><a xlink:href="class_run.html" target="_top" xlink:title=" ">
<polygon fill="white" stroke="black" points="0,-126.5 0,-306.5 159,-306.5 159,-126.5 0,-126.5"/>
<text text-anchor="middle" x="79.5" y="-292.9" font-family="Helvetica,sans-Serif" font-size="12.00">Run</text>
<polyline fill="none" stroke="black" points="0,-285.5 159,-285.5 "/>
<text text-anchor="start" x="8" y="-271.9" font-family="Helvetica,sans-Serif" font-size="12.00"># double distanceInKm</text>
<text text-anchor="start" x="8" y="-258.9" font-family="Helvetica,sans-Serif" font-size="12.00"># int timeMins</text>
<text text-anchor="start" x="8" y="-245.9" font-family="Helvetica,sans-Serif" font-size="12.00"># int timeSeconds</text>
<text text-anchor="start" x="8" y="-232.9" font-family="Helvetica,sans-Serif" font-size="12.00"># string terrain</text>
<polyline fill="none" stroke="black" points="0,-225.5 159,-225.5 "/>
<text text-anchor="start" x="8" y="-211.9" font-family="Helvetica,sans-Serif" font-size="12.00">+ Run()</text>
<text text-anchor="start" x="8" y="-198.9" font-family="Helvetica,sans-Serif" font-size="12.00">+ void addData()</text>
<text text-anchor="start" x="8" y="-185.9" font-family="Helvetica,sans-Serif" font-size="12.00">+ void display()</text>
<text text-anchor="start" x="8" y="-172.9" font-family="Helvetica,sans-Serif" font-size="12.00">+ string getDataForFile()</text>
<text text-anchor="start" x="8" y="-159.9" font-family="Helvetica,sans-Serif" font-size="12.00">+ void loadDataFromFile</text>
<text text-anchor="start" x="8" y="-146.9" font-family="Helvetica,sans-Serif" font-size="12.00">(ifstream &amp;file)</text>
<text text-anchor="start" x="8" y="-133.9" font-family="Helvetica,sans-Serif" font-size="12.00"># string calculateAvgPace()</text>
</a>
</g>
</g>
<!-- Node1&#45;&gt;Node2 -->
<g id="edge1" class="edge">
<title>Node1&#45;&gt;Node2</title>
<path fill="none" stroke="midnightblue" d="M194.24,-335.59C183.01,-324.04 171.02,-311.7 159.18,-299.51"/>
<polygon fill="none" stroke="midnightblue" points="192.02,-338.33 201.5,-343.07 197.04,-333.45 192.02,-338.33"/>
</g>
<!-- Node4 -->
<g id="node4" class="node">
<title>Node4</title>
<g id="a_node4"><a xlink:href="class_swimming.html" target="_top" xlink:title=" ">
<polygon fill="white" stroke="black" points="177.5,-133 177.5,-300 323.5,-300 323.5,-133 177.5,-133"/>
<text text-anchor="middle" x="250.5" y="-286.4" font-family="Helvetica,sans-Serif" font-size="12.00">Swimming</text>
<polyline fill="none" stroke="black" points="177.5,-279 323.5,-279 "/>
<text text-anchor="start" x="185.5" y="-265.4" font-family="Helvetica,sans-Serif" font-size="12.00">&#45; int length</text>
<text text-anchor="start" x="185.5" y="-252.4" font-family="Helvetica,sans-Serif" font-size="12.00">&#45; int laps</text>
<text text-anchor="start" x="185.5" y="-239.4" font-family="Helvetica,sans-Serif" font-size="12.00">&#45; string stroke</text>
<polyline fill="none" stroke="black" points="177.5,-232 323.5,-232 "/>
<text text-anchor="start" x="185.5" y="-218.4" font-family="Helvetica,sans-Serif" font-size="12.00">+ Swimming()</text>
<text text-anchor="start" x="185.5" y="-205.4" font-family="Helvetica,sans-Serif" font-size="12.00">+ void addData()</text>
<text text-anchor="start" x="185.5" y="-192.4" font-family="Helvetica,sans-Serif" font-size="12.00">+ void display()</text>
<text text-anchor="start" x="185.5" y="-179.4" font-family="Helvetica,sans-Serif" font-size="12.00">+ string getDataForFile()</text>
<text text-anchor="start" x="185.5" y="-166.4" font-family="Helvetica,sans-Serif" font-size="12.00">+ void loadDataFromFile</text>
<text text-anchor="start" x="185.5" y="-153.4" font-family="Helvetica,sans-Serif" font-size="12.00">(ifstream &amp;file)</text>
<text text-anchor="start" x="185.5" y="-140.4" font-family="Helvetica,sans-Serif" font-size="12.00">&#45; int calcTotalDistance()</text>
</a>
</g>
</g>
<!-- Node1&#45;&gt;Node4 -->
<g id="edge3" class="edge">
<title>Node1&#45;&gt;Node4</title>
<path fill="none" stroke="midnightblue" d="M250.5,-332.77C250.5,-322.25 250.5,-311.16 250.5,-300.17"/>
<polygon fill="none" stroke="midnightblue" points="247,-333.07 250.5,-343.07 254,-333.07 247,-333.07"/>
</g>
<!-- Node5 -->
<g id="node5" class="node">
<title>Node5</title>
<g id="a_node5"><a xlink:href="class_weightlifting.html" target="_top" xlink:title=" ">
<polygon fill="white" stroke="black" points="341.5,-126.5 341.5,-306.5 505.5,-306.5 505.5,-126.5 341.5,-126.5"/>
<text text-anchor="middle" x="423.5" y="-292.9" font-family="Helvetica,sans-Serif" font-size="12.00">Weightlifting</text>
<polyline fill="none" stroke="black" points="341.5,-285.5 505.5,-285.5 "/>
<text text-anchor="start" x="349.5" y="-271.9" font-family="Helvetica,sans-Serif" font-size="12.00">&#45; int weight</text>
<text text-anchor="start" x="349.5" y="-258.9" font-family="Helvetica,sans-Serif" font-size="12.00">&#45; int reps</text>
<text text-anchor="start" x="349.5" y="-245.9" font-family="Helvetica,sans-Serif" font-size="12.00">&#45; int sets</text>
<text text-anchor="start" x="349.5" y="-232.9" font-family="Helvetica,sans-Serif" font-size="12.00">&#45; string type</text>
<polyline fill="none" stroke="black" points="341.5,-225.5 505.5,-225.5 "/>
<text text-anchor="start" x="349.5" y="-211.9" font-family="Helvetica,sans-Serif" font-size="12.00">+ Weightlifting()</text>
<text text-anchor="start" x="349.5" y="-198.9" font-family="Helvetica,sans-Serif" font-size="12.00">+ void addData()</text>
<text text-anchor="start" x="349.5" y="-185.9" font-family="Helvetica,sans-Serif" font-size="12.00">+ void display()</text>
<text text-anchor="start" x="349.5" y="-172.9" font-family="Helvetica,sans-Serif" font-size="12.00">+ string getDataForFile()</text>
<text text-anchor="start" x="349.5" y="-159.9" font-family="Helvetica,sans-Serif" font-size="12.00">+ void loadDataFromFile</text>
<text text-anchor="start" x="349.5" y="-146.9" font-family="Helvetica,sans-Serif" font-size="12.00">(ifstream &amp;file)</text>
<text text-anchor="start" x="349.5" y="-133.9" font-family="Helvetica,sans-Serif" font-size="12.00">&#45; float calculateTotalWeight()</text>
</a>
</g>
</g>
<!-- Node1&#45;&gt;Node5 -->
<g id="edge4" class="edge">
<title>Node1&#45;&gt;Node5</title>
<path fill="none" stroke="midnightblue" d="M307.14,-335.88C318.06,-324.77 329.71,-312.92 341.25,-301.17"/>
<polygon fill="none" stroke="midnightblue" points="304.59,-333.48 300.07,-343.07 309.58,-338.39 304.59,-333.48"/>
</g>
<!-- Node3 -->
<g id="node3" class="node">
<title>Node3</title>
<g id="a_node3"><a xlink:href="class_hike.html" target="_top" xlink:title=" ">
<polygon fill="white" stroke="black" points="7,-0.5 7,-89.5 152,-89.5 152,-0.5 7,-0.5"/>
<text text-anchor="middle" x="79.5" y="-75.9" font-family="Helvetica,sans-Serif" font-size="12.00">Hike</text>
<polyline fill="none" stroke="black" points="7,-68.5 152,-68.5 "/>
<text text-anchor="middle" x="79.5" y="-54.9" font-family="Helvetica,sans-Serif" font-size="12.00"> </text>
<polyline fill="none" stroke="black" points="7,-47.5 152,-47.5 "/>
<text text-anchor="start" x="15" y="-33.9" font-family="Helvetica,sans-Serif" font-size="12.00">+ Hike()</text>
<text text-anchor="start" x="15" y="-20.9" font-family="Helvetica,sans-Serif" font-size="12.00">+ string getDataForFile()</text>
<text text-anchor="start" x="15" y="-7.9" font-family="Helvetica,sans-Serif" font-size="12.00">+ void display()</text>
</a>
</g>
</g>
<!-- Node2&#45;&gt;Node3 -->
<g id="edge2" class="edge">
<title>Node2&#45;&gt;Node3</title>
<path fill="none" stroke="midnightblue" d="M79.5,-116.16C79.5,-106.91 79.5,-97.89 79.5,-89.57"/>
<polygon fill="none" stroke="midnightblue" points="76,-116.28 79.5,-126.28 83,-116.28 76,-116.28"/>
</g>
</g>
</svg>
