<?xml version="1.0" encoding="UTF-8" standalone="no"?>
<!DOCTYPE svg PUBLIC "-//W3C//DTD SVG 1.1//EN"
 "http://www.w3.org/Graphics/SVG/1.1/DTD/svg11.dtd">
<!-- Generated by graphviz version 2.50.0 (20211204.2007)
 -->
<!-- Title: Menu::writeToFile Pages: 1 -->
<svg width="459pt" height="50pt"
 viewBox="0.00 0.00 459.00 50.00" xmlns="http://www.w3.org/2000/svg" xmlns:xlink="http://www.w3.org/1999/xlink">
<g id="graph0" class="graph" transform="scale(1 1) rotate(0) translate(4 46)">
<title>Menu::writeToFile</title>
<polygon fill="white" stroke="transparent" points="-4,4 -4,-46 455,-46 455,4 -4,4"/>
<!-- Node1 -->
<g id="node1" class="node">
<title>Node1</title>
<g id="a_node1"><a xlink:title=" ">
<polygon fill="#bfbfbf" stroke="black" points="342,-0.5 342,-21.5 451,-21.5 451,-0.5 342,-0.5"/>
<text text-anchor="middle" x="396.5" y="-7.9" font-family="Helvetica,sans-Serif" font-size="12.00">Menu::writeToFile</text>
</a>
</g>
</g>
<!-- Node2 -->
<g id="node2" class="node">
<title>Node2</title>
<g id="a_node2"><a xlink:href="class_menu.html#a5a974ab9c87b95a19770f94b3eb5066f" target="_top" xlink:title=" ">
<polygon fill="white" stroke="black" points="188,-20.5 188,-41.5 306,-41.5 306,-20.5 188,-20.5"/>
<text text-anchor="middle" x="247" y="-27.9" font-family="Helvetica,sans-Serif" font-size="12.00">Menu::saveAndQuit</text>
</a>
</g>
</g>
<!-- Node1&#45;&gt;Node2 -->
<g id="edge1" class="edge">
<title>Node1&#45;&gt;Node2</title>
<path fill="none" stroke="midnightblue" d="M331.89,-19.63C323.32,-20.79 314.57,-21.97 306.11,-23.12"/>
<polygon fill="midnightblue" stroke="midnightblue" points="332.39,-23.09 341.83,-18.28 331.45,-16.15 332.39,-23.09"/>
</g>
<!-- Node3 -->
<g id="node3" class="node">
<title>Node3</title>
<g id="a_node3"><a xlink:href="class_menu.html#ae1ec62e738dda7faaaec850bd0b58ffe" target="_top" xlink:title=" ">
<polygon fill="white" stroke="black" points="78,-0.5 78,-21.5 152,-21.5 152,-0.5 78,-0.5"/>
<text text-anchor="middle" x="115" y="-7.9" font-family="Helvetica,sans-Serif" font-size="12.00">Menu::start</text>
</a>
</g>
</g>
<!-- Node1&#45;&gt;Node3 -->
<g id="edge4" class="edge">
<title>Node1&#45;&gt;Node3</title>
<path fill="none" stroke="midnightblue" d="M331.84,-11C276.21,-11 197.45,-11 152.06,-11"/>
<polygon fill="midnightblue" stroke="midnightblue" points="331.94,-14.5 341.94,-11 331.94,-7.5 331.94,-14.5"/>
</g>
<!-- Node2&#45;&gt;Node3 -->
<g id="edge2" class="edge">
<title>Node2&#45;&gt;Node3</title>
<path fill="none" stroke="midnightblue" d="M177.82,-20.51C168.95,-19.15 160.15,-17.79 152.1,-16.55"/>
<polygon fill="midnightblue" stroke="midnightblue" points="177.43,-23.99 187.84,-22.05 178.49,-17.07 177.43,-23.99"/>
</g>
<!-- Node4 -->
<g id="node4" class="node">
<title>Node4</title>
<g id="a_node4"><a xlink:href="_exercise_logger_8cpp.html#ae66f6b31b5ad750f1fe042a706a4e3d4" target="_top" xlink:title=" ">
<polygon fill="white" stroke="black" points="0,-0.5 0,-21.5 42,-21.5 42,-0.5 0,-0.5"/>
<text text-anchor="middle" x="21" y="-7.9" font-family="Helvetica,sans-Serif" font-size="12.00">main</text>
</a>
</g>
</g>
<!-- Node3&#45;&gt;Node4 -->
<g id="edge3" class="edge">
<title>Node3&#45;&gt;Node4</title>
<path fill="none" stroke="midnightblue" d="M67.77,-11C58.73,-11 49.7,-11 42.08,-11"/>
<polygon fill="midnightblue" stroke="midnightblue" points="67.9,-14.5 77.9,-11 67.9,-7.5 67.9,-14.5"/>
</g>
</g>
</svg>
