<?xml version="1.0" encoding="UTF-8" standalone="no"?>
<!DOCTYPE svg PUBLIC "-//W3C//DTD SVG 1.1//EN"
 "http://www.w3.org/Graphics/SVG/1.1/DTD/svg11.dtd">
<!-- Generated by graphviz version 2.50.0 (20211204.2007)
 -->
<!-- Title: Swimming::loadDataFromFile Pages: 1 -->
<svg width="717pt" height="30pt"
 viewBox="0.00 0.00 717.00 30.00" xmlns="http://www.w3.org/2000/svg" xmlns:xlink="http://www.w3.org/1999/xlink">
<g id="graph0" class="graph" transform="scale(1 1) rotate(0) translate(4 26)">
<title>Swimming::loadDataFromFile</title>
<polygon fill="white" stroke="transparent" points="-4,4 -4,-26 713,-26 713,4 -4,4"/>
<!-- Node1 -->
<g id="node1" class="node">
<title>Node1</title>
<g id="a_node1"><a xlink:title=" ">
<polygon fill="#bfbfbf" stroke="black" points="536,-0.5 536,-21.5 709,-21.5 709,-0.5 536,-0.5"/>
<text text-anchor="middle" x="622.5" y="-7.9" font-family="Helvetica,sans-Serif" font-size="12.00">Swimming::loadDataFromFile</text>
</a>
</g>
</g>
<!-- Node2 -->
<g id="node2" class="node">
<title>Node2</title>
<g id="a_node2"><a xlink:href="class_person.html#ad4703ef7c3ce2ed4ff7fbfb26ead614d" target="_top" xlink:title=" ">
<polygon fill="white" stroke="black" points="345,-0.5 345,-21.5 500,-21.5 500,-0.5 345,-0.5"/>
<text text-anchor="middle" x="422.5" y="-7.9" font-family="Helvetica,sans-Serif" font-size="12.00">Person::loadDataFromFile</text>
</a>
</g>
</g>
<!-- Node1&#45;&gt;Node2 -->
<g id="edge1" class="edge">
<title>Node1&#45;&gt;Node2</title>
<path fill="none" stroke="midnightblue" d="M525.8,-11C517.24,-11 508.66,-11 500.29,-11"/>
<polygon fill="midnightblue" stroke="midnightblue" points="525.81,-14.5 535.81,-11 525.81,-7.5 525.81,-14.5"/>
</g>
<!-- Node3 -->
<g id="node3" class="node">
<title>Node3</title>
<g id="a_node3"><a xlink:href="class_menu.html#af9f654347310d43ee1cb2ddbefbee9df" target="_top" xlink:title=" ">
<polygon fill="white" stroke="black" points="188,-0.5 188,-21.5 309,-21.5 309,-0.5 188,-0.5"/>
<text text-anchor="middle" x="248.5" y="-7.9" font-family="Helvetica,sans-Serif" font-size="12.00">Menu::loadFromFile</text>
</a>
</g>
</g>
<!-- Node2&#45;&gt;Node3 -->
<g id="edge2" class="edge">
<title>Node2&#45;&gt;Node3</title>
<path fill="none" stroke="midnightblue" d="M334.64,-11C325.97,-11 317.31,-11 309.01,-11"/>
<polygon fill="midnightblue" stroke="midnightblue" points="334.81,-14.5 344.81,-11 334.81,-7.5 334.81,-14.5"/>
</g>
<!-- Node4 -->
<g id="node4" class="node">
<title>Node4</title>
<g id="a_node4"><a xlink:href="class_menu.html#ae1ec62e738dda7faaaec850bd0b58ffe" target="_top" xlink:title=" ">
<polygon fill="white" stroke="black" points="78,-0.5 78,-21.5 152,-21.5 152,-0.5 78,-0.5"/>
<text text-anchor="middle" x="115" y="-7.9" font-family="Helvetica,sans-Serif" font-size="12.00">Menu::start</text>
</a>
</g>
</g>
<!-- Node3&#45;&gt;Node4 -->
<g id="edge3" class="edge">
<title>Node3&#45;&gt;Node4</title>
<path fill="none" stroke="midnightblue" d="M177.84,-11C168.93,-11 160.12,-11 152.06,-11"/>
<polygon fill="midnightblue" stroke="midnightblue" points="177.91,-14.5 187.91,-11 177.91,-7.5 177.91,-14.5"/>
</g>
<!-- Node5 -->
<g id="node5" class="node">
<title>Node5</title>
<g id="a_node5"><a xlink:href="_exercise_logger_8cpp.html#ae66f6b31b5ad750f1fe042a706a4e3d4" target="_top" xlink:title=" ">
<polygon fill="white" stroke="black" points="0,-0.5 0,-21.5 42,-21.5 42,-0.5 0,-0.5"/>
<text text-anchor="middle" x="21" y="-7.9" font-family="Helvetica,sans-Serif" font-size="12.00">main</text>
</a>
</g>
</g>
<!-- Node4&#45;&gt;Node5 -->
<g id="edge4" class="edge">
<title>Node4&#45;&gt;Node5</title>
<path fill="none" stroke="midnightblue" d="M67.77,-11C58.73,-11 49.7,-11 42.08,-11"/>
<polygon fill="midnightblue" stroke="midnightblue" points="67.9,-14.5 77.9,-11 67.9,-7.5 67.9,-14.5"/>
</g>
</g>
</svg>
