<?xml version="1.0" encoding="UTF-8" standalone="no"?>
<!DOCTYPE svg PUBLIC "-//W3C//DTD SVG 1.1//EN"
 "http://www.w3.org/Graphics/SVG/1.1/DTD/svg11.dtd">
<!-- Generated by graphviz version 2.50.0 (20211204.2007)
 -->
<!-- Title: Run::addData Pages: 1 -->
<svg width="757pt" height="30pt"
 viewBox="0.00 0.00 757.00 30.00" xmlns="http://www.w3.org/2000/svg" xmlns:xlink="http://www.w3.org/1999/xlink">
<g id="graph0" class="graph" transform="scale(1 1) rotate(0) translate(4 26)">
<title>Run::addData</title>
<polygon fill="white" stroke="transparent" points="-4,4 -4,-26 753,-26 753,4 -4,4"/>
<!-- Node1 -->
<g id="node1" class="node">
<title>Node1</title>
<g id="a_node1"><a xlink:title=" ">
<polygon fill="#bfbfbf" stroke="black" points="660,-0.5 660,-21.5 749,-21.5 749,-0.5 660,-0.5"/>
<text text-anchor="middle" x="704.5" y="-7.9" font-family="Helvetica,sans-Serif" font-size="12.00">Run::addData</text>
</a>
</g>
</g>
<!-- Node2 -->
<g id="node2" class="node">
<title>Node2</title>
<g id="a_node2"><a xlink:href="class_person.html#a26a9c92ced3166b11140e0bda83b1eb3" target="_top" xlink:title=" ">
<polygon fill="white" stroke="black" points="498,-0.5 498,-21.5 624,-21.5 624,-0.5 498,-0.5"/>
<text text-anchor="middle" x="561" y="-7.9" font-family="Helvetica,sans-Serif" font-size="12.00">Person::addExercise</text>
</a>
</g>
</g>
<!-- Node1&#45;&gt;Node2 -->
<g id="edge1" class="edge">
<title>Node1&#45;&gt;Node2</title>
<path fill="none" stroke="midnightblue" d="M649.86,-11C641.48,-11 632.75,-11 624.19,-11"/>
<polygon fill="midnightblue" stroke="midnightblue" points="649.89,-14.5 659.89,-11 649.89,-7.5 649.89,-14.5"/>
</g>
<!-- Node3 -->
<g id="node3" class="node">
<title>Node3</title>
<g id="a_node3"><a xlink:href="class_person.html#ac2d03633c439fe91ee1b00b28dda0f34" target="_top" xlink:title=" ">
<polygon fill="white" stroke="black" points="356,-0.5 356,-21.5 462,-21.5 462,-0.5 356,-0.5"/>
<text text-anchor="middle" x="409" y="-7.9" font-family="Helvetica,sans-Serif" font-size="12.00">Person::addData</text>
</a>
</g>
</g>
<!-- Node2&#45;&gt;Node3 -->
<g id="edge2" class="edge">
<title>Node2&#45;&gt;Node3</title>
<path fill="none" stroke="midnightblue" d="M487.42,-11C478.96,-11 470.46,-11 462.35,-11"/>
<polygon fill="midnightblue" stroke="midnightblue" points="487.69,-14.5 497.69,-11 487.69,-7.5 487.69,-14.5"/>
</g>
<!-- Node4 -->
<g id="node4" class="node">
<title>Node4</title>
<g id="a_node4"><a xlink:href="class_menu.html#aa7ebe69aba410a13a88ccde79a5c7f3f" target="_top" xlink:title=" ">
<polygon fill="white" stroke="black" points="188,-0.5 188,-21.5 320,-21.5 320,-0.5 188,-0.5"/>
<text text-anchor="middle" x="254" y="-7.9" font-family="Helvetica,sans-Serif" font-size="12.00">Menu::addNewPerson</text>
</a>
</g>
</g>
<!-- Node3&#45;&gt;Node4 -->
<g id="edge3" class="edge">
<title>Node3&#45;&gt;Node4</title>
<path fill="none" stroke="midnightblue" d="M345.69,-11C337.31,-11 328.68,-11 320.25,-11"/>
<polygon fill="midnightblue" stroke="midnightblue" points="345.77,-14.5 355.77,-11 345.77,-7.5 345.77,-14.5"/>
</g>
<!-- Node5 -->
<g id="node5" class="node">
<title>Node5</title>
<g id="a_node5"><a xlink:href="class_menu.html#ae1ec62e738dda7faaaec850bd0b58ffe" target="_top" xlink:title=" ">
<polygon fill="white" stroke="black" points="78,-0.5 78,-21.5 152,-21.5 152,-0.5 78,-0.5"/>
<text text-anchor="middle" x="115" y="-7.9" font-family="Helvetica,sans-Serif" font-size="12.00">Menu::start</text>
</a>
</g>
</g>
<!-- Node4&#45;&gt;Node5 -->
<g id="edge4" class="edge">
<title>Node4&#45;&gt;Node5</title>
<path fill="none" stroke="midnightblue" d="M177.65,-11C168.77,-11 160.04,-11 152.07,-11"/>
<polygon fill="midnightblue" stroke="midnightblue" points="177.71,-14.5 187.71,-11 177.71,-7.5 177.71,-14.5"/>
</g>
<!-- Node6 -->
<g id="node6" class="node">
<title>Node6</title>
<g id="a_node6"><a xlink:href="_exercise_logger_8cpp.html#ae66f6b31b5ad750f1fe042a706a4e3d4" target="_top" xlink:title=" ">
<polygon fill="white" stroke="black" points="0,-0.5 0,-21.5 42,-21.5 42,-0.5 0,-0.5"/>
<text text-anchor="middle" x="21" y="-7.9" font-family="Helvetica,sans-Serif" font-size="12.00">main</text>
</a>
</g>
</g>
<!-- Node5&#45;&gt;Node6 -->
<g id="edge5" class="edge">
<title>Node5&#45;&gt;Node6</title>
<path fill="none" stroke="midnightblue" d="M67.77,-11C58.73,-11 49.7,-11 42.08,-11"/>
<polygon fill="midnightblue" stroke="midnightblue" points="67.9,-14.5 77.9,-11 67.9,-7.5 67.9,-14.5"/>
</g>
</g>
</svg>
