<?xml version="1.0" encoding="UTF-8" standalone="no"?>
<!DOCTYPE svg PUBLIC "-//W3C//DTD SVG 1.1//EN"
 "http://www.w3.org/Graphics/SVG/1.1/DTD/svg11.dtd">
<!-- Generated by graphviz version 2.50.0 (20211204.2007)
 -->
<!-- Title: Hike Pages: 1 -->
<!--zoomable 480 -->
<svg id="main" version="1.1" xmlns="http://www.w3.org/2000/svg" xmlns:xlink="http://www.w3.org/1999/xlink" xml:space="preserve" onload="init(evt)">
<style type="text/css"><![CDATA[
.edge:hover path { stroke: red; }
.edge:hover polygon { stroke: red; fill: red; }
]]></style>
<script type="text/javascript"><![CDATA[
var edges = document.getElementsByTagName('g');
if (edges && edges.length) {
  for (var i=0;i<edges.length;i++) {
    if (edges[i].id.substr(0,4)=='edge') {
      edges[i].setAttribute('class','edge');
    }
  }
}
]]></script>
        <defs>
                <circle id="rim" cx="0" cy="0" r="7"/>
                <circle id="rim2" cx="0" cy="0" r="3.5"/>
                <g id="zoomPlus">
                        <use xlink:href="#rim" fill="#404040">
                                <set attributeName="fill" to="#808080" begin="zoomplus.mouseover" end="zoomplus.mouseout"/>
                        </use>
                        <path d="M-4,0h8M0,-4v8" fill="none" stroke="white" stroke-width="1.5" pointer-events="none"/>
                </g>
                <g id="zoomMin">
                        <use xlink:href="#rim" fill="#404040">
                                <set attributeName="fill" to="#808080" begin="zoomminus.mouseover" end="zoomminus.mouseout"/>
                        </use>
                        <path d="M-4,0h8" fill="none" stroke="white" stroke-width="1.5" pointer-events="none"/>
                </g>
                <g id="dirArrow">
                        <path fill="none" stroke="white" stroke-width="1.5" d="M0,-3.0v7 M-2.5,-0.5L0,-3.0L2.5,-0.5"/>
                </g>
               <g id="resetDef">
                       <use xlink:href="#rim2" fill="#404040">
                               <set attributeName="fill" to="#808080" begin="reset.mouseover" end="reset.mouseout"/>
                       </use>
               </g>
        </defs>

<script type="text/javascript">
var viewWidth = 168;
var viewHeight = 480;
var sectionId = 'dynsection-1';
</script>
<script xlink:href="svgpan.js"/>
<svg id="graph" class="graph">
<g id="viewport">
<title>Hike</title>
<polygon fill="white" stroke="transparent" points="-4,4 -4,-476 164,-476 164,4 -4,4"/>
<!-- Node1 -->
<g id="node1" class="node">
<title>Node1</title>
<g id="a_node1"><a xlink:title=" ">
<polygon fill="#bfbfbf" stroke="black" points="7.5,-0.5 7.5,-89.5 152.5,-89.5 152.5,-0.5 7.5,-0.5"/>
<text text-anchor="middle" x="80" y="-75.9" font-family="Helvetica,sans-Serif" font-size="12.00">Hike</text>
<polyline fill="none" stroke="black" points="7.5,-68.5 152.5,-68.5 "/>
<text text-anchor="middle" x="80" y="-54.9" font-family="Helvetica,sans-Serif" font-size="12.00"> </text>
<polyline fill="none" stroke="black" points="7.5,-47.5 152.5,-47.5 "/>
<text text-anchor="start" x="15.5" y="-33.9" font-family="Helvetica,sans-Serif" font-size="12.00">+ Hike()</text>
<text text-anchor="start" x="15.5" y="-20.9" font-family="Helvetica,sans-Serif" font-size="12.00">+ string getDataForFile()</text>
<text text-anchor="start" x="15.5" y="-7.9" font-family="Helvetica,sans-Serif" font-size="12.00">+ void display()</text>
</a>
</g>
</g>
<!-- Node2 -->
<g id="node2" class="node">
<title>Node2</title>
<g id="a_node2"><a xlink:href="class_run.html" target="_top" xlink:title=" ">
<polygon fill="white" stroke="black" points="0.5,-126.5 0.5,-306.5 159.5,-306.5 159.5,-126.5 0.5,-126.5"/>
<text text-anchor="middle" x="80" y="-292.9" font-family="Helvetica,sans-Serif" font-size="12.00">Run</text>
<polyline fill="none" stroke="black" points="0.5,-285.5 159.5,-285.5 "/>
<text text-anchor="start" x="8.5" y="-271.9" font-family="Helvetica,sans-Serif" font-size="12.00"># double distanceInKm</text>
<text text-anchor="start" x="8.5" y="-258.9" font-family="Helvetica,sans-Serif" font-size="12.00"># int timeMins</text>
<text text-anchor="start" x="8.5" y="-245.9" font-family="Helvetica,sans-Serif" font-size="12.00"># int timeSeconds</text>
<text text-anchor="start" x="8.5" y="-232.9" font-family="Helvetica,sans-Serif" font-size="12.00"># string terrain</text>
<polyline fill="none" stroke="black" points="0.5,-225.5 159.5,-225.5 "/>
<text text-anchor="start" x="8.5" y="-211.9" font-family="Helvetica,sans-Serif" font-size="12.00">+ Run()</text>
<text text-anchor="start" x="8.5" y="-198.9" font-family="Helvetica,sans-Serif" font-size="12.00">+ void addData()</text>
<text text-anchor="start" x="8.5" y="-185.9" font-family="Helvetica,sans-Serif" font-size="12.00">+ void display()</text>
<text text-anchor="start" x="8.5" y="-172.9" font-family="Helvetica,sans-Serif" font-size="12.00">+ string getDataForFile()</text>
<text text-anchor="start" x="8.5" y="-159.9" font-family="Helvetica,sans-Serif" font-size="12.00">+ void loadDataFromFile</text>
<text text-anchor="start" x="8.5" y="-146.9" font-family="Helvetica,sans-Serif" font-size="12.00">(ifstream &amp;file)</text>
<text text-anchor="start" x="8.5" y="-133.9" font-family="Helvetica,sans-Serif" font-size="12.00"># string calculateAvgPace()</text>
</a>
</g>
</g>
<!-- Node2&#45;&gt;Node1 -->
<g id="edge1" class="edge">
<title>Node2&#45;&gt;Node1</title>
<path fill="none" stroke="midnightblue" d="M80,-116.16C80,-106.91 80,-97.89 80,-89.57"/>
<polygon fill="none" stroke="midnightblue" points="76.5,-116.28 80,-126.28 83.5,-116.28 76.5,-116.28"/>
</g>
<!-- Node3 -->
<g id="node3" class="node">
<title>Node3</title>
<g id="a_node3"><a xlink:href="class_exercise.html" target="_top" xlink:title=" ">
<polygon fill="white" stroke="black" points="0,-343.5 0,-471.5 160,-471.5 160,-343.5 0,-343.5"/>
<text text-anchor="middle" x="80" y="-457.9" font-family="Helvetica,sans-Serif" font-size="12.00">Exercise</text>
<polyline fill="none" stroke="black" points="0,-450.5 160,-450.5 "/>
<text text-anchor="middle" x="80" y="-436.9" font-family="Helvetica,sans-Serif" font-size="12.00"> </text>
<polyline fill="none" stroke="black" points="0,-429.5 160,-429.5 "/>
<text text-anchor="start" x="8" y="-415.9" font-family="Helvetica,sans-Serif" font-size="12.00">+ virtual void display()=0</text>
<text text-anchor="start" x="8" y="-402.9" font-family="Helvetica,sans-Serif" font-size="12.00">+ virtual string getDataFor</text>
<text text-anchor="start" x="8" y="-389.9" font-family="Helvetica,sans-Serif" font-size="12.00">File()=0</text>
<text text-anchor="start" x="8" y="-376.9" font-family="Helvetica,sans-Serif" font-size="12.00">+ virtual void addData()=0</text>
<text text-anchor="start" x="8" y="-363.9" font-family="Helvetica,sans-Serif" font-size="12.00">+ virtual void loadDataFrom</text>
<text text-anchor="start" x="8" y="-350.9" font-family="Helvetica,sans-Serif" font-size="12.00">File(ifstream &amp;)=0</text>
</a>
</g>
</g>
<!-- Node3&#45;&gt;Node2 -->
<g id="edge2" class="edge">
<title>Node3&#45;&gt;Node2</title>
<path fill="none" stroke="midnightblue" d="M80,-333.19C80,-324.46 80,-315.47 80,-306.55"/>
<polygon fill="none" stroke="midnightblue" points="76.5,-333.3 80,-343.3 83.5,-333.3 76.5,-333.3"/>
</g>
</g>
</svg>
        <g id="navigator" transform="translate(0 0)" fill="#404254">
                <rect fill="#f2f5e9" fill-opacity="0.5" stroke="#606060" stroke-width=".5" x="0" y="0" width="60" height="60"/>
                <use id="zoomplus" xlink:href="#zoomPlus" x="17" y="9" onmousedown="handleZoom(evt,'in')"/>
                <use id="zoomminus" xlink:href="#zoomMin" x="42" y="9" onmousedown="handleZoom(evt,'out')"/>
                <use id="reset" xlink:href="#resetDef" x="30" y="36" onmousedown="handleReset()"/>
                <g id="arrowUp" xlink:href="#dirArrow" transform="translate(30 24)" onmousedown="handlePan(0,-1)">
                  <use xlink:href="#rim" fill="#404040">
                        <set attributeName="fill" to="#808080" begin="arrowUp.mouseover" end="arrowUp.mouseout"/>
                  </use>
                  <path fill="none" stroke="white" stroke-width="1.5" d="M0,-3.0v7 M-2.5,-0.5L0,-3.0L2.5,-0.5"/>
                </g>
                <g id="arrowRight" xlink:href="#dirArrow" transform="rotate(90) translate(36 -43)" onmousedown="handlePan(1,0)">
                  <use xlink:href="#rim" fill="#404040">
                        <set attributeName="fill" to="#808080" begin="arrowRight.mouseover" end="arrowRight.mouseout"/>
                  </use>
                  <path fill="none" stroke="white" stroke-width="1.5" d="M0,-3.0v7 M-2.5,-0.5L0,-3.0L2.5,-0.5"/>
                </g>
                <g id="arrowDown" xlink:href="#dirArrow" transform="rotate(180) translate(-30 -48)" onmousedown="handlePan(0,1)">
                  <use xlink:href="#rim" fill="#404040">
                        <set attributeName="fill" to="#808080" begin="arrowDown.mouseover" end="arrowDown.mouseout"/>
                  </use>
                  <path fill="none" stroke="white" stroke-width="1.5" d="M0,-3.0v7 M-2.5,-0.5L0,-3.0L2.5,-0.5"/>
                </g>
                <g id="arrowLeft" xlink:href="#dirArrow" transform="rotate(270) translate(-36 17)" onmousedown="handlePan(-1,0)">
                  <use xlink:href="#rim" fill="#404040">
                        <set attributeName="fill" to="#808080" begin="arrowLeft.mouseover" end="arrowLeft.mouseout"/>
                  </use>
                  <path fill="none" stroke="white" stroke-width="1.5" d="M0,-3.0v7 M-2.5,-0.5L0,-3.0L2.5,-0.5"/>
                </g>
        </g>
        <svg viewBox="0 0 15 15" width="100%" height="30px" preserveAspectRatio="xMaxYMin meet">
         <g id="arrow_out" transform="scale(0.3 0.3)">
          <a xlink:href="class_hike__coll__graph_org.svg" target="_base">
           <rect id="button" ry="5" rx="5" y="6" x="6" height="38" width="38"
                fill="#f2f5e9" fill-opacity="0.5" stroke="#606060" stroke-width="1.0"/>
           <path id="arrow"
             d="M 11.500037,31.436501 C 11.940474,20.09759 22.043105,11.32322 32.158766,21.979434 L 37.068811,17.246167 C 37.068811,17.246167 37.088388,32 37.088388,32 L 22.160133,31.978069 C 22.160133,31.978069 26.997745,27.140456 26.997745,27.140456 C 18.528582,18.264221 13.291696,25.230495 11.500037,31.436501 z"
             style="fill:#404040;"/>
          </a>
         </g>
        </svg>
</svg>
