<?xml version="1.0" encoding="UTF-8" standalone="no"?>
<!DOCTYPE svg PUBLIC "-//W3C//DTD SVG 1.1//EN"
 "http://www.w3.org/Graphics/SVG/1.1/DTD/svg11.dtd">
<!-- Generated by graphviz version 2.50.0 (20211204.2007)
 -->
<!-- Title: Person::addExercise Pages: 1 -->
<svg width="302pt" height="150pt"
 viewBox="0.00 0.00 302.00 150.00" xmlns="http://www.w3.org/2000/svg" xmlns:xlink="http://www.w3.org/1999/xlink">
<g id="graph0" class="graph" transform="scale(1 1) rotate(0) translate(4 146)">
<title>Person::addExercise</title>
<polygon fill="white" stroke="transparent" points="-4,4 -4,-146 298,-146 298,4 -4,4"/>
<!-- Node1 -->
<g id="node1" class="node">
<title>Node1</title>
<g id="a_node1"><a xlink:title=" ">
<polygon fill="#bfbfbf" stroke="black" points="0,-60.5 0,-81.5 126,-81.5 126,-60.5 0,-60.5"/>
<text text-anchor="middle" x="63" y="-67.9" font-family="Helvetica,sans-Serif" font-size="12.00">Person::addExercise</text>
</a>
</g>
</g>
<!-- Node2 -->
<g id="node2" class="node">
<title>Node2</title>
<g id="a_node2"><a xlink:href="class_run.html#aeda5a32098dffc91e53ee8941dc109f3" target="_top" xlink:title=" ">
<polygon fill="white" stroke="black" points="183.5,-120.5 183.5,-141.5 272.5,-141.5 272.5,-120.5 183.5,-120.5"/>
<text text-anchor="middle" x="228" y="-127.9" font-family="Helvetica,sans-Serif" font-size="12.00">Run::addData</text>
</a>
</g>
</g>
<!-- Node1&#45;&gt;Node2 -->
<g id="edge1" class="edge">
<title>Node1&#45;&gt;Node2</title>
<path fill="none" stroke="midnightblue" d="M88.33,-81.64C108.02,-90.07 136.56,-101.91 162,-111 168.06,-113.16 174.48,-115.31 180.84,-117.35"/>
<polygon fill="midnightblue" stroke="midnightblue" points="180.12,-120.8 190.71,-120.46 182.22,-114.12 180.12,-120.8"/>
</g>
<!-- Node3 -->
<g id="node3" class="node">
<title>Node3</title>
<g id="a_node3"><a xlink:href="class_swimming.html#ac0790d61cd6663f894e3aae8da15fd2d" target="_top" xlink:title=" ">
<polygon fill="white" stroke="black" points="166.5,-80.5 166.5,-101.5 289.5,-101.5 289.5,-80.5 166.5,-80.5"/>
<text text-anchor="middle" x="228" y="-87.9" font-family="Helvetica,sans-Serif" font-size="12.00">Swimming::addData</text>
</a>
</g>
</g>
<!-- Node1&#45;&gt;Node3 -->
<g id="edge2" class="edge">
<title>Node1&#45;&gt;Node3</title>
<path fill="none" stroke="midnightblue" d="M126.09,-78.62C136.01,-79.84 146.33,-81.1 156.43,-82.34"/>
<polygon fill="midnightblue" stroke="midnightblue" points="156.08,-85.82 166.43,-83.57 156.93,-78.88 156.08,-85.82"/>
</g>
<!-- Node4 -->
<g id="node4" class="node">
<title>Node4</title>
<g id="a_node4"><a xlink:href="class_weightlifting.html#a8800d964a57bbbb5ae1a2c6ca613f322" target="_top" xlink:title=" ">
<polygon fill="white" stroke="black" points="162,-40.5 162,-61.5 294,-61.5 294,-40.5 162,-40.5"/>
<text text-anchor="middle" x="228" y="-47.9" font-family="Helvetica,sans-Serif" font-size="12.00">Weightlifting::addData</text>
</a>
</g>
</g>
<!-- Node1&#45;&gt;Node4 -->
<g id="edge3" class="edge">
<title>Node1&#45;&gt;Node4</title>
<path fill="none" stroke="midnightblue" d="M126.09,-63.38C134.49,-62.35 143.19,-61.28 151.8,-60.23"/>
<polygon fill="midnightblue" stroke="midnightblue" points="152.33,-63.69 161.83,-59 151.48,-56.74 152.33,-63.69"/>
</g>
<!-- Node5 -->
<g id="node5" class="node">
<title>Node5</title>
<g id="a_node5"><a xlink:href="class_yoga.html#a6d45e2b9163ebc99a1a8cba100d8c00b" target="_top" xlink:title=" ">
<polygon fill="white" stroke="black" points="180.5,-0.5 180.5,-21.5 275.5,-21.5 275.5,-0.5 180.5,-0.5"/>
<text text-anchor="middle" x="228" y="-7.9" font-family="Helvetica,sans-Serif" font-size="12.00">Yoga::addData</text>
</a>
</g>
</g>
<!-- Node1&#45;&gt;Node5 -->
<g id="edge4" class="edge">
<title>Node1&#45;&gt;Node5</title>
<path fill="none" stroke="midnightblue" d="M88.33,-60.36C108.02,-51.93 136.56,-40.09 162,-31 168.06,-28.84 174.48,-26.69 180.84,-24.65"/>
<polygon fill="midnightblue" stroke="midnightblue" points="182.22,-27.88 190.71,-21.54 180.12,-21.2 182.22,-27.88"/>
</g>
</g>
</svg>
