<?xml version="1.0" encoding="UTF-8" standalone="no"?>
<!DOCTYPE svg PUBLIC "-//W3C//DTD SVG 1.1//EN"
 "http://www.w3.org/Graphics/SVG/1.1/DTD/svg11.dtd">
<!-- Generated by graphviz version 2.50.0 (20211204.2007)
 -->
<!-- Title: Run Pages: 1 -->
<svg width="168pt" height="354pt"
 viewBox="0.00 0.00 168.00 354.00" xmlns="http://www.w3.org/2000/svg" xmlns:xlink="http://www.w3.org/1999/xlink">
<g id="graph0" class="graph" transform="scale(1 1) rotate(0) translate(4 350)">
<title>Run</title>
<polygon fill="white" stroke="transparent" points="-4,4 -4,-350 164,-350 164,4 -4,4"/>
<!-- Node1 -->
<g id="node1" class="node">
<title>Node1</title>
<g id="a_node1"><a xlink:title=" ">
<polygon fill="#bfbfbf" stroke="black" points="0.5,-0.5 0.5,-180.5 159.5,-180.5 159.5,-0.5 0.5,-0.5"/>
<text text-anchor="middle" x="80" y="-166.9" font-family="Helvetica,sans-Serif" font-size="12.00">Run</text>
<polyline fill="none" stroke="black" points="0.5,-159.5 159.5,-159.5 "/>
<text text-anchor="start" x="8.5" y="-145.9" font-family="Helvetica,sans-Serif" font-size="12.00"># double distanceInKm</text>
<text text-anchor="start" x="8.5" y="-132.9" font-family="Helvetica,sans-Serif" font-size="12.00"># int timeMins</text>
<text text-anchor="start" x="8.5" y="-119.9" font-family="Helvetica,sans-Serif" font-size="12.00"># int timeSeconds</text>
<text text-anchor="start" x="8.5" y="-106.9" font-family="Helvetica,sans-Serif" font-size="12.00"># string terrain</text>
<polyline fill="none" stroke="black" points="0.5,-99.5 159.5,-99.5 "/>
<text text-anchor="start" x="8.5" y="-85.9" font-family="Helvetica,sans-Serif" font-size="12.00">+ Run()</text>
<text text-anchor="start" x="8.5" y="-72.9" font-family="Helvetica,sans-Serif" font-size="12.00">+ void addData()</text>
<text text-anchor="start" x="8.5" y="-59.9" font-family="Helvetica,sans-Serif" font-size="12.00">+ void display()</text>
<text text-anchor="start" x="8.5" y="-46.9" font-family="Helvetica,sans-Serif" font-size="12.00">+ string getDataForFile()</text>
<text text-anchor="start" x="8.5" y="-33.9" font-family="Helvetica,sans-Serif" font-size="12.00">+ void loadDataFromFile</text>
<text text-anchor="start" x="8.5" y="-20.9" font-family="Helvetica,sans-Serif" font-size="12.00">(ifstream &amp;file)</text>
<text text-anchor="start" x="8.5" y="-7.9" font-family="Helvetica,sans-Serif" font-size="12.00"># string calculateAvgPace()</text>
</a>
</g>
</g>
<!-- Node2 -->
<g id="node2" class="node">
<title>Node2</title>
<g id="a_node2"><a xlink:href="class_exercise.html" target="_top" xlink:title=" ">
<polygon fill="white" stroke="black" points="0,-217.5 0,-345.5 160,-345.5 160,-217.5 0,-217.5"/>
<text text-anchor="middle" x="80" y="-331.9" font-family="Helvetica,sans-Serif" font-size="12.00">Exercise</text>
<polyline fill="none" stroke="black" points="0,-324.5 160,-324.5 "/>
<text text-anchor="middle" x="80" y="-310.9" font-family="Helvetica,sans-Serif" font-size="12.00"> </text>
<polyline fill="none" stroke="black" points="0,-303.5 160,-303.5 "/>
<text text-anchor="start" x="8" y="-289.9" font-family="Helvetica,sans-Serif" font-size="12.00">+ virtual void display()=0</text>
<text text-anchor="start" x="8" y="-276.9" font-family="Helvetica,sans-Serif" font-size="12.00">+ virtual string getDataFor</text>
<text text-anchor="start" x="8" y="-263.9" font-family="Helvetica,sans-Serif" font-size="12.00">File()=0</text>
<text text-anchor="start" x="8" y="-250.9" font-family="Helvetica,sans-Serif" font-size="12.00">+ virtual void addData()=0</text>
<text text-anchor="start" x="8" y="-237.9" font-family="Helvetica,sans-Serif" font-size="12.00">+ virtual void loadDataFrom</text>
<text text-anchor="start" x="8" y="-224.9" font-family="Helvetica,sans-Serif" font-size="12.00">File(ifstream &amp;)=0</text>
</a>
</g>
</g>
<!-- Node2&#45;&gt;Node1 -->
<g id="edge1" class="edge">
<title>Node2&#45;&gt;Node1</title>
<path fill="none" stroke="midnightblue" d="M80,-207.19C80,-198.46 80,-189.47 80,-180.55"/>
<polygon fill="none" stroke="midnightblue" points="76.5,-207.3 80,-217.3 83.5,-207.3 76.5,-207.3"/>
</g>
</g>
</svg>
