<?xml version="1.0" encoding="UTF-8" standalone="no"?>
<!DOCTYPE svg PUBLIC "-//W3C//DTD SVG 1.1//EN"
 "http://www.w3.org/Graphics/SVG/1.1/DTD/svg11.dtd">
<!-- Generated by graphviz version 2.50.0 (20211204.2007)
 -->
<!-- Title: Menu::loadFromFile Pages: 1 -->
<svg width="538pt" height="110pt"
 viewBox="0.00 0.00 538.00 110.00" xmlns="http://www.w3.org/2000/svg" xmlns:xlink="http://www.w3.org/1999/xlink">
<g id="graph0" class="graph" transform="scale(1 1) rotate(0) translate(4 106)">
<title>Menu::loadFromFile</title>
<polygon fill="white" stroke="transparent" points="-4,4 -4,-106 534,-106 534,4 -4,4"/>
<!-- Node1 -->
<g id="node1" class="node">
<title>Node1</title>
<g id="a_node1"><a xlink:title=" ">
<polygon fill="#bfbfbf" stroke="black" points="0,-40.5 0,-61.5 121,-61.5 121,-40.5 0,-40.5"/>
<text text-anchor="middle" x="60.5" y="-47.9" font-family="Helvetica,sans-Serif" font-size="12.00">Menu::loadFromFile</text>
</a>
</g>
</g>
<!-- Node2 -->
<g id="node2" class="node">
<title>Node2</title>
<g id="a_node2"><a xlink:href="class_person.html#ad4703ef7c3ce2ed4ff7fbfb26ead614d" target="_top" xlink:title=" ">
<polygon fill="white" stroke="black" points="157,-40.5 157,-61.5 312,-61.5 312,-40.5 157,-40.5"/>
<text text-anchor="middle" x="234.5" y="-47.9" font-family="Helvetica,sans-Serif" font-size="12.00">Person::loadDataFromFile</text>
</a>
</g>
</g>
<!-- Node1&#45;&gt;Node2 -->
<g id="edge1" class="edge">
<title>Node1&#45;&gt;Node2</title>
<path fill="none" stroke="midnightblue" d="M121.17,-51C129.47,-51 138.13,-51 146.8,-51"/>
<polygon fill="midnightblue" stroke="midnightblue" points="146.97,-54.5 156.97,-51 146.97,-47.5 146.97,-54.5"/>
</g>
<!-- Node3 -->
<g id="node3" class="node">
<title>Node3</title>
<g id="a_node3"><a xlink:href="class_run.html#a3d526b27092ac87ccc7566846c87d311" target="_top" xlink:title=" ">
<polygon fill="white" stroke="black" points="370,-80.5 370,-101.5 508,-101.5 508,-80.5 370,-80.5"/>
<text text-anchor="middle" x="439" y="-87.9" font-family="Helvetica,sans-Serif" font-size="12.00">Run::loadDataFromFile</text>
</a>
</g>
</g>
<!-- Node2&#45;&gt;Node3 -->
<g id="edge2" class="edge">
<title>Node2&#45;&gt;Node3</title>
<path fill="none" stroke="midnightblue" d="M288.7,-61.51C315.11,-66.73 347.19,-73.06 374.83,-78.52"/>
<polygon fill="midnightblue" stroke="midnightblue" points="374.31,-81.99 384.8,-80.49 375.67,-75.12 374.31,-81.99"/>
</g>
<!-- Node4 -->
<g id="node4" class="node">
<title>Node4</title>
<g id="a_node4"><a xlink:href="class_weightlifting.html#a68980175f7047fba24f9e4621b6b2df4" target="_top" xlink:title=" ">
<polygon fill="white" stroke="black" points="348,-40.5 348,-61.5 530,-61.5 530,-40.5 348,-40.5"/>
<text text-anchor="middle" x="439" y="-47.9" font-family="Helvetica,sans-Serif" font-size="12.00">Weightlifting::loadDataFromFile</text>
</a>
</g>
</g>
<!-- Node2&#45;&gt;Node4 -->
<g id="edge3" class="edge">
<title>Node2&#45;&gt;Node4</title>
<path fill="none" stroke="midnightblue" d="M312.06,-51C320.43,-51 329.04,-51 337.64,-51"/>
<polygon fill="midnightblue" stroke="midnightblue" points="337.72,-54.5 347.72,-51 337.72,-47.5 337.72,-54.5"/>
</g>
<!-- Node5 -->
<g id="node5" class="node">
<title>Node5</title>
<g id="a_node5"><a xlink:href="class_swimming.html#ae7c9886f5ea1443dc0e7572f19fd03a9" target="_top" xlink:title=" ">
<polygon fill="white" stroke="black" points="352.5,-0.5 352.5,-21.5 525.5,-21.5 525.5,-0.5 352.5,-0.5"/>
<text text-anchor="middle" x="439" y="-7.9" font-family="Helvetica,sans-Serif" font-size="12.00">Swimming::loadDataFromFile</text>
</a>
</g>
</g>
<!-- Node2&#45;&gt;Node5 -->
<g id="edge4" class="edge">
<title>Node2&#45;&gt;Node5</title>
<path fill="none" stroke="midnightblue" d="M288.7,-40.49C315.11,-35.27 347.19,-28.94 374.83,-23.48"/>
<polygon fill="midnightblue" stroke="midnightblue" points="375.67,-26.88 384.8,-21.51 374.31,-20.01 375.67,-26.88"/>
</g>
</g>
</svg>
