<?xml version="1.0" encoding="UTF-8" standalone="no"?>
<!DOCTYPE svg PUBLIC "-//W3C//DTD SVG 1.1//EN"
 "http://www.w3.org/Graphics/SVG/1.1/DTD/svg11.dtd">
<!-- Generated by graphviz version 2.50.0 (20211204.2007)
 -->
<!-- Title: Person::loadDataFromFile Pages: 1 -->
<svg width="381pt" height="110pt"
 viewBox="0.00 0.00 381.00 110.00" xmlns="http://www.w3.org/2000/svg" xmlns:xlink="http://www.w3.org/1999/xlink">
<g id="graph0" class="graph" transform="scale(1 1) rotate(0) translate(4 106)">
<title>Person::loadDataFromFile</title>
<polygon fill="white" stroke="transparent" points="-4,4 -4,-106 377,-106 377,4 -4,4"/>
<!-- Node1 -->
<g id="node1" class="node">
<title>Node1</title>
<g id="a_node1"><a xlink:title=" ">
<polygon fill="#bfbfbf" stroke="black" points="0,-40.5 0,-61.5 155,-61.5 155,-40.5 0,-40.5"/>
<text text-anchor="middle" x="77.5" y="-47.9" font-family="Helvetica,sans-Serif" font-size="12.00">Person::loadDataFromFile</text>
</a>
</g>
</g>
<!-- Node2 -->
<g id="node2" class="node">
<title>Node2</title>
<g id="a_node2"><a xlink:href="class_run.html#a3d526b27092ac87ccc7566846c87d311" target="_top" xlink:title=" ">
<polygon fill="white" stroke="black" points="213,-80.5 213,-101.5 351,-101.5 351,-80.5 213,-80.5"/>
<text text-anchor="middle" x="282" y="-87.9" font-family="Helvetica,sans-Serif" font-size="12.00">Run::loadDataFromFile</text>
</a>
</g>
</g>
<!-- Node1&#45;&gt;Node2 -->
<g id="edge1" class="edge">
<title>Node1&#45;&gt;Node2</title>
<path fill="none" stroke="midnightblue" d="M131.7,-61.51C158.11,-66.73 190.19,-73.06 217.83,-78.52"/>
<polygon fill="midnightblue" stroke="midnightblue" points="217.31,-81.99 227.8,-80.49 218.67,-75.12 217.31,-81.99"/>
</g>
<!-- Node3 -->
<g id="node3" class="node">
<title>Node3</title>
<g id="a_node3"><a xlink:href="class_weightlifting.html#a68980175f7047fba24f9e4621b6b2df4" target="_top" xlink:title=" ">
<polygon fill="white" stroke="black" points="191,-40.5 191,-61.5 373,-61.5 373,-40.5 191,-40.5"/>
<text text-anchor="middle" x="282" y="-47.9" font-family="Helvetica,sans-Serif" font-size="12.00">Weightlifting::loadDataFromFile</text>
</a>
</g>
</g>
<!-- Node1&#45;&gt;Node3 -->
<g id="edge2" class="edge">
<title>Node1&#45;&gt;Node3</title>
<path fill="none" stroke="midnightblue" d="M155.06,-51C163.43,-51 172.04,-51 180.64,-51"/>
<polygon fill="midnightblue" stroke="midnightblue" points="180.72,-54.5 190.72,-51 180.72,-47.5 180.72,-54.5"/>
</g>
<!-- Node4 -->
<g id="node4" class="node">
<title>Node4</title>
<g id="a_node4"><a xlink:href="class_swimming.html#ae7c9886f5ea1443dc0e7572f19fd03a9" target="_top" xlink:title=" ">
<polygon fill="white" stroke="black" points="195.5,-0.5 195.5,-21.5 368.5,-21.5 368.5,-0.5 195.5,-0.5"/>
<text text-anchor="middle" x="282" y="-7.9" font-family="Helvetica,sans-Serif" font-size="12.00">Swimming::loadDataFromFile</text>
</a>
</g>
</g>
<!-- Node1&#45;&gt;Node4 -->
<g id="edge3" class="edge">
<title>Node1&#45;&gt;Node4</title>
<path fill="none" stroke="midnightblue" d="M131.7,-40.49C158.11,-35.27 190.19,-28.94 217.83,-23.48"/>
<polygon fill="midnightblue" stroke="midnightblue" points="218.67,-26.88 227.8,-21.51 217.31,-20.01 218.67,-26.88"/>
</g>
</g>
</svg>
