<?xml version="1.0" encoding="UTF-8" standalone="no"?>
<!DOCTYPE svg PUBLIC "-//W3C//DTD SVG 1.1//EN"
 "http://www.w3.org/Graphics/SVG/1.1/DTD/svg11.dtd">
<!-- Generated by graphviz version 2.50.0 (20211204.2007)
 -->
<!-- Title: Person::addExercise Pages: 1 -->
<svg width="302pt" height="110pt"
 viewBox="0.00 0.00 302.00 110.00" xmlns="http://www.w3.org/2000/svg" xmlns:xlink="http://www.w3.org/1999/xlink">
<g id="graph0" class="graph" transform="scale(1 1) rotate(0) translate(4 106)">
<title>Person::addExercise</title>
<polygon fill="white" stroke="transparent" points="-4,4 -4,-106 298,-106 298,4 -4,4"/>
<!-- Node1 -->
<g id="node1" class="node">
<title>Node1</title>
<g id="a_node1"><a xlink:title=" ">
<polygon fill="#bfbfbf" stroke="black" points="0,-40.5 0,-61.5 126,-61.5 126,-40.5 0,-40.5"/>
<text text-anchor="middle" x="63" y="-47.9" font-family="Helvetica,sans-Serif" font-size="12.00">Person::addExercise</text>
</a>
</g>
</g>
<!-- Node2 -->
<g id="node2" class="node">
<title>Node2</title>
<g id="a_node2"><a xlink:href="class_run.html#aeda5a32098dffc91e53ee8941dc109f3" target="_top" xlink:title=" ">
<polygon fill="white" stroke="black" points="183.5,-80.5 183.5,-101.5 272.5,-101.5 272.5,-80.5 183.5,-80.5"/>
<text text-anchor="middle" x="228" y="-87.9" font-family="Helvetica,sans-Serif" font-size="12.00">Run::addData</text>
</a>
</g>
</g>
<!-- Node1&#45;&gt;Node2 -->
<g id="edge1" class="edge">
<title>Node1&#45;&gt;Node2</title>
<path fill="none" stroke="midnightblue" d="M106.83,-61.51C127.52,-66.59 152.55,-72.73 174.39,-78.09"/>
<polygon fill="midnightblue" stroke="midnightblue" points="173.63,-81.51 184.18,-80.49 175.3,-74.71 173.63,-81.51"/>
</g>
<!-- Node3 -->
<g id="node3" class="node">
<title>Node3</title>
<g id="a_node3"><a xlink:href="class_weightlifting.html#a8800d964a57bbbb5ae1a2c6ca613f322" target="_top" xlink:title=" ">
<polygon fill="white" stroke="black" points="162,-40.5 162,-61.5 294,-61.5 294,-40.5 162,-40.5"/>
<text text-anchor="middle" x="228" y="-47.9" font-family="Helvetica,sans-Serif" font-size="12.00">Weightlifting::addData</text>
</a>
</g>
</g>
<!-- Node1&#45;&gt;Node3 -->
<g id="edge2" class="edge">
<title>Node1&#45;&gt;Node3</title>
<path fill="none" stroke="midnightblue" d="M126.09,-51C134.49,-51 143.19,-51 151.8,-51"/>
<polygon fill="midnightblue" stroke="midnightblue" points="151.83,-54.5 161.83,-51 151.83,-47.5 151.83,-54.5"/>
</g>
<!-- Node4 -->
<g id="node4" class="node">
<title>Node4</title>
<g id="a_node4"><a xlink:href="class_swimming.html#ac0790d61cd6663f894e3aae8da15fd2d" target="_top" xlink:title=" ">
<polygon fill="white" stroke="black" points="166.5,-0.5 166.5,-21.5 289.5,-21.5 289.5,-0.5 166.5,-0.5"/>
<text text-anchor="middle" x="228" y="-7.9" font-family="Helvetica,sans-Serif" font-size="12.00">Swimming::addData</text>
</a>
</g>
</g>
<!-- Node1&#45;&gt;Node4 -->
<g id="edge3" class="edge">
<title>Node1&#45;&gt;Node4</title>
<path fill="none" stroke="midnightblue" d="M106.83,-40.49C127.52,-35.41 152.55,-29.27 174.39,-23.91"/>
<polygon fill="midnightblue" stroke="midnightblue" points="175.3,-27.29 184.18,-21.51 173.63,-20.49 175.3,-27.29"/>
</g>
</g>
</svg>
