<?xml version="1.0" encoding="UTF-8" standalone="no"?>
<!DOCTYPE svg PUBLIC "-//W3C//DTD SVG 1.1//EN"
 "http://www.w3.org/Graphics/SVG/1.1/DTD/svg11.dtd">
<!-- Generated by graphviz version 2.50.0 (20211204.2007)
 -->
<!-- Title: Swimming Pages: 1 -->
<svg width="168pt" height="341pt"
 viewBox="0.00 0.00 168.00 341.00" xmlns="http://www.w3.org/2000/svg" xmlns:xlink="http://www.w3.org/1999/xlink">
<g id="graph0" class="graph" transform="scale(1 1) rotate(0) translate(4 337)">
<title>Swimming</title>
<polygon fill="white" stroke="transparent" points="-4,4 -4,-337 164,-337 164,4 -4,4"/>
<!-- Node1 -->
<g id="node1" class="node">
<title>Node1</title>
<g id="a_node1"><a xlink:title=" ">
<polygon fill="#bfbfbf" stroke="black" points="7,-0.5 7,-167.5 153,-167.5 153,-0.5 7,-0.5"/>
<text text-anchor="middle" x="80" y="-153.9" font-family="Helvetica,sans-Serif" font-size="12.00">Swimming</text>
<polyline fill="none" stroke="black" points="7,-146.5 153,-146.5 "/>
<text text-anchor="start" x="15" y="-132.9" font-family="Helvetica,sans-Serif" font-size="12.00">&#45; int length</text>
<text text-anchor="start" x="15" y="-119.9" font-family="Helvetica,sans-Serif" font-size="12.00">&#45; int laps</text>
<text text-anchor="start" x="15" y="-106.9" font-family="Helvetica,sans-Serif" font-size="12.00">&#45; string stroke</text>
<polyline fill="none" stroke="black" points="7,-99.5 153,-99.5 "/>
<text text-anchor="start" x="15" y="-85.9" font-family="Helvetica,sans-Serif" font-size="12.00">+ Swimming()</text>
<text text-anchor="start" x="15" y="-72.9" font-family="Helvetica,sans-Serif" font-size="12.00">+ void addData()</text>
<text text-anchor="start" x="15" y="-59.9" font-family="Helvetica,sans-Serif" font-size="12.00">+ void display()</text>
<text text-anchor="start" x="15" y="-46.9" font-family="Helvetica,sans-Serif" font-size="12.00">+ string getDataForFile()</text>
<text text-anchor="start" x="15" y="-33.9" font-family="Helvetica,sans-Serif" font-size="12.00">+ void loadDataFromFile</text>
<text text-anchor="start" x="15" y="-20.9" font-family="Helvetica,sans-Serif" font-size="12.00">(ifstream &amp;file)</text>
<text text-anchor="start" x="15" y="-7.9" font-family="Helvetica,sans-Serif" font-size="12.00">&#45; int calcTotalDistance()</text>
</a>
</g>
</g>
<!-- Node2 -->
<g id="node2" class="node">
<title>Node2</title>
<g id="a_node2"><a xlink:href="class_exercise.html" target="_top" xlink:title=" ">
<polygon fill="white" stroke="black" points="0,-204.5 0,-332.5 160,-332.5 160,-204.5 0,-204.5"/>
<text text-anchor="middle" x="80" y="-318.9" font-family="Helvetica,sans-Serif" font-size="12.00">Exercise</text>
<polyline fill="none" stroke="black" points="0,-311.5 160,-311.5 "/>
<text text-anchor="middle" x="80" y="-297.9" font-family="Helvetica,sans-Serif" font-size="12.00"> </text>
<polyline fill="none" stroke="black" points="0,-290.5 160,-290.5 "/>
<text text-anchor="start" x="8" y="-276.9" font-family="Helvetica,sans-Serif" font-size="12.00">+ virtual void display()=0</text>
<text text-anchor="start" x="8" y="-263.9" font-family="Helvetica,sans-Serif" font-size="12.00">+ virtual string getDataFor</text>
<text text-anchor="start" x="8" y="-250.9" font-family="Helvetica,sans-Serif" font-size="12.00">File()=0</text>
<text text-anchor="start" x="8" y="-237.9" font-family="Helvetica,sans-Serif" font-size="12.00">+ virtual void addData()=0</text>
<text text-anchor="start" x="8" y="-224.9" font-family="Helvetica,sans-Serif" font-size="12.00">+ virtual void loadDataFrom</text>
<text text-anchor="start" x="8" y="-211.9" font-family="Helvetica,sans-Serif" font-size="12.00">File(ifstream &amp;)=0</text>
</a>
</g>
</g>
<!-- Node2&#45;&gt;Node1 -->
<g id="edge1" class="edge">
<title>Node2&#45;&gt;Node1</title>
<path fill="none" stroke="midnightblue" d="M80,-194.29C80,-185.55 80,-176.57 80,-167.7"/>
<polygon fill="none" stroke="midnightblue" points="76.5,-194.44 80,-204.44 83.5,-194.44 76.5,-194.44"/>
</g>
</g>
</svg>
