<?xml version="1.0" encoding="UTF-8" standalone="no"?>
<!DOCTYPE svg PUBLIC "-//W3C//DTD SVG 1.1//EN"
 "http://www.w3.org/Graphics/SVG/1.1/DTD/svg11.dtd">
<!-- Generated by graphviz version 2.50.0 (20211204.2007)
 -->
<!-- Title: Exercise Pages: 1 -->
<!--zoomable 454 -->
<svg id="main" version="1.1" xmlns="http://www.w3.org/2000/svg" xmlns:xlink="http://www.w3.org/1999/xlink" xml:space="preserve" onload="init(evt)">
<style type="text/css"><![CDATA[
.edge:hover path { stroke: red; }
.edge:hover polygon { stroke: red; fill: red; }
]]></style>
<script type="text/javascript"><![CDATA[
var edges = document.getElementsByTagName('g');
if (edges && edges.length) {
  for (var i=0;i<edges.length;i++) {
    if (edges[i].id.substr(0,4)=='edge') {
      edges[i].setAttribute('class','edge');
    }
  }
}
]]></script>
        <defs>
                <circle id="rim" cx="0" cy="0" r="7"/>
                <circle id="rim2" cx="0" cy="0" r="3.5"/>
                <g id="zoomPlus">
                        <use xlink:href="#rim" fill="#404040">
                                <set attributeName="fill" to="#808080" begin="zoomplus.mouseover" end="zoomplus.mouseout"/>
                        </use>
                        <path d="M-4,0h8M0,-4v8" fill="none" stroke="white" stroke-width="1.5" pointer-events="none"/>
                </g>
                <g id="zoomMin">
                        <use xlink:href="#rim" fill="#404040">
                                <set attributeName="fill" to="#808080" begin="zoomminus.mouseover" end="zoomminus.mouseout"/>
                        </use>
                        <path d="M-4,0h8" fill="none" stroke="white" stroke-width="1.5" pointer-events="none"/>
                </g>
                <g id="dirArrow">
                        <path fill="none" stroke="white" stroke-width="1.5" d="M0,-3.0v7 M-2.5,-0.5L0,-3.0L2.5,-0.5"/>
                </g>
               <g id="resetDef">
                       <use xlink:href="#rim2" fill="#404040">
                               <set attributeName="fill" to="#808080" begin="reset.mouseover" end="reset.mouseout"/>
                       </use>
               </g>
        </defs>

<script type="text/javascript">
var viewWidth = 514;
var viewHeight = 454;
var sectionId = 'dynsection-0';
</script>
<script xlink:href="svgpan.js"/>
<svg id="graph" class="graph">
<g id="viewport">
<title>Exercise</title>
<polygon fill="white" stroke="transparent" points="-4,4 -4,-450 509.5,-450 509.5,4 -4,4"/>
<!-- Node1 -->
<g id="node1" class="node">
<title>Node1</title>
<g id="a_node1"><a xlink:title=" ">
<polygon fill="#bfbfbf" stroke="black" points="175,-343.5 175,-445.5 326,-445.5 326,-343.5 175,-343.5"/>
<text text-anchor="middle" x="250.5" y="-431.9" font-family="Helvetica,sans-Serif" font-size="12.00">Exercise</text>
<polyline fill="none" stroke="black" points="175,-424.5 326,-424.5 "/>
<text text-anchor="middle" x="250.5" y="-410.9" font-family="Helvetica,sans-Serif" font-size="12.00"> </text>
<polyline fill="none" stroke="black" points="175,-403.5 326,-403.5 "/>
<text text-anchor="start" x="183" y="-389.9" font-family="Helvetica,sans-Serif" font-size="12.00">+ virtual void display()=0</text>
<text text-anchor="start" x="183" y="-376.9" font-family="Helvetica,sans-Serif" font-size="12.00">+ virtual string getDataFor</text>
<text text-anchor="start" x="183" y="-363.9" font-family="Helvetica,sans-Serif" font-size="12.00">File()=0</text>
<text text-anchor="start" x="183" y="-350.9" font-family="Helvetica,sans-Serif" font-size="12.00">+ virtual void addData()=0</text>
</a>
</g>
</g>
<!-- Node2 -->
<g id="node2" class="node">
<title>Node2</title>
<g id="a_node2"><a xlink:href="class_run.html" target="_top" xlink:title=" ">
<polygon fill="white" stroke="black" points="0,-126.5 0,-306.5 159,-306.5 159,-126.5 0,-126.5"/>
<text text-anchor="middle" x="79.5" y="-292.9" font-family="Helvetica,sans-Serif" font-size="12.00">Run</text>
<polyline fill="none" stroke="black" points="0,-285.5 159,-285.5 "/>
<text text-anchor="start" x="8" y="-271.9" font-family="Helvetica,sans-Serif" font-size="12.00"># double distanceInKm</text>
<text text-anchor="start" x="8" y="-258.9" font-family="Helvetica,sans-Serif" font-size="12.00"># int timeMins</text>
<text text-anchor="start" x="8" y="-245.9" font-family="Helvetica,sans-Serif" font-size="12.00"># int timeSeconds</text>
<text text-anchor="start" x="8" y="-232.9" font-family="Helvetica,sans-Serif" font-size="12.00"># string terrain</text>
<polyline fill="none" stroke="black" points="0,-225.5 159,-225.5 "/>
<text text-anchor="start" x="8" y="-211.9" font-family="Helvetica,sans-Serif" font-size="12.00">+ Run()</text>
<text text-anchor="start" x="8" y="-198.9" font-family="Helvetica,sans-Serif" font-size="12.00">+ void addData()</text>
<text text-anchor="start" x="8" y="-185.9" font-family="Helvetica,sans-Serif" font-size="12.00">+ void display()</text>
<text text-anchor="start" x="8" y="-172.9" font-family="Helvetica,sans-Serif" font-size="12.00">+ string getDataForFile()</text>
<text text-anchor="start" x="8" y="-159.9" font-family="Helvetica,sans-Serif" font-size="12.00">+ void loadDataFromFile</text>
<text text-anchor="start" x="8" y="-146.9" font-family="Helvetica,sans-Serif" font-size="12.00">(ifstream &amp;file)</text>
<text text-anchor="start" x="8" y="-133.9" font-family="Helvetica,sans-Serif" font-size="12.00"># string calculateAvgPace()</text>
</a>
</g>
</g>
<!-- Node1&#45;&gt;Node2 -->
<g id="edge1" class="edge">
<title>Node1&#45;&gt;Node2</title>
<path fill="none" stroke="midnightblue" d="M194.24,-335.59C183.01,-324.04 171.02,-311.7 159.18,-299.51"/>
<polygon fill="none" stroke="midnightblue" points="192.02,-338.33 201.5,-343.07 197.04,-333.45 192.02,-338.33"/>
</g>
<!-- Node4 -->
<g id="node4" class="node">
<title>Node4</title>
<g id="a_node4"><a xlink:href="class_swimming.html" target="_top" xlink:title=" ">
<polygon fill="white" stroke="black" points="177.5,-133 177.5,-300 323.5,-300 323.5,-133 177.5,-133"/>
<text text-anchor="middle" x="250.5" y="-286.4" font-family="Helvetica,sans-Serif" font-size="12.00">Swimming</text>
<polyline fill="none" stroke="black" points="177.5,-279 323.5,-279 "/>
<text text-anchor="start" x="185.5" y="-265.4" font-family="Helvetica,sans-Serif" font-size="12.00">&#45; int length</text>
<text text-anchor="start" x="185.5" y="-252.4" font-family="Helvetica,sans-Serif" font-size="12.00">&#45; int laps</text>
<text text-anchor="start" x="185.5" y="-239.4" font-family="Helvetica,sans-Serif" font-size="12.00">&#45; string stroke</text>
<polyline fill="none" stroke="black" points="177.5,-232 323.5,-232 "/>
<text text-anchor="start" x="185.5" y="-218.4" font-family="Helvetica,sans-Serif" font-size="12.00">+ Swimming()</text>
<text text-anchor="start" x="185.5" y="-205.4" font-family="Helvetica,sans-Serif" font-size="12.00">+ void addData()</text>
<text text-anchor="start" x="185.5" y="-192.4" font-family="Helvetica,sans-Serif" font-size="12.00">+ void display()</text>
<text text-anchor="start" x="185.5" y="-179.4" font-family="Helvetica,sans-Serif" font-size="12.00">+ string getDataForFile()</text>
<text text-anchor="start" x="185.5" y="-166.4" font-family="Helvetica,sans-Serif" font-size="12.00">+ void loadDataFromFile</text>
<text text-anchor="start" x="185.5" y="-153.4" font-family="Helvetica,sans-Serif" font-size="12.00">(ifstream &amp;file)</text>
<text text-anchor="start" x="185.5" y="-140.4" font-family="Helvetica,sans-Serif" font-size="12.00">&#45; int calcTotalDistance()</text>
</a>
</g>
</g>
<!-- Node1&#45;&gt;Node4 -->
<g id="edge3" class="edge">
<title>Node1&#45;&gt;Node4</title>
<path fill="none" stroke="midnightblue" d="M250.5,-332.77C250.5,-322.25 250.5,-311.16 250.5,-300.17"/>
<polygon fill="none" stroke="midnightblue" points="247,-333.07 250.5,-343.07 254,-333.07 247,-333.07"/>
</g>
<!-- Node5 -->
<g id="node5" class="node">
<title>Node5</title>
<g id="a_node5"><a xlink:href="class_weightlifting.html" target="_top" xlink:title=" ">
<polygon fill="white" stroke="black" points="341.5,-126.5 341.5,-306.5 505.5,-306.5 505.5,-126.5 341.5,-126.5"/>
<text text-anchor="middle" x="423.5" y="-292.9" font-family="Helvetica,sans-Serif" font-size="12.00">Weightlifting</text>
<polyline fill="none" stroke="black" points="341.5,-285.5 505.5,-285.5 "/>
<text text-anchor="start" x="349.5" y="-271.9" font-family="Helvetica,sans-Serif" font-size="12.00">&#45; int weight</text>
<text text-anchor="start" x="349.5" y="-258.9" font-family="Helvetica,sans-Serif" font-size="12.00">&#45; int reps</text>
<text text-anchor="start" x="349.5" y="-245.9" font-family="Helvetica,sans-Serif" font-size="12.00">&#45; int sets</text>
<text text-anchor="start" x="349.5" y="-232.9" font-family="Helvetica,sans-Serif" font-size="12.00">&#45; string type</text>
<polyline fill="none" stroke="black" points="341.5,-225.5 505.5,-225.5 "/>
<text text-anchor="start" x="349.5" y="-211.9" font-family="Helvetica,sans-Serif" font-size="12.00">+ Weightlifting()</text>
<text text-anchor="start" x="349.5" y="-198.9" font-family="Helvetica,sans-Serif" font-size="12.00">+ void addData()</text>
<text text-anchor="start" x="349.5" y="-185.9" font-family="Helvetica,sans-Serif" font-size="12.00">+ void display()</text>
<text text-anchor="start" x="349.5" y="-172.9" font-family="Helvetica,sans-Serif" font-size="12.00">+ string getDataForFile()</text>
<text text-anchor="start" x="349.5" y="-159.9" font-family="Helvetica,sans-Serif" font-size="12.00">+ void loadDataFromFile</text>
<text text-anchor="start" x="349.5" y="-146.9" font-family="Helvetica,sans-Serif" font-size="12.00">(ifstream &amp;file)</text>
<text text-anchor="start" x="349.5" y="-133.9" font-family="Helvetica,sans-Serif" font-size="12.00">&#45; float calculateTotalWeight()</text>
</a>
</g>
</g>
<!-- Node1&#45;&gt;Node5 -->
<g id="edge4" class="edge">
<title>Node1&#45;&gt;Node5</title>
<path fill="none" stroke="midnightblue" d="M307.14,-335.88C318.06,-324.77 329.71,-312.92 341.25,-301.17"/>
<polygon fill="none" stroke="midnightblue" points="304.59,-333.48 300.07,-343.07 309.58,-338.39 304.59,-333.48"/>
</g>
<!-- Node3 -->
<g id="node3" class="node">
<title>Node3</title>
<g id="a_node3"><a xlink:href="class_hike.html" target="_top" xlink:title=" ">
<polygon fill="white" stroke="black" points="7,-0.5 7,-89.5 152,-89.5 152,-0.5 7,-0.5"/>
<text text-anchor="middle" x="79.5" y="-75.9" font-family="Helvetica,sans-Serif" font-size="12.00">Hike</text>
<polyline fill="none" stroke="black" points="7,-68.5 152,-68.5 "/>
<text text-anchor="middle" x="79.5" y="-54.9" font-family="Helvetica,sans-Serif" font-size="12.00"> </text>
<polyline fill="none" stroke="black" points="7,-47.5 152,-47.5 "/>
<text text-anchor="start" x="15" y="-33.9" font-family="Helvetica,sans-Serif" font-size="12.00">+ Hike()</text>
<text text-anchor="start" x="15" y="-20.9" font-family="Helvetica,sans-Serif" font-size="12.00">+ string getDataForFile()</text>
<text text-anchor="start" x="15" y="-7.9" font-family="Helvetica,sans-Serif" font-size="12.00">+ void display()</text>
</a>
</g>
</g>
<!-- Node2&#45;&gt;Node3 -->
<g id="edge2" class="edge">
<title>Node2&#45;&gt;Node3</title>
<path fill="none" stroke="midnightblue" d="M79.5,-116.16C79.5,-106.91 79.5,-97.89 79.5,-89.57"/>
<polygon fill="none" stroke="midnightblue" points="76,-116.28 79.5,-126.28 83,-116.28 76,-116.28"/>
</g>
</g>
</svg>
        <g id="navigator" transform="translate(0 0)" fill="#404254">
                <rect fill="#f2f5e9" fill-opacity="0.5" stroke="#606060" stroke-width=".5" x="0" y="0" width="60" height="60"/>
                <use id="zoomplus" xlink:href="#zoomPlus" x="17" y="9" onmousedown="handleZoom(evt,'in')"/>
                <use id="zoomminus" xlink:href="#zoomMin" x="42" y="9" onmousedown="handleZoom(evt,'out')"/>
                <use id="reset" xlink:href="#resetDef" x="30" y="36" onmousedown="handleReset()"/>
                <g id="arrowUp" xlink:href="#dirArrow" transform="translate(30 24)" onmousedown="handlePan(0,-1)">
                  <use xlink:href="#rim" fill="#404040">
                        <set attributeName="fill" to="#808080" begin="arrowUp.mouseover" end="arrowUp.mouseout"/>
                  </use>
                  <path fill="none" stroke="white" stroke-width="1.5" d="M0,-3.0v7 M-2.5,-0.5L0,-3.0L2.5,-0.5"/>
                </g>
                <g id="arrowRight" xlink:href="#dirArrow" transform="rotate(90) translate(36 -43)" onmousedown="handlePan(1,0)">
                  <use xlink:href="#rim" fill="#404040">
                        <set attributeName="fill" to="#808080" begin="arrowRight.mouseover" end="arrowRight.mouseout"/>
                  </use>
                  <path fill="none" stroke="white" stroke-width="1.5" d="M0,-3.0v7 M-2.5,-0.5L0,-3.0L2.5,-0.5"/>
                </g>
                <g id="arrowDown" xlink:href="#dirArrow" transform="rotate(180) translate(-30 -48)" onmousedown="handlePan(0,1)">
                  <use xlink:href="#rim" fill="#404040">
                        <set attributeName="fill" to="#808080" begin="arrowDown.mouseover" end="arrowDown.mouseout"/>
                  </use>
                  <path fill="none" stroke="white" stroke-width="1.5" d="M0,-3.0v7 M-2.5,-0.5L0,-3.0L2.5,-0.5"/>
                </g>
                <g id="arrowLeft" xlink:href="#dirArrow" transform="rotate(270) translate(-36 17)" onmousedown="handlePan(-1,0)">
                  <use xlink:href="#rim" fill="#404040">
                        <set attributeName="fill" to="#808080" begin="arrowLeft.mouseover" end="arrowLeft.mouseout"/>
                  </use>
                  <path fill="none" stroke="white" stroke-width="1.5" d="M0,-3.0v7 M-2.5,-0.5L0,-3.0L2.5,-0.5"/>
                </g>
        </g>
        <svg viewBox="0 0 15 15" width="100%" height="30px" preserveAspectRatio="xMaxYMin meet">
         <g id="arrow_out" transform="scale(0.3 0.3)">
          <a xlink:href="class_exercise__inherit__graph_org.svg" target="_base">
           <rect id="button" ry="5" rx="5" y="6" x="6" height="38" width="38"
                fill="#f2f5e9" fill-opacity="0.5" stroke="#606060" stroke-width="1.0"/>
           <path id="arrow"
             d="M 11.500037,31.436501 C 11.940474,20.09759 22.043105,11.32322 32.158766,21.979434 L 37.068811,17.246167 C 37.068811,17.246167 37.088388,32 37.088388,32 L 22.160133,31.978069 C 22.160133,31.978069 26.997745,27.140456 26.997745,27.140456 C 18.528582,18.264221 13.291696,25.230495 11.500037,31.436501 z"
             style="fill:#404040;"/>
          </a>
         </g>
        </svg>
</svg>
