<?xml version="1.0" encoding="UTF-8" standalone="no"?>
<!DOCTYPE svg PUBLIC "-//W3C//DTD SVG 1.1//EN"
 "http://www.w3.org/Graphics/SVG/1.1/DTD/svg11.dtd">
<!-- Generated by graphviz version 2.50.0 (20211204.2007)
 -->
<!-- Title: Weightlifting Pages: 1 -->
<svg width="172pt" height="328pt"
 viewBox="0.00 0.00 172.00 328.00" xmlns="http://www.w3.org/2000/svg" xmlns:xlink="http://www.w3.org/1999/xlink">
<g id="graph0" class="graph" transform="scale(1 1) rotate(0) translate(4 324)">
<title>Weightlifting</title>
<polygon fill="white" stroke="transparent" points="-4,4 -4,-324 168,-324 168,4 -4,4"/>
<!-- Node1 -->
<g id="node1" class="node">
<title>Node1</title>
<g id="a_node1"><a xlink:title=" ">
<polygon fill="#bfbfbf" stroke="black" points="0,-0.5 0,-180.5 164,-180.5 164,-0.5 0,-0.5"/>
<text text-anchor="middle" x="82" y="-166.9" font-family="Helvetica,sans-Serif" font-size="12.00">Weightlifting</text>
<polyline fill="none" stroke="black" points="0,-159.5 164,-159.5 "/>
<text text-anchor="start" x="8" y="-145.9" font-family="Helvetica,sans-Serif" font-size="12.00">&#45; int weight</text>
<text text-anchor="start" x="8" y="-132.9" font-family="Helvetica,sans-Serif" font-size="12.00">&#45; int reps</text>
<text text-anchor="start" x="8" y="-119.9" font-family="Helvetica,sans-Serif" font-size="12.00">&#45; int sets</text>
<text text-anchor="start" x="8" y="-106.9" font-family="Helvetica,sans-Serif" font-size="12.00">&#45; string type</text>
<polyline fill="none" stroke="black" points="0,-99.5 164,-99.5 "/>
<text text-anchor="start" x="8" y="-85.9" font-family="Helvetica,sans-Serif" font-size="12.00">+ Weightlifting()</text>
<text text-anchor="start" x="8" y="-72.9" font-family="Helvetica,sans-Serif" font-size="12.00">+ void addData()</text>
<text text-anchor="start" x="8" y="-59.9" font-family="Helvetica,sans-Serif" font-size="12.00">+ void display()</text>
<text text-anchor="start" x="8" y="-46.9" font-family="Helvetica,sans-Serif" font-size="12.00">+ string getDataForFile()</text>
<text text-anchor="start" x="8" y="-33.9" font-family="Helvetica,sans-Serif" font-size="12.00">+ void loadDataFromFile</text>
<text text-anchor="start" x="8" y="-20.9" font-family="Helvetica,sans-Serif" font-size="12.00">(ifstream &amp;file)</text>
<text text-anchor="start" x="8" y="-7.9" font-family="Helvetica,sans-Serif" font-size="12.00">&#45; float calculateTotalWeight()</text>
</a>
</g>
</g>
<!-- Node2 -->
<g id="node2" class="node">
<title>Node2</title>
<g id="a_node2"><a xlink:href="class_exercise.html" target="_top" xlink:title=" ">
<polygon fill="white" stroke="black" points="6.5,-217.5 6.5,-319.5 157.5,-319.5 157.5,-217.5 6.5,-217.5"/>
<text text-anchor="middle" x="82" y="-305.9" font-family="Helvetica,sans-Serif" font-size="12.00">Exercise</text>
<polyline fill="none" stroke="black" points="6.5,-298.5 157.5,-298.5 "/>
<text text-anchor="middle" x="82" y="-284.9" font-family="Helvetica,sans-Serif" font-size="12.00"> </text>
<polyline fill="none" stroke="black" points="6.5,-277.5 157.5,-277.5 "/>
<text text-anchor="start" x="14.5" y="-263.9" font-family="Helvetica,sans-Serif" font-size="12.00">+ virtual void display()=0</text>
<text text-anchor="start" x="14.5" y="-250.9" font-family="Helvetica,sans-Serif" font-size="12.00">+ virtual string getDataFor</text>
<text text-anchor="start" x="14.5" y="-237.9" font-family="Helvetica,sans-Serif" font-size="12.00">File()=0</text>
<text text-anchor="start" x="14.5" y="-224.9" font-family="Helvetica,sans-Serif" font-size="12.00">+ virtual void addData()=0</text>
</a>
</g>
</g>
<!-- Node2&#45;&gt;Node1 -->
<g id="edge1" class="edge">
<title>Node2&#45;&gt;Node1</title>
<path fill="none" stroke="midnightblue" d="M82,-206.87C82,-198.34 82,-189.43 82,-180.5"/>
<polygon fill="none" stroke="midnightblue" points="78.5,-207.07 82,-217.07 85.5,-207.07 78.5,-207.07"/>
</g>
</g>
</svg>
