<?xml version="1.0" encoding="UTF-8" standalone="no"?>
<!DOCTYPE svg PUBLIC "-//W3C//DTD SVG 1.1//EN"
 "http://www.w3.org/Graphics/SVG/1.1/DTD/svg11.dtd">
<!-- Generated by graphviz version 2.50.0 (20211204.2007)
 -->
<!-- Title: Hike Pages: 1 -->
<svg width="168pt" height="480pt"
 viewBox="0.00 0.00 168.00 480.00" xmlns="http://www.w3.org/2000/svg" xmlns:xlink="http://www.w3.org/1999/xlink">
<g id="graph0" class="graph" transform="scale(1 1) rotate(0) translate(4 476)">
<title>Hike</title>
<polygon fill="white" stroke="transparent" points="-4,4 -4,-476 164,-476 164,4 -4,4"/>
<!-- Node1 -->
<g id="node1" class="node">
<title>Node1</title>
<g id="a_node1"><a xlink:title=" ">
<polygon fill="#bfbfbf" stroke="black" points="7.5,-0.5 7.5,-89.5 152.5,-89.5 152.5,-0.5 7.5,-0.5"/>
<text text-anchor="middle" x="80" y="-75.9" font-family="Helvetica,sans-Serif" font-size="12.00">Hike</text>
<polyline fill="none" stroke="black" points="7.5,-68.5 152.5,-68.5 "/>
<text text-anchor="middle" x="80" y="-54.9" font-family="Helvetica,sans-Serif" font-size="12.00"> </text>
<polyline fill="none" stroke="black" points="7.5,-47.5 152.5,-47.5 "/>
<text text-anchor="start" x="15.5" y="-33.9" font-family="Helvetica,sans-Serif" font-size="12.00">+ Hike()</text>
<text text-anchor="start" x="15.5" y="-20.9" font-family="Helvetica,sans-Serif" font-size="12.00">+ string getDataForFile()</text>
<text text-anchor="start" x="15.5" y="-7.9" font-family="Helvetica,sans-Serif" font-size="12.00">+ void display()</text>
</a>
</g>
</g>
<!-- Node2 -->
<g id="node2" class="node">
<title>Node2</title>
<g id="a_node2"><a xlink:href="class_run.html" target="_top" xlink:title=" ">
<polygon fill="white" stroke="black" points="0.5,-126.5 0.5,-306.5 159.5,-306.5 159.5,-126.5 0.5,-126.5"/>
<text text-anchor="middle" x="80" y="-292.9" font-family="Helvetica,sans-Serif" font-size="12.00">Run</text>
<polyline fill="none" stroke="black" points="0.5,-285.5 159.5,-285.5 "/>
<text text-anchor="start" x="8.5" y="-271.9" font-family="Helvetica,sans-Serif" font-size="12.00"># double distanceInKm</text>
<text text-anchor="start" x="8.5" y="-258.9" font-family="Helvetica,sans-Serif" font-size="12.00"># int timeMins</text>
<text text-anchor="start" x="8.5" y="-245.9" font-family="Helvetica,sans-Serif" font-size="12.00"># int timeSeconds</text>
<text text-anchor="start" x="8.5" y="-232.9" font-family="Helvetica,sans-Serif" font-size="12.00"># string terrain</text>
<polyline fill="none" stroke="black" points="0.5,-225.5 159.5,-225.5 "/>
<text text-anchor="start" x="8.5" y="-211.9" font-family="Helvetica,sans-Serif" font-size="12.00">+ Run()</text>
<text text-anchor="start" x="8.5" y="-198.9" font-family="Helvetica,sans-Serif" font-size="12.00">+ void addData()</text>
<text text-anchor="start" x="8.5" y="-185.9" font-family="Helvetica,sans-Serif" font-size="12.00">+ void display()</text>
<text text-anchor="start" x="8.5" y="-172.9" font-family="Helvetica,sans-Serif" font-size="12.00">+ string getDataForFile()</text>
<text text-anchor="start" x="8.5" y="-159.9" font-family="Helvetica,sans-Serif" font-size="12.00">+ void loadDataFromFile</text>
<text text-anchor="start" x="8.5" y="-146.9" font-family="Helvetica,sans-Serif" font-size="12.00">(ifstream &amp;file)</text>
<text text-anchor="start" x="8.5" y="-133.9" font-family="Helvetica,sans-Serif" font-size="12.00"># string calculateAvgPace()</text>
</a>
</g>
</g>
<!-- Node2&#45;&gt;Node1 -->
<g id="edge1" class="edge">
<title>Node2&#45;&gt;Node1</title>
<path fill="none" stroke="midnightblue" d="M80,-116.16C80,-106.91 80,-97.89 80,-89.57"/>
<polygon fill="none" stroke="midnightblue" points="76.5,-116.28 80,-126.28 83.5,-116.28 76.5,-116.28"/>
</g>
<!-- Node3 -->
<g id="node3" class="node">
<title>Node3</title>
<g id="a_node3"><a xlink:href="class_exercise.html" target="_top" xlink:title=" ">
<polygon fill="white" stroke="black" points="0,-343.5 0,-471.5 160,-471.5 160,-343.5 0,-343.5"/>
<text text-anchor="middle" x="80" y="-457.9" font-family="Helvetica,sans-Serif" font-size="12.00">Exercise</text>
<polyline fill="none" stroke="black" points="0,-450.5 160,-450.5 "/>
<text text-anchor="middle" x="80" y="-436.9" font-family="Helvetica,sans-Serif" font-size="12.00"> </text>
<polyline fill="none" stroke="black" points="0,-429.5 160,-429.5 "/>
<text text-anchor="start" x="8" y="-415.9" font-family="Helvetica,sans-Serif" font-size="12.00">+ virtual void display()=0</text>
<text text-anchor="start" x="8" y="-402.9" font-family="Helvetica,sans-Serif" font-size="12.00">+ virtual string getDataFor</text>
<text text-anchor="start" x="8" y="-389.9" font-family="Helvetica,sans-Serif" font-size="12.00">File()=0</text>
<text text-anchor="start" x="8" y="-376.9" font-family="Helvetica,sans-Serif" font-size="12.00">+ virtual void addData()=0</text>
<text text-anchor="start" x="8" y="-363.9" font-family="Helvetica,sans-Serif" font-size="12.00">+ virtual void loadDataFrom</text>
<text text-anchor="start" x="8" y="-350.9" font-family="Helvetica,sans-Serif" font-size="12.00">File(ifstream &amp;)=0</text>
</a>
</g>
</g>
<!-- Node3&#45;&gt;Node2 -->
<g id="edge2" class="edge">
<title>Node3&#45;&gt;Node2</title>
<path fill="none" stroke="midnightblue" d="M80,-333.19C80,-324.46 80,-315.47 80,-306.55"/>
<polygon fill="none" stroke="midnightblue" points="76.5,-333.3 80,-343.3 83.5,-333.3 76.5,-333.3"/>
</g>
</g>
</svg>
