<?xml version="1.0" encoding="UTF-8" standalone="no"?>
<!DOCTYPE svg PUBLIC "-//W3C//DTD SVG 1.1//EN"
 "http://www.w3.org/Graphics/SVG/1.1/DTD/svg11.dtd">
<!-- Generated by graphviz version 2.50.0 (20211204.2007)
 -->
<!-- Title: Menu::start Pages: 1 -->
<svg width="835pt" height="270pt"
 viewBox="0.00 0.00 835.00 270.00" xmlns="http://www.w3.org/2000/svg" xmlns:xlink="http://www.w3.org/1999/xlink">
<g id="graph0" class="graph" transform="scale(1 1) rotate(0) translate(4 266)">
<title>Menu::start</title>
<polygon fill="white" stroke="transparent" points="-4,4 -4,-266 831,-266 831,4 -4,4"/>
<!-- Node1 -->
<g id="node1" class="node">
<title>Node1</title>
<g id="a_node1"><a xlink:title=" ">
<polygon fill="#bfbfbf" stroke="black" points="0,-120.5 0,-141.5 74,-141.5 74,-120.5 0,-120.5"/>
<text text-anchor="middle" x="37" y="-127.9" font-family="Helvetica,sans-Serif" font-size="12.00">Menu::start</text>
</a>
</g>
</g>
<!-- Node2 -->
<g id="node2" class="node">
<title>Node2</title>
<g id="a_node2"><a xlink:href="class_menu.html#a70673c67e9c671ec8930868f90467760" target="_top" xlink:title=" ">
<polygon fill="white" stroke="black" points="110,-240.5 110,-261.5 250,-261.5 250,-240.5 110,-240.5"/>
<text text-anchor="middle" x="180" y="-247.9" font-family="Helvetica,sans-Serif" font-size="12.00">Menu::addNewExercise</text>
</a>
</g>
</g>
<!-- Node1&#45;&gt;Node2 -->
<g id="edge1" class="edge">
<title>Node1&#45;&gt;Node2</title>
<path fill="none" stroke="midnightblue" d="M42.66,-141.55C52.23,-161.98 76.09,-207.07 110,-231 112.7,-232.91 115.58,-234.63 118.58,-236.19"/>
<polygon fill="midnightblue" stroke="midnightblue" points="117.28,-239.45 127.84,-240.41 120.18,-233.08 117.28,-239.45"/>
</g>
<!-- Node4 -->
<g id="node4" class="node">
<title>Node4</title>
<g id="a_node4"><a xlink:href="class_menu.html#aa7ebe69aba410a13a88ccde79a5c7f3f" target="_top" xlink:title=" ">
<polygon fill="white" stroke="black" points="114,-120.5 114,-141.5 246,-141.5 246,-120.5 114,-120.5"/>
<text text-anchor="middle" x="180" y="-127.9" font-family="Helvetica,sans-Serif" font-size="12.00">Menu::addNewPerson</text>
</a>
</g>
</g>
<!-- Node1&#45;&gt;Node4 -->
<g id="edge3" class="edge">
<title>Node1&#45;&gt;Node4</title>
<path fill="none" stroke="midnightblue" d="M74.31,-131C83.37,-131 93.42,-131 103.61,-131"/>
<polygon fill="midnightblue" stroke="midnightblue" points="103.81,-134.5 113.81,-131 103.81,-127.5 103.81,-134.5"/>
</g>
<!-- Node11 -->
<g id="node11" class="node">
<title>Node11</title>
<g id="a_node11"><a xlink:href="class_menu.html#ab24a09633db8d1be3bcd84adf059f0d6" target="_top" xlink:title=" ">
<polygon fill="white" stroke="black" points="126,-200.5 126,-221.5 234,-221.5 234,-200.5 126,-200.5"/>
<text text-anchor="middle" x="180" y="-207.9" font-family="Helvetica,sans-Serif" font-size="12.00">Menu::editPerson</text>
</a>
</g>
</g>
<!-- Node1&#45;&gt;Node11 -->
<g id="edge10" class="edge">
<title>Node1&#45;&gt;Node11</title>
<path fill="none" stroke="midnightblue" d="M48.19,-141.9C61.28,-155.3 85.29,-177.87 110,-191 114.19,-193.22 118.65,-195.23 123.21,-197.03"/>
<polygon fill="midnightblue" stroke="midnightblue" points="122.08,-200.34 132.68,-200.45 124.46,-193.76 122.08,-200.34"/>
</g>
<!-- Node12 -->
<g id="node12" class="node">
<title>Node12</title>
<g id="a_node12"><a xlink:href="class_menu.html#af9f654347310d43ee1cb2ddbefbee9df" target="_top" xlink:title=" ">
<polygon fill="white" stroke="black" points="119.5,-80.5 119.5,-101.5 240.5,-101.5 240.5,-80.5 119.5,-80.5"/>
<text text-anchor="middle" x="180" y="-87.9" font-family="Helvetica,sans-Serif" font-size="12.00">Menu::loadFromFile</text>
</a>
</g>
</g>
<!-- Node1&#45;&gt;Node12 -->
<g id="edge12" class="edge">
<title>Node1&#45;&gt;Node12</title>
<path fill="none" stroke="midnightblue" d="M74.31,-120.7C91.88,-115.72 113.18,-109.67 131.98,-104.34"/>
<polygon fill="midnightblue" stroke="midnightblue" points="133.16,-107.64 141.83,-101.54 131.25,-100.91 133.16,-107.64"/>
</g>
<!-- Node18 -->
<g id="node18" class="node">
<title>Node18</title>
<g id="a_node18"><a xlink:href="class_menu.html#a5a974ab9c87b95a19770f94b3eb5066f" target="_top" xlink:title=" ">
<polygon fill="white" stroke="black" points="121,-40.5 121,-61.5 239,-61.5 239,-40.5 121,-40.5"/>
<text text-anchor="middle" x="180" y="-47.9" font-family="Helvetica,sans-Serif" font-size="12.00">Menu::saveAndQuit</text>
</a>
</g>
</g>
<!-- Node1&#45;&gt;Node18 -->
<g id="edge18" class="edge">
<title>Node1&#45;&gt;Node18</title>
<path fill="none" stroke="midnightblue" d="M48.19,-120.1C61.28,-106.7 85.29,-84.13 110,-71 114.19,-68.78 118.65,-66.77 123.21,-64.97"/>
<polygon fill="midnightblue" stroke="midnightblue" points="124.46,-68.24 132.68,-61.55 122.08,-61.66 124.46,-68.24"/>
</g>
<!-- Node19 -->
<g id="node19" class="node">
<title>Node19</title>
<g id="a_node19"><a xlink:href="class_menu.html#a2298302836fd3658f43d74d1bc6b9a29" target="_top" xlink:title=" ">
<polygon fill="white" stroke="black" points="309,-21.5 309,-42.5 418,-42.5 418,-21.5 309,-21.5"/>
<text text-anchor="middle" x="363.5" y="-28.9" font-family="Helvetica,sans-Serif" font-size="12.00">Menu::writeToFile</text>
</a>
</g>
</g>
<!-- Node1&#45;&gt;Node19 -->
<g id="edge22" class="edge">
<title>Node1&#45;&gt;Node19</title>
<path fill="none" stroke="midnightblue" d="M41.86,-120.25C50.3,-98.58 72.68,-50.12 110,-31 174.51,2.04 261.02,-8.01 314.2,-19.28"/>
<polygon fill="midnightblue" stroke="midnightblue" points="313.53,-22.72 324.05,-21.46 315.05,-15.88 313.53,-22.72"/>
</g>
<!-- Node20 -->
<g id="node20" class="node">
<title>Node20</title>
<g id="a_node20"><a xlink:href="class_menu.html#a8196e617d71a059fc968f522eed4c4ca" target="_top" xlink:title=" ">
<polygon fill="white" stroke="black" points="122,-160.5 122,-181.5 238,-181.5 238,-160.5 122,-160.5"/>
<text text-anchor="middle" x="180" y="-167.9" font-family="Helvetica,sans-Serif" font-size="12.00">Menu::showPerson</text>
</a>
</g>
</g>
<!-- Node1&#45;&gt;Node20 -->
<g id="edge20" class="edge">
<title>Node1&#45;&gt;Node20</title>
<path fill="none" stroke="midnightblue" d="M74.31,-141.3C91.88,-146.28 113.18,-152.33 131.98,-157.66"/>
<polygon fill="midnightblue" stroke="midnightblue" points="131.25,-161.09 141.83,-160.46 133.16,-154.36 131.25,-161.09"/>
</g>
<!-- Node3 -->
<g id="node3" class="node">
<title>Node3</title>
<g id="a_node3"><a xlink:href="class_menu.html#abd3f594403e9f8acc62d5b3f2e394ddc" target="_top" xlink:title=" ">
<polygon fill="white" stroke="black" points="290.5,-200.5 290.5,-221.5 436.5,-221.5 436.5,-200.5 290.5,-200.5"/>
<text text-anchor="middle" x="363.5" y="-207.9" font-family="Helvetica,sans-Serif" font-size="12.00">Menu::printPersonVector</text>
</a>
</g>
</g>
<!-- Node2&#45;&gt;Node3 -->
<g id="edge2" class="edge">
<title>Node2&#45;&gt;Node3</title>
<path fill="none" stroke="midnightblue" d="M228.69,-240.49C252.04,-235.34 280.35,-229.1 304.9,-223.69"/>
<polygon fill="midnightblue" stroke="midnightblue" points="305.8,-227.08 314.82,-221.51 304.3,-220.24 305.8,-227.08"/>
</g>
<!-- Node5 -->
<g id="node5" class="node">
<title>Node5</title>
<g id="a_node5"><a xlink:href="class_person.html#ac2d03633c439fe91ee1b00b28dda0f34" target="_top" xlink:title=" ">
<polygon fill="white" stroke="black" points="310.5,-140.5 310.5,-161.5 416.5,-161.5 416.5,-140.5 310.5,-140.5"/>
<text text-anchor="middle" x="363.5" y="-147.9" font-family="Helvetica,sans-Serif" font-size="12.00">Person::addData</text>
</a>
</g>
</g>
<!-- Node4&#45;&gt;Node5 -->
<g id="edge4" class="edge">
<title>Node4&#45;&gt;Node5</title>
<path fill="none" stroke="midnightblue" d="M246.01,-138.16C263.7,-140.11 282.81,-142.22 300.33,-144.15"/>
<polygon fill="midnightblue" stroke="midnightblue" points="300.12,-147.65 310.44,-145.26 300.89,-140.69 300.12,-147.65"/>
</g>
<!-- Node6 -->
<g id="node6" class="node">
<title>Node6</title>
<g id="a_node6"><a xlink:href="class_person.html#a26a9c92ced3166b11140e0bda83b1eb3" target="_top" xlink:title=" ">
<polygon fill="white" stroke="black" points="505,-160.5 505,-181.5 631,-181.5 631,-160.5 505,-160.5"/>
<text text-anchor="middle" x="568" y="-167.9" font-family="Helvetica,sans-Serif" font-size="12.00">Person::addExercise</text>
</a>
</g>
</g>
<!-- Node5&#45;&gt;Node6 -->
<g id="edge5" class="edge">
<title>Node5&#45;&gt;Node6</title>
<path fill="none" stroke="midnightblue" d="M416.65,-156.15C440.44,-158.5 469.01,-161.32 494.82,-163.87"/>
<polygon fill="midnightblue" stroke="midnightblue" points="494.64,-167.37 504.94,-164.87 495.33,-160.4 494.64,-167.37"/>
</g>
<!-- Node7 -->
<g id="node7" class="node">
<title>Node7</title>
<g id="a_node7"><a xlink:href="class_run.html#aeda5a32098dffc91e53ee8941dc109f3" target="_top" xlink:title=" ">
<polygon fill="white" stroke="black" points="716.5,-220.5 716.5,-241.5 805.5,-241.5 805.5,-220.5 716.5,-220.5"/>
<text text-anchor="middle" x="761" y="-227.9" font-family="Helvetica,sans-Serif" font-size="12.00">Run::addData</text>
</a>
</g>
</g>
<!-- Node6&#45;&gt;Node7 -->
<g id="edge6" class="edge">
<title>Node6&#45;&gt;Node7</title>
<path fill="none" stroke="midnightblue" d="M601.87,-181.52C627.28,-189.64 663.35,-201.11 695,-211 701.66,-213.08 708.72,-215.27 715.62,-217.4"/>
<polygon fill="midnightblue" stroke="midnightblue" points="714.99,-220.87 725.57,-220.47 717.05,-214.18 714.99,-220.87"/>
</g>
<!-- Node8 -->
<g id="node8" class="node">
<title>Node8</title>
<g id="a_node8"><a xlink:href="class_swimming.html#ac0790d61cd6663f894e3aae8da15fd2d" target="_top" xlink:title=" ">
<polygon fill="white" stroke="black" points="699.5,-180.5 699.5,-201.5 822.5,-201.5 822.5,-180.5 699.5,-180.5"/>
<text text-anchor="middle" x="761" y="-187.9" font-family="Helvetica,sans-Serif" font-size="12.00">Swimming::addData</text>
</a>
</g>
</g>
<!-- Node6&#45;&gt;Node8 -->
<g id="edge7" class="edge">
<title>Node6&#45;&gt;Node8</title>
<path fill="none" stroke="midnightblue" d="M631.01,-177.49C649.57,-179.44 670.06,-181.58 689.14,-183.58"/>
<polygon fill="midnightblue" stroke="midnightblue" points="688.97,-187.08 699.28,-184.64 689.7,-180.12 688.97,-187.08"/>
</g>
<!-- Node9 -->
<g id="node9" class="node">
<title>Node9</title>
<g id="a_node9"><a xlink:href="class_weightlifting.html#a8800d964a57bbbb5ae1a2c6ca613f322" target="_top" xlink:title=" ">
<polygon fill="white" stroke="black" points="695,-140.5 695,-161.5 827,-161.5 827,-140.5 695,-140.5"/>
<text text-anchor="middle" x="761" y="-147.9" font-family="Helvetica,sans-Serif" font-size="12.00">Weightlifting::addData</text>
</a>
</g>
</g>
<!-- Node6&#45;&gt;Node9 -->
<g id="edge8" class="edge">
<title>Node6&#45;&gt;Node9</title>
<path fill="none" stroke="midnightblue" d="M631.01,-164.51C648.04,-162.72 666.69,-160.77 684.39,-158.92"/>
<polygon fill="midnightblue" stroke="midnightblue" points="685.1,-162.36 694.69,-157.84 684.37,-155.4 685.1,-162.36"/>
</g>
<!-- Node10 -->
<g id="node10" class="node">
<title>Node10</title>
<g id="a_node10"><a xlink:href="class_yoga.html#a6d45e2b9163ebc99a1a8cba100d8c00b" target="_top" xlink:title=" ">
<polygon fill="white" stroke="black" points="713.5,-100.5 713.5,-121.5 808.5,-121.5 808.5,-100.5 713.5,-100.5"/>
<text text-anchor="middle" x="761" y="-107.9" font-family="Helvetica,sans-Serif" font-size="12.00">Yoga::addData</text>
</a>
</g>
</g>
<!-- Node6&#45;&gt;Node10 -->
<g id="edge9" class="edge">
<title>Node6&#45;&gt;Node10</title>
<path fill="none" stroke="midnightblue" d="M627.82,-160.5C638.36,-157.9 649.12,-154.75 659,-151 676.11,-144.5 678.16,-138.17 695,-131 700.16,-128.8 705.64,-126.73 711.15,-124.82"/>
<polygon fill="midnightblue" stroke="midnightblue" points="712.64,-128.01 721.03,-121.54 710.43,-121.36 712.64,-128.01"/>
</g>
<!-- Node11&#45;&gt;Node3 -->
<g id="edge11" class="edge">
<title>Node11&#45;&gt;Node3</title>
<path fill="none" stroke="midnightblue" d="M234.47,-211C248.8,-211 264.62,-211 280.12,-211"/>
<polygon fill="midnightblue" stroke="midnightblue" points="280.24,-214.5 290.24,-211 280.24,-207.5 280.24,-214.5"/>
</g>
<!-- Node13 -->
<g id="node13" class="node">
<title>Node13</title>
<g id="a_node13"><a xlink:href="class_person.html#ad4703ef7c3ce2ed4ff7fbfb26ead614d" target="_top" xlink:title=" ">
<polygon fill="white" stroke="black" points="286,-80.5 286,-101.5 441,-101.5 441,-80.5 286,-80.5"/>
<text text-anchor="middle" x="363.5" y="-87.9" font-family="Helvetica,sans-Serif" font-size="12.00">Person::loadDataFromFile</text>
</a>
</g>
</g>
<!-- Node12&#45;&gt;Node13 -->
<g id="edge13" class="edge">
<title>Node12&#45;&gt;Node13</title>
<path fill="none" stroke="midnightblue" d="M240.68,-91C251.87,-91 263.77,-91 275.59,-91"/>
<polygon fill="midnightblue" stroke="midnightblue" points="275.93,-94.5 285.93,-91 275.93,-87.5 275.93,-94.5"/>
</g>
<!-- Node14 -->
<g id="node14" class="node">
<title>Node14</title>
<g id="a_node14"><a xlink:href="class_yoga.html#a97aaa961fd71deb8450b2b6acdd6de94" target="_top" xlink:title=" ">
<polygon fill="white" stroke="black" points="495.5,-120.5 495.5,-141.5 640.5,-141.5 640.5,-120.5 495.5,-120.5"/>
<text text-anchor="middle" x="568" y="-127.9" font-family="Helvetica,sans-Serif" font-size="12.00">Yoga::loadDataFromFile</text>
</a>
</g>
</g>
<!-- Node13&#45;&gt;Node14 -->
<g id="edge14" class="edge">
<title>Node13&#45;&gt;Node14</title>
<path fill="none" stroke="midnightblue" d="M417.7,-101.51C444.11,-106.73 476.19,-113.06 503.83,-118.52"/>
<polygon fill="midnightblue" stroke="midnightblue" points="503.31,-121.99 513.8,-120.49 504.67,-115.12 503.31,-121.99"/>
</g>
<!-- Node15 -->
<g id="node15" class="node">
<title>Node15</title>
<g id="a_node15"><a xlink:href="class_run.html#a3d526b27092ac87ccc7566846c87d311" target="_top" xlink:title=" ">
<polygon fill="white" stroke="black" points="499,-80.5 499,-101.5 637,-101.5 637,-80.5 499,-80.5"/>
<text text-anchor="middle" x="568" y="-87.9" font-family="Helvetica,sans-Serif" font-size="12.00">Run::loadDataFromFile</text>
</a>
</g>
</g>
<!-- Node13&#45;&gt;Node15 -->
<g id="edge15" class="edge">
<title>Node13&#45;&gt;Node15</title>
<path fill="none" stroke="midnightblue" d="M441.06,-91C456.68,-91 473.13,-91 488.8,-91"/>
<polygon fill="midnightblue" stroke="midnightblue" points="488.98,-94.5 498.98,-91 488.98,-87.5 488.98,-94.5"/>
</g>
<!-- Node16 -->
<g id="node16" class="node">
<title>Node16</title>
<g id="a_node16"><a xlink:href="class_swimming.html#ae7c9886f5ea1443dc0e7572f19fd03a9" target="_top" xlink:title=" ">
<polygon fill="white" stroke="black" points="481.5,-40.5 481.5,-61.5 654.5,-61.5 654.5,-40.5 481.5,-40.5"/>
<text text-anchor="middle" x="568" y="-47.9" font-family="Helvetica,sans-Serif" font-size="12.00">Swimming::loadDataFromFile</text>
</a>
</g>
</g>
<!-- Node13&#45;&gt;Node16 -->
<g id="edge16" class="edge">
<title>Node13&#45;&gt;Node16</title>
<path fill="none" stroke="midnightblue" d="M417.7,-80.49C444.11,-75.27 476.19,-68.94 503.83,-63.48"/>
<polygon fill="midnightblue" stroke="midnightblue" points="504.67,-66.88 513.8,-61.51 503.31,-60.01 504.67,-66.88"/>
</g>
<!-- Node17 -->
<g id="node17" class="node">
<title>Node17</title>
<g id="a_node17"><a xlink:href="class_weightlifting.html#a68980175f7047fba24f9e4621b6b2df4" target="_top" xlink:title=" ">
<polygon fill="white" stroke="black" points="477,-0.5 477,-21.5 659,-21.5 659,-0.5 477,-0.5"/>
<text text-anchor="middle" x="568" y="-7.9" font-family="Helvetica,sans-Serif" font-size="12.00">Weightlifting::loadDataFromFile</text>
</a>
</g>
</g>
<!-- Node13&#45;&gt;Node17 -->
<g id="edge17" class="edge">
<title>Node13&#45;&gt;Node17</title>
<path fill="none" stroke="midnightblue" d="M386.1,-80.39C401.52,-72.73 422.68,-62 441,-52 457.26,-43.12 459.75,-37.76 477,-31 483.41,-28.49 490.2,-26.26 497.07,-24.28"/>
<polygon fill="midnightblue" stroke="midnightblue" points="498.41,-27.55 507.16,-21.57 496.59,-20.79 498.41,-27.55"/>
</g>
<!-- Node18&#45;&gt;Node19 -->
<g id="edge19" class="edge">
<title>Node18&#45;&gt;Node19</title>
<path fill="none" stroke="midnightblue" d="M239.18,-44.91C258.25,-42.91 279.53,-40.69 298.98,-38.65"/>
<polygon fill="midnightblue" stroke="midnightblue" points="299.38,-42.13 308.96,-37.6 298.65,-35.16 299.38,-42.13"/>
</g>
<!-- Node20&#45;&gt;Node3 -->
<g id="edge21" class="edge">
<title>Node20&#45;&gt;Node3</title>
<path fill="none" stroke="midnightblue" d="M228.69,-181.51C252.04,-186.66 280.35,-192.9 304.9,-198.31"/>
<polygon fill="midnightblue" stroke="midnightblue" points="304.3,-201.76 314.82,-200.49 305.8,-194.92 304.3,-201.76"/>
</g>
</g>
</svg>
