<?xml version="1.0" encoding="UTF-8" standalone="no"?>
<!DOCTYPE svg PUBLIC "-//W3C//DTD SVG 1.1//EN"
 "http://www.w3.org/Graphics/SVG/1.1/DTD/svg11.dtd">
<!-- Generated by graphviz version 2.50.0 (20211204.2007)
 -->
<!-- Title: Run Pages: 1 -->
<svg width="167pt" height="328pt"
 viewBox="0.00 0.00 167.00 328.00" xmlns="http://www.w3.org/2000/svg" xmlns:xlink="http://www.w3.org/1999/xlink">
<g id="graph0" class="graph" transform="scale(1 1) rotate(0) translate(4 324)">
<title>Run</title>
<polygon fill="white" stroke="transparent" points="-4,4 -4,-324 163,-324 163,4 -4,4"/>
<!-- Node1 -->
<g id="node1" class="node">
<title>Node1</title>
<g id="a_node1"><a xlink:title=" ">
<polygon fill="#bfbfbf" stroke="black" points="0,-0.5 0,-180.5 159,-180.5 159,-0.5 0,-0.5"/>
<text text-anchor="middle" x="79.5" y="-166.9" font-family="Helvetica,sans-Serif" font-size="12.00">Run</text>
<polyline fill="none" stroke="black" points="0,-159.5 159,-159.5 "/>
<text text-anchor="start" x="8" y="-145.9" font-family="Helvetica,sans-Serif" font-size="12.00"># double distanceInKm</text>
<text text-anchor="start" x="8" y="-132.9" font-family="Helvetica,sans-Serif" font-size="12.00"># int timeMins</text>
<text text-anchor="start" x="8" y="-119.9" font-family="Helvetica,sans-Serif" font-size="12.00"># int timeSeconds</text>
<text text-anchor="start" x="8" y="-106.9" font-family="Helvetica,sans-Serif" font-size="12.00"># string terrain</text>
<polyline fill="none" stroke="black" points="0,-99.5 159,-99.5 "/>
<text text-anchor="start" x="8" y="-85.9" font-family="Helvetica,sans-Serif" font-size="12.00">+ Run()</text>
<text text-anchor="start" x="8" y="-72.9" font-family="Helvetica,sans-Serif" font-size="12.00">+ void addData()</text>
<text text-anchor="start" x="8" y="-59.9" font-family="Helvetica,sans-Serif" font-size="12.00">+ void display()</text>
<text text-anchor="start" x="8" y="-46.9" font-family="Helvetica,sans-Serif" font-size="12.00">+ string getDataForFile()</text>
<text text-anchor="start" x="8" y="-33.9" font-family="Helvetica,sans-Serif" font-size="12.00">+ void loadDataFromFile</text>
<text text-anchor="start" x="8" y="-20.9" font-family="Helvetica,sans-Serif" font-size="12.00">(ifstream &amp;file)</text>
<text text-anchor="start" x="8" y="-7.9" font-family="Helvetica,sans-Serif" font-size="12.00"># string calculateAvgPace()</text>
</a>
</g>
</g>
<!-- Node2 -->
<g id="node2" class="node">
<title>Node2</title>
<g id="a_node2"><a xlink:href="class_exercise.html" target="_top" xlink:title=" ">
<polygon fill="white" stroke="black" points="4,-217.5 4,-319.5 155,-319.5 155,-217.5 4,-217.5"/>
<text text-anchor="middle" x="79.5" y="-305.9" font-family="Helvetica,sans-Serif" font-size="12.00">Exercise</text>
<polyline fill="none" stroke="black" points="4,-298.5 155,-298.5 "/>
<text text-anchor="middle" x="79.5" y="-284.9" font-family="Helvetica,sans-Serif" font-size="12.00"> </text>
<polyline fill="none" stroke="black" points="4,-277.5 155,-277.5 "/>
<text text-anchor="start" x="12" y="-263.9" font-family="Helvetica,sans-Serif" font-size="12.00">+ virtual void display()=0</text>
<text text-anchor="start" x="12" y="-250.9" font-family="Helvetica,sans-Serif" font-size="12.00">+ virtual string getDataFor</text>
<text text-anchor="start" x="12" y="-237.9" font-family="Helvetica,sans-Serif" font-size="12.00">File()=0</text>
<text text-anchor="start" x="12" y="-224.9" font-family="Helvetica,sans-Serif" font-size="12.00">+ virtual void addData()=0</text>
</a>
</g>
</g>
<!-- Node2&#45;&gt;Node1 -->
<g id="edge1" class="edge">
<title>Node2&#45;&gt;Node1</title>
<path fill="none" stroke="midnightblue" d="M79.5,-206.87C79.5,-198.34 79.5,-189.43 79.5,-180.5"/>
<polygon fill="none" stroke="midnightblue" points="76,-207.07 79.5,-217.07 83,-207.07 76,-207.07"/>
</g>
</g>
</svg>
