<?xml version="1.0" encoding="UTF-8" standalone="no"?>
<!DOCTYPE svg PUBLIC "-//W3C//DTD SVG 1.1//EN"
 "http://www.w3.org/Graphics/SVG/1.1/DTD/svg11.dtd">
<!-- Generated by graphviz version 2.50.0 (20211204.2007)
 -->
<!-- Title: Person::loadDataFromFile Pages: 1 -->
<svg width="381pt" height="150pt"
 viewBox="0.00 0.00 381.00 150.00" xmlns="http://www.w3.org/2000/svg" xmlns:xlink="http://www.w3.org/1999/xlink">
<g id="graph0" class="graph" transform="scale(1 1) rotate(0) translate(4 146)">
<title>Person::loadDataFromFile</title>
<polygon fill="white" stroke="transparent" points="-4,4 -4,-146 377,-146 377,4 -4,4"/>
<!-- Node1 -->
<g id="node1" class="node">
<title>Node1</title>
<g id="a_node1"><a xlink:title=" ">
<polygon fill="#bfbfbf" stroke="black" points="0,-60.5 0,-81.5 155,-81.5 155,-60.5 0,-60.5"/>
<text text-anchor="middle" x="77.5" y="-67.9" font-family="Helvetica,sans-Serif" font-size="12.00">Person::loadDataFromFile</text>
</a>
</g>
</g>
<!-- Node2 -->
<g id="node2" class="node">
<title>Node2</title>
<g id="a_node2"><a xlink:href="class_yoga.html#a97aaa961fd71deb8450b2b6acdd6de94" target="_top" xlink:title=" ">
<polygon fill="white" stroke="black" points="209.5,-120.5 209.5,-141.5 354.5,-141.5 354.5,-120.5 209.5,-120.5"/>
<text text-anchor="middle" x="282" y="-127.9" font-family="Helvetica,sans-Serif" font-size="12.00">Yoga::loadDataFromFile</text>
</a>
</g>
</g>
<!-- Node1&#45;&gt;Node2 -->
<g id="edge1" class="edge">
<title>Node1&#45;&gt;Node2</title>
<path fill="none" stroke="midnightblue" d="M105.48,-81.65C128.08,-90.31 161.32,-102.46 191,-111 199.81,-113.54 209.19,-115.94 218.43,-118.14"/>
<polygon fill="midnightblue" stroke="midnightblue" points="217.84,-121.6 228.38,-120.45 219.43,-114.78 217.84,-121.6"/>
</g>
<!-- Node3 -->
<g id="node3" class="node">
<title>Node3</title>
<g id="a_node3"><a xlink:href="class_run.html#a3d526b27092ac87ccc7566846c87d311" target="_top" xlink:title=" ">
<polygon fill="white" stroke="black" points="213,-80.5 213,-101.5 351,-101.5 351,-80.5 213,-80.5"/>
<text text-anchor="middle" x="282" y="-87.9" font-family="Helvetica,sans-Serif" font-size="12.00">Run::loadDataFromFile</text>
</a>
</g>
</g>
<!-- Node1&#45;&gt;Node3 -->
<g id="edge2" class="edge">
<title>Node1&#45;&gt;Node3</title>
<path fill="none" stroke="midnightblue" d="M155.06,-78.56C170.68,-80.1 187.13,-81.73 202.8,-83.28"/>
<polygon fill="midnightblue" stroke="midnightblue" points="202.68,-86.78 212.98,-84.28 203.37,-79.82 202.68,-86.78"/>
</g>
<!-- Node4 -->
<g id="node4" class="node">
<title>Node4</title>
<g id="a_node4"><a xlink:href="class_swimming.html#ae7c9886f5ea1443dc0e7572f19fd03a9" target="_top" xlink:title=" ">
<polygon fill="white" stroke="black" points="195.5,-40.5 195.5,-61.5 368.5,-61.5 368.5,-40.5 195.5,-40.5"/>
<text text-anchor="middle" x="282" y="-47.9" font-family="Helvetica,sans-Serif" font-size="12.00">Swimming::loadDataFromFile</text>
</a>
</g>
</g>
<!-- Node1&#45;&gt;Node4 -->
<g id="edge3" class="edge">
<title>Node1&#45;&gt;Node4</title>
<path fill="none" stroke="midnightblue" d="M155.06,-63.44C164.88,-62.47 175.04,-61.46 185.13,-60.47"/>
<polygon fill="midnightblue" stroke="midnightblue" points="185.57,-63.94 195.18,-59.48 184.88,-56.98 185.57,-63.94"/>
</g>
<!-- Node5 -->
<g id="node5" class="node">
<title>Node5</title>
<g id="a_node5"><a xlink:href="class_weightlifting.html#a68980175f7047fba24f9e4621b6b2df4" target="_top" xlink:title=" ">
<polygon fill="white" stroke="black" points="191,-0.5 191,-21.5 373,-21.5 373,-0.5 191,-0.5"/>
<text text-anchor="middle" x="282" y="-7.9" font-family="Helvetica,sans-Serif" font-size="12.00">Weightlifting::loadDataFromFile</text>
</a>
</g>
</g>
<!-- Node1&#45;&gt;Node5 -->
<g id="edge4" class="edge">
<title>Node1&#45;&gt;Node5</title>
<path fill="none" stroke="midnightblue" d="M105.48,-60.35C128.08,-51.69 161.32,-39.54 191,-31 199.81,-28.46 209.19,-26.06 218.43,-23.86"/>
<polygon fill="midnightblue" stroke="midnightblue" points="219.43,-27.22 228.38,-21.55 217.84,-20.4 219.43,-27.22"/>
</g>
</g>
</svg>
