<?xml version="1.0" encoding="UTF-8" standalone="no"?>
<!DOCTYPE svg PUBLIC "-//W3C//DTD SVG 1.1//EN"
 "http://www.w3.org/Graphics/SVG/1.1/DTD/svg11.dtd">
<!-- Generated by graphviz version 2.50.0 (20211204.2007)
 -->
<!-- Title: Menu::showPerson Pages: 1 -->
<svg width="312pt" height="30pt"
 viewBox="0.00 0.00 312.00 30.00" xmlns="http://www.w3.org/2000/svg" xmlns:xlink="http://www.w3.org/1999/xlink">
<g id="graph0" class="graph" transform="scale(1 1) rotate(0) translate(4 26)">
<title>Menu::showPerson</title>
<polygon fill="white" stroke="transparent" points="-4,4 -4,-26 308,-26 308,4 -4,4"/>
<!-- Node1 -->
<g id="node1" class="node">
<title>Node1</title>
<g id="a_node1"><a xlink:title=" ">
<polygon fill="#bfbfbf" stroke="black" points="188,-0.5 188,-21.5 304,-21.5 304,-0.5 188,-0.5"/>
<text text-anchor="middle" x="246" y="-7.9" font-family="Helvetica,sans-Serif" font-size="12.00">Menu::showPerson</text>
</a>
</g>
</g>
<!-- Node2 -->
<g id="node2" class="node">
<title>Node2</title>
<g id="a_node2"><a xlink:href="class_menu.html#ae1ec62e738dda7faaaec850bd0b58ffe" target="_top" xlink:title=" ">
<polygon fill="white" stroke="black" points="78,-0.5 78,-21.5 152,-21.5 152,-0.5 78,-0.5"/>
<text text-anchor="middle" x="115" y="-7.9" font-family="Helvetica,sans-Serif" font-size="12.00">Menu::start</text>
</a>
</g>
</g>
<!-- Node1&#45;&gt;Node2 -->
<g id="edge1" class="edge">
<title>Node1&#45;&gt;Node2</title>
<path fill="none" stroke="midnightblue" d="M177.41,-11C168.66,-11 159.99,-11 152.04,-11"/>
<polygon fill="midnightblue" stroke="midnightblue" points="177.67,-14.5 187.67,-11 177.67,-7.5 177.67,-14.5"/>
</g>
<!-- Node3 -->
<g id="node3" class="node">
<title>Node3</title>
<g id="a_node3"><a xlink:href="_exercise_logger_8cpp.html#ae66f6b31b5ad750f1fe042a706a4e3d4" target="_top" xlink:title=" ">
<polygon fill="white" stroke="black" points="0,-0.5 0,-21.5 42,-21.5 42,-0.5 0,-0.5"/>
<text text-anchor="middle" x="21" y="-7.9" font-family="Helvetica,sans-Serif" font-size="12.00">main</text>
</a>
</g>
</g>
<!-- Node2&#45;&gt;Node3 -->
<g id="edge2" class="edge">
<title>Node2&#45;&gt;Node3</title>
<path fill="none" stroke="midnightblue" d="M67.77,-11C58.73,-11 49.7,-11 42.08,-11"/>
<polygon fill="midnightblue" stroke="midnightblue" points="67.9,-14.5 77.9,-11 67.9,-7.5 67.9,-14.5"/>
</g>
</g>
</svg>
