<?xml version="1.0" encoding="UTF-8" standalone="no"?>
<!DOCTYPE svg PUBLIC "-//W3C//DTD SVG 1.1//EN"
 "http://www.w3.org/Graphics/SVG/1.1/DTD/svg11.dtd">
<!-- Generated by graphviz version 2.50.0 (20211204.2007)
 -->
<!-- Title: Menu::printPersonVector Pages: 1 -->
<svg width="518pt" height="110pt"
 viewBox="0.00 0.00 518.00 110.00" xmlns="http://www.w3.org/2000/svg" xmlns:xlink="http://www.w3.org/1999/xlink">
<g id="graph0" class="graph" transform="scale(1 1) rotate(0) translate(4 106)">
<title>Menu::printPersonVector</title>
<polygon fill="white" stroke="transparent" points="-4,4 -4,-106 514,-106 514,4 -4,4"/>
<!-- Node1 -->
<g id="node1" class="node">
<title>Node1</title>
<g id="a_node1"><a xlink:title=" ">
<polygon fill="#bfbfbf" stroke="black" points="364,-40.5 364,-61.5 510,-61.5 510,-40.5 364,-40.5"/>
<text text-anchor="middle" x="437" y="-47.9" font-family="Helvetica,sans-Serif" font-size="12.00">Menu::printPersonVector</text>
</a>
</g>
</g>
<!-- Node2 -->
<g id="node2" class="node">
<title>Node2</title>
<g id="a_node2"><a xlink:href="class_menu.html#a70673c67e9c671ec8930868f90467760" target="_top" xlink:title=" ">
<polygon fill="white" stroke="black" points="188,-80.5 188,-101.5 328,-101.5 328,-80.5 188,-80.5"/>
<text text-anchor="middle" x="258" y="-87.9" font-family="Helvetica,sans-Serif" font-size="12.00">Menu::addNewExercise</text>
</a>
</g>
</g>
<!-- Node1&#45;&gt;Node2 -->
<g id="edge1" class="edge">
<title>Node1&#45;&gt;Node2</title>
<path fill="none" stroke="midnightblue" d="M379.51,-63.77C355.64,-69.16 328.18,-75.37 305.5,-80.49"/>
<polygon fill="midnightblue" stroke="midnightblue" points="380.51,-67.13 389.5,-61.51 378.97,-60.3 380.51,-67.13"/>
</g>
<!-- Node5 -->
<g id="node5" class="node">
<title>Node5</title>
<g id="a_node5"><a xlink:href="class_menu.html#ab24a09633db8d1be3bcd84adf059f0d6" target="_top" xlink:title=" ">
<polygon fill="white" stroke="black" points="204,-40.5 204,-61.5 312,-61.5 312,-40.5 204,-40.5"/>
<text text-anchor="middle" x="258" y="-47.9" font-family="Helvetica,sans-Serif" font-size="12.00">Menu::editPerson</text>
</a>
</g>
</g>
<!-- Node1&#45;&gt;Node5 -->
<g id="edge4" class="edge">
<title>Node1&#45;&gt;Node5</title>
<path fill="none" stroke="midnightblue" d="M353.54,-51C339.43,-51 325.12,-51 312.04,-51"/>
<polygon fill="midnightblue" stroke="midnightblue" points="353.75,-54.5 363.75,-51 353.75,-47.5 353.75,-54.5"/>
</g>
<!-- Node6 -->
<g id="node6" class="node">
<title>Node6</title>
<g id="a_node6"><a xlink:href="class_menu.html#a8196e617d71a059fc968f522eed4c4ca" target="_top" xlink:title=" ">
<polygon fill="white" stroke="black" points="200,-0.5 200,-21.5 316,-21.5 316,-0.5 200,-0.5"/>
<text text-anchor="middle" x="258" y="-7.9" font-family="Helvetica,sans-Serif" font-size="12.00">Menu::showPerson</text>
</a>
</g>
</g>
<!-- Node1&#45;&gt;Node6 -->
<g id="edge6" class="edge">
<title>Node1&#45;&gt;Node6</title>
<path fill="none" stroke="midnightblue" d="M379.51,-38.23C355.64,-32.84 328.18,-26.63 305.5,-21.51"/>
<polygon fill="midnightblue" stroke="midnightblue" points="378.97,-41.7 389.5,-40.49 380.51,-34.87 378.97,-41.7"/>
</g>
<!-- Node3 -->
<g id="node3" class="node">
<title>Node3</title>
<g id="a_node3"><a xlink:href="class_menu.html#ae1ec62e738dda7faaaec850bd0b58ffe" target="_top" xlink:title=" ">
<polygon fill="white" stroke="black" points="78,-40.5 78,-61.5 152,-61.5 152,-40.5 78,-40.5"/>
<text text-anchor="middle" x="115" y="-47.9" font-family="Helvetica,sans-Serif" font-size="12.00">Menu::start</text>
</a>
</g>
</g>
<!-- Node2&#45;&gt;Node3 -->
<g id="edge2" class="edge">
<title>Node2&#45;&gt;Node3</title>
<path fill="none" stroke="midnightblue" d="M210.09,-77.69C191.27,-72.35 169.91,-66.29 152.31,-61.3"/>
<polygon fill="midnightblue" stroke="midnightblue" points="209.38,-81.13 219.95,-80.49 211.29,-74.39 209.38,-81.13"/>
</g>
<!-- Node4 -->
<g id="node4" class="node">
<title>Node4</title>
<g id="a_node4"><a xlink:href="_exercise_logger_8cpp.html#ae66f6b31b5ad750f1fe042a706a4e3d4" target="_top" xlink:title=" ">
<polygon fill="white" stroke="black" points="0,-40.5 0,-61.5 42,-61.5 42,-40.5 0,-40.5"/>
<text text-anchor="middle" x="21" y="-47.9" font-family="Helvetica,sans-Serif" font-size="12.00">main</text>
</a>
</g>
</g>
<!-- Node3&#45;&gt;Node4 -->
<g id="edge3" class="edge">
<title>Node3&#45;&gt;Node4</title>
<path fill="none" stroke="midnightblue" d="M67.77,-51C58.73,-51 49.7,-51 42.08,-51"/>
<polygon fill="midnightblue" stroke="midnightblue" points="67.9,-54.5 77.9,-51 67.9,-47.5 67.9,-54.5"/>
</g>
<!-- Node5&#45;&gt;Node3 -->
<g id="edge5" class="edge">
<title>Node5&#45;&gt;Node3</title>
<path fill="none" stroke="midnightblue" d="M193.51,-51C179.38,-51 164.88,-51 152.29,-51"/>
<polygon fill="midnightblue" stroke="midnightblue" points="193.69,-54.5 203.69,-51 193.69,-47.5 193.69,-54.5"/>
</g>
<!-- Node6&#45;&gt;Node3 -->
<g id="edge7" class="edge">
<title>Node6&#45;&gt;Node3</title>
<path fill="none" stroke="midnightblue" d="M210.09,-24.31C191.27,-29.65 169.91,-35.71 152.31,-40.7"/>
<polygon fill="midnightblue" stroke="midnightblue" points="211.29,-27.61 219.95,-21.51 209.38,-20.87 211.29,-27.61"/>
</g>
</g>
</svg>
