<?xml version="1.0" encoding="UTF-8" standalone="no"?>
<!DOCTYPE svg PUBLIC "-//W3C//DTD SVG 1.1//EN"
 "http://www.w3.org/Graphics/SVG/1.1/DTD/svg11.dtd">
<!-- Generated by graphviz version 2.50.0 (20211204.2007)
 -->
<!-- Title: Person::addData Pages: 1 -->
<svg width="444pt" height="150pt"
 viewBox="0.00 0.00 444.00 150.00" xmlns="http://www.w3.org/2000/svg" xmlns:xlink="http://www.w3.org/1999/xlink">
<g id="graph0" class="graph" transform="scale(1 1) rotate(0) translate(4 146)">
<title>Person::addData</title>
<polygon fill="white" stroke="transparent" points="-4,4 -4,-146 440,-146 440,4 -4,4"/>
<!-- Node1 -->
<g id="node1" class="node">
<title>Node1</title>
<g id="a_node1"><a xlink:title=" ">
<polygon fill="#bfbfbf" stroke="black" points="0,-60.5 0,-81.5 106,-81.5 106,-60.5 0,-60.5"/>
<text text-anchor="middle" x="53" y="-67.9" font-family="Helvetica,sans-Serif" font-size="12.00">Person::addData</text>
</a>
</g>
</g>
<!-- Node2 -->
<g id="node2" class="node">
<title>Node2</title>
<g id="a_node2"><a xlink:href="class_person.html#a26a9c92ced3166b11140e0bda83b1eb3" target="_top" xlink:title=" ">
<polygon fill="white" stroke="black" points="142,-60.5 142,-81.5 268,-81.5 268,-60.5 142,-60.5"/>
<text text-anchor="middle" x="205" y="-67.9" font-family="Helvetica,sans-Serif" font-size="12.00">Person::addExercise</text>
</a>
</g>
</g>
<!-- Node1&#45;&gt;Node2 -->
<g id="edge1" class="edge">
<title>Node1&#45;&gt;Node2</title>
<path fill="none" stroke="midnightblue" d="M106.04,-71C114.37,-71 123.12,-71 131.82,-71"/>
<polygon fill="midnightblue" stroke="midnightblue" points="131.99,-74.5 141.99,-71 131.99,-67.5 131.99,-74.5"/>
</g>
<!-- Node3 -->
<g id="node3" class="node">
<title>Node3</title>
<g id="a_node3"><a xlink:href="class_run.html#aeda5a32098dffc91e53ee8941dc109f3" target="_top" xlink:title=" ">
<polygon fill="white" stroke="black" points="325.5,-120.5 325.5,-141.5 414.5,-141.5 414.5,-120.5 325.5,-120.5"/>
<text text-anchor="middle" x="370" y="-127.9" font-family="Helvetica,sans-Serif" font-size="12.00">Run::addData</text>
</a>
</g>
</g>
<!-- Node2&#45;&gt;Node3 -->
<g id="edge2" class="edge">
<title>Node2&#45;&gt;Node3</title>
<path fill="none" stroke="midnightblue" d="M230.33,-81.64C250.02,-90.07 278.56,-101.91 304,-111 310.06,-113.16 316.48,-115.31 322.84,-117.35"/>
<polygon fill="midnightblue" stroke="midnightblue" points="322.12,-120.8 332.71,-120.46 324.22,-114.12 322.12,-120.8"/>
</g>
<!-- Node4 -->
<g id="node4" class="node">
<title>Node4</title>
<g id="a_node4"><a xlink:href="class_swimming.html#ac0790d61cd6663f894e3aae8da15fd2d" target="_top" xlink:title=" ">
<polygon fill="white" stroke="black" points="308.5,-80.5 308.5,-101.5 431.5,-101.5 431.5,-80.5 308.5,-80.5"/>
<text text-anchor="middle" x="370" y="-87.9" font-family="Helvetica,sans-Serif" font-size="12.00">Swimming::addData</text>
</a>
</g>
</g>
<!-- Node2&#45;&gt;Node4 -->
<g id="edge3" class="edge">
<title>Node2&#45;&gt;Node4</title>
<path fill="none" stroke="midnightblue" d="M268.09,-78.62C278.01,-79.84 288.33,-81.1 298.43,-82.34"/>
<polygon fill="midnightblue" stroke="midnightblue" points="298.08,-85.82 308.43,-83.57 298.93,-78.88 298.08,-85.82"/>
</g>
<!-- Node5 -->
<g id="node5" class="node">
<title>Node5</title>
<g id="a_node5"><a xlink:href="class_weightlifting.html#a8800d964a57bbbb5ae1a2c6ca613f322" target="_top" xlink:title=" ">
<polygon fill="white" stroke="black" points="304,-40.5 304,-61.5 436,-61.5 436,-40.5 304,-40.5"/>
<text text-anchor="middle" x="370" y="-47.9" font-family="Helvetica,sans-Serif" font-size="12.00">Weightlifting::addData</text>
</a>
</g>
</g>
<!-- Node2&#45;&gt;Node5 -->
<g id="edge4" class="edge">
<title>Node2&#45;&gt;Node5</title>
<path fill="none" stroke="midnightblue" d="M268.09,-63.38C276.49,-62.35 285.19,-61.28 293.8,-60.23"/>
<polygon fill="midnightblue" stroke="midnightblue" points="294.33,-63.69 303.83,-59 293.48,-56.74 294.33,-63.69"/>
</g>
<!-- Node6 -->
<g id="node6" class="node">
<title>Node6</title>
<g id="a_node6"><a xlink:href="class_yoga.html#a6d45e2b9163ebc99a1a8cba100d8c00b" target="_top" xlink:title=" ">
<polygon fill="white" stroke="black" points="322.5,-0.5 322.5,-21.5 417.5,-21.5 417.5,-0.5 322.5,-0.5"/>
<text text-anchor="middle" x="370" y="-7.9" font-family="Helvetica,sans-Serif" font-size="12.00">Yoga::addData</text>
</a>
</g>
</g>
<!-- Node2&#45;&gt;Node6 -->
<g id="edge5" class="edge">
<title>Node2&#45;&gt;Node6</title>
<path fill="none" stroke="midnightblue" d="M230.33,-60.36C250.02,-51.93 278.56,-40.09 304,-31 310.06,-28.84 316.48,-26.69 322.84,-24.65"/>
<polygon fill="midnightblue" stroke="midnightblue" points="324.22,-27.88 332.71,-21.54 322.12,-21.2 324.22,-27.88"/>
</g>
</g>
</svg>
