<?xml version="1.0" encoding="UTF-8" standalone="no"?>
<!DOCTYPE svg PUBLIC "-//W3C//DTD SVG 1.1//EN"
 "http://www.w3.org/Graphics/SVG/1.1/DTD/svg11.dtd">
<!-- Generated by graphviz version 2.50.0 (20211204.2007)
 -->
<!-- Title: Person::addData Pages: 1 -->
<svg width="444pt" height="110pt"
 viewBox="0.00 0.00 444.00 110.00" xmlns="http://www.w3.org/2000/svg" xmlns:xlink="http://www.w3.org/1999/xlink">
<g id="graph0" class="graph" transform="scale(1 1) rotate(0) translate(4 106)">
<title>Person::addData</title>
<polygon fill="white" stroke="transparent" points="-4,4 -4,-106 440,-106 440,4 -4,4"/>
<!-- Node1 -->
<g id="node1" class="node">
<title>Node1</title>
<g id="a_node1"><a xlink:title=" ">
<polygon fill="#bfbfbf" stroke="black" points="0,-40.5 0,-61.5 106,-61.5 106,-40.5 0,-40.5"/>
<text text-anchor="middle" x="53" y="-47.9" font-family="Helvetica,sans-Serif" font-size="12.00">Person::addData</text>
</a>
</g>
</g>
<!-- Node2 -->
<g id="node2" class="node">
<title>Node2</title>
<g id="a_node2"><a xlink:href="class_person.html#a26a9c92ced3166b11140e0bda83b1eb3" target="_top" xlink:title=" ">
<polygon fill="white" stroke="black" points="142,-40.5 142,-61.5 268,-61.5 268,-40.5 142,-40.5"/>
<text text-anchor="middle" x="205" y="-47.9" font-family="Helvetica,sans-Serif" font-size="12.00">Person::addExercise</text>
</a>
</g>
</g>
<!-- Node1&#45;&gt;Node2 -->
<g id="edge1" class="edge">
<title>Node1&#45;&gt;Node2</title>
<path fill="none" stroke="midnightblue" d="M106.04,-51C114.37,-51 123.12,-51 131.82,-51"/>
<polygon fill="midnightblue" stroke="midnightblue" points="131.99,-54.5 141.99,-51 131.99,-47.5 131.99,-54.5"/>
</g>
<!-- Node3 -->
<g id="node3" class="node">
<title>Node3</title>
<g id="a_node3"><a xlink:href="class_run.html#aeda5a32098dffc91e53ee8941dc109f3" target="_top" xlink:title=" ">
<polygon fill="white" stroke="black" points="325.5,-80.5 325.5,-101.5 414.5,-101.5 414.5,-80.5 325.5,-80.5"/>
<text text-anchor="middle" x="370" y="-87.9" font-family="Helvetica,sans-Serif" font-size="12.00">Run::addData</text>
</a>
</g>
</g>
<!-- Node2&#45;&gt;Node3 -->
<g id="edge2" class="edge">
<title>Node2&#45;&gt;Node3</title>
<path fill="none" stroke="midnightblue" d="M248.83,-61.51C269.52,-66.59 294.55,-72.73 316.39,-78.09"/>
<polygon fill="midnightblue" stroke="midnightblue" points="315.63,-81.51 326.18,-80.49 317.3,-74.71 315.63,-81.51"/>
</g>
<!-- Node4 -->
<g id="node4" class="node">
<title>Node4</title>
<g id="a_node4"><a xlink:href="class_swimming.html#ac0790d61cd6663f894e3aae8da15fd2d" target="_top" xlink:title=" ">
<polygon fill="white" stroke="black" points="308.5,-40.5 308.5,-61.5 431.5,-61.5 431.5,-40.5 308.5,-40.5"/>
<text text-anchor="middle" x="370" y="-47.9" font-family="Helvetica,sans-Serif" font-size="12.00">Swimming::addData</text>
</a>
</g>
</g>
<!-- Node2&#45;&gt;Node4 -->
<g id="edge3" class="edge">
<title>Node2&#45;&gt;Node4</title>
<path fill="none" stroke="midnightblue" d="M268.09,-51C277.9,-51 288.12,-51 298.12,-51"/>
<polygon fill="midnightblue" stroke="midnightblue" points="298.43,-54.5 308.43,-51 298.43,-47.5 298.43,-54.5"/>
</g>
<!-- Node5 -->
<g id="node5" class="node">
<title>Node5</title>
<g id="a_node5"><a xlink:href="class_weightlifting.html#a8800d964a57bbbb5ae1a2c6ca613f322" target="_top" xlink:title=" ">
<polygon fill="white" stroke="black" points="304,-0.5 304,-21.5 436,-21.5 436,-0.5 304,-0.5"/>
<text text-anchor="middle" x="370" y="-7.9" font-family="Helvetica,sans-Serif" font-size="12.00">Weightlifting::addData</text>
</a>
</g>
</g>
<!-- Node2&#45;&gt;Node5 -->
<g id="edge4" class="edge">
<title>Node2&#45;&gt;Node5</title>
<path fill="none" stroke="midnightblue" d="M248.83,-40.49C269.52,-35.41 294.55,-29.27 316.39,-23.91"/>
<polygon fill="midnightblue" stroke="midnightblue" points="317.3,-27.29 326.18,-21.51 315.63,-20.49 317.3,-27.29"/>
</g>
</g>
</svg>
