<?xml version="1.0" encoding="UTF-8" standalone="no"?>
<!DOCTYPE svg PUBLIC "-//W3C//DTD SVG 1.1//EN"
 "http://www.w3.org/Graphics/SVG/1.1/DTD/svg11.dtd">
<!-- Generated by graphviz version 2.50.0 (20211204.2007)
 -->
<!-- Title: Menu::loadFromFile Pages: 1 -->
<svg width="538pt" height="150pt"
 viewBox="0.00 0.00 538.00 150.00" xmlns="http://www.w3.org/2000/svg" xmlns:xlink="http://www.w3.org/1999/xlink">
<g id="graph0" class="graph" transform="scale(1 1) rotate(0) translate(4 146)">
<title>Menu::loadFromFile</title>
<polygon fill="white" stroke="transparent" points="-4,4 -4,-146 534,-146 534,4 -4,4"/>
<!-- Node1 -->
<g id="node1" class="node">
<title>Node1</title>
<g id="a_node1"><a xlink:title=" ">
<polygon fill="#bfbfbf" stroke="black" points="0,-60.5 0,-81.5 121,-81.5 121,-60.5 0,-60.5"/>
<text text-anchor="middle" x="60.5" y="-67.9" font-family="Helvetica,sans-Serif" font-size="12.00">Menu::loadFromFile</text>
</a>
</g>
</g>
<!-- Node2 -->
<g id="node2" class="node">
<title>Node2</title>
<g id="a_node2"><a xlink:href="class_person.html#ad4703ef7c3ce2ed4ff7fbfb26ead614d" target="_top" xlink:title=" ">
<polygon fill="white" stroke="black" points="157,-60.5 157,-81.5 312,-81.5 312,-60.5 157,-60.5"/>
<text text-anchor="middle" x="234.5" y="-67.9" font-family="Helvetica,sans-Serif" font-size="12.00">Person::loadDataFromFile</text>
</a>
</g>
</g>
<!-- Node1&#45;&gt;Node2 -->
<g id="edge1" class="edge">
<title>Node1&#45;&gt;Node2</title>
<path fill="none" stroke="midnightblue" d="M121.17,-71C129.47,-71 138.13,-71 146.8,-71"/>
<polygon fill="midnightblue" stroke="midnightblue" points="146.97,-74.5 156.97,-71 146.97,-67.5 146.97,-74.5"/>
</g>
<!-- Node3 -->
<g id="node3" class="node">
<title>Node3</title>
<g id="a_node3"><a xlink:href="class_yoga.html#a97aaa961fd71deb8450b2b6acdd6de94" target="_top" xlink:title=" ">
<polygon fill="white" stroke="black" points="366.5,-120.5 366.5,-141.5 511.5,-141.5 511.5,-120.5 366.5,-120.5"/>
<text text-anchor="middle" x="439" y="-127.9" font-family="Helvetica,sans-Serif" font-size="12.00">Yoga::loadDataFromFile</text>
</a>
</g>
</g>
<!-- Node2&#45;&gt;Node3 -->
<g id="edge2" class="edge">
<title>Node2&#45;&gt;Node3</title>
<path fill="none" stroke="midnightblue" d="M262.48,-81.65C285.08,-90.31 318.32,-102.46 348,-111 356.81,-113.54 366.19,-115.94 375.43,-118.14"/>
<polygon fill="midnightblue" stroke="midnightblue" points="374.84,-121.6 385.38,-120.45 376.43,-114.78 374.84,-121.6"/>
</g>
<!-- Node4 -->
<g id="node4" class="node">
<title>Node4</title>
<g id="a_node4"><a xlink:href="class_run.html#a3d526b27092ac87ccc7566846c87d311" target="_top" xlink:title=" ">
<polygon fill="white" stroke="black" points="370,-80.5 370,-101.5 508,-101.5 508,-80.5 370,-80.5"/>
<text text-anchor="middle" x="439" y="-87.9" font-family="Helvetica,sans-Serif" font-size="12.00">Run::loadDataFromFile</text>
</a>
</g>
</g>
<!-- Node2&#45;&gt;Node4 -->
<g id="edge3" class="edge">
<title>Node2&#45;&gt;Node4</title>
<path fill="none" stroke="midnightblue" d="M312.06,-78.56C327.68,-80.1 344.13,-81.73 359.8,-83.28"/>
<polygon fill="midnightblue" stroke="midnightblue" points="359.68,-86.78 369.98,-84.28 360.37,-79.82 359.68,-86.78"/>
</g>
<!-- Node5 -->
<g id="node5" class="node">
<title>Node5</title>
<g id="a_node5"><a xlink:href="class_swimming.html#ae7c9886f5ea1443dc0e7572f19fd03a9" target="_top" xlink:title=" ">
<polygon fill="white" stroke="black" points="352.5,-40.5 352.5,-61.5 525.5,-61.5 525.5,-40.5 352.5,-40.5"/>
<text text-anchor="middle" x="439" y="-47.9" font-family="Helvetica,sans-Serif" font-size="12.00">Swimming::loadDataFromFile</text>
</a>
</g>
</g>
<!-- Node2&#45;&gt;Node5 -->
<g id="edge4" class="edge">
<title>Node2&#45;&gt;Node5</title>
<path fill="none" stroke="midnightblue" d="M312.06,-63.44C321.88,-62.47 332.04,-61.46 342.13,-60.47"/>
<polygon fill="midnightblue" stroke="midnightblue" points="342.57,-63.94 352.18,-59.48 341.88,-56.98 342.57,-63.94"/>
</g>
<!-- Node6 -->
<g id="node6" class="node">
<title>Node6</title>
<g id="a_node6"><a xlink:href="class_weightlifting.html#a68980175f7047fba24f9e4621b6b2df4" target="_top" xlink:title=" ">
<polygon fill="white" stroke="black" points="348,-0.5 348,-21.5 530,-21.5 530,-0.5 348,-0.5"/>
<text text-anchor="middle" x="439" y="-7.9" font-family="Helvetica,sans-Serif" font-size="12.00">Weightlifting::loadDataFromFile</text>
</a>
</g>
</g>
<!-- Node2&#45;&gt;Node6 -->
<g id="edge5" class="edge">
<title>Node2&#45;&gt;Node6</title>
<path fill="none" stroke="midnightblue" d="M262.48,-60.35C285.08,-51.69 318.32,-39.54 348,-31 356.81,-28.46 366.19,-26.06 375.43,-23.86"/>
<polygon fill="midnightblue" stroke="midnightblue" points="376.43,-27.22 385.38,-21.55 374.84,-20.4 376.43,-27.22"/>
</g>
</g>
</svg>
