<?xml version="1.0" encoding="UTF-8" standalone="no"?>
<!DOCTYPE svg PUBLIC "-//W3C//DTD SVG 1.1//EN"
 "http://www.w3.org/Graphics/SVG/1.1/DTD/svg11.dtd">
<!-- Generated by graphviz version 2.50.0 (20211204.2007)
 -->
<!-- Title: Graphical Class Hierarchy Pages: 1 -->
<svg width="263pt" height="110pt"
 viewBox="0.00 0.00 263.00 110.00" xmlns="http://www.w3.org/2000/svg" xmlns:xlink="http://www.w3.org/1999/xlink">
<g id="graph0" class="graph" transform="scale(1 1) rotate(0) translate(4 106)">
<title>Graphical Class Hierarchy</title>
<polygon fill="white" stroke="transparent" points="-4,4 -4,-106 259,-106 259,4 -4,4"/>
<!-- Node0 -->
<g id="node1" class="node">
<title>Node0</title>
<g id="a_node1"><a xlink:href="class_exercise.html" target="_top" xlink:title=" ">
<polygon fill="white" stroke="black" points="0,-40.5 0,-61.5 62,-61.5 62,-40.5 0,-40.5"/>
<text text-anchor="middle" x="31" y="-47.9" font-family="Helvetica,sans-Serif" font-size="12.00">Exercise</text>
</a>
</g>
</g>
<!-- Node1 -->
<g id="node2" class="node">
<title>Node1</title>
<g id="a_node2"><a xlink:href="class_run.html" target="_top" xlink:title=" ">
<polygon fill="white" stroke="black" points="119.5,-80.5 119.5,-101.5 156.5,-101.5 156.5,-80.5 119.5,-80.5"/>
<text text-anchor="middle" x="138" y="-87.9" font-family="Helvetica,sans-Serif" font-size="12.00">Run</text>
</a>
</g>
</g>
<!-- Node0&#45;&gt;Node1 -->
<g id="edge1" class="edge">
<title>Node0&#45;&gt;Node1</title>
<path fill="none" stroke="midnightblue" d="M69.31,-65.21C86.39,-71.72 105.82,-79.12 119.47,-84.32"/>
<polygon fill="midnightblue" stroke="midnightblue" points="70.18,-61.8 59.59,-61.51 67.69,-68.34 70.18,-61.8"/>
</g>
<!-- Node3 -->
<g id="node4" class="node">
<title>Node3</title>
<g id="a_node4"><a xlink:href="class_swimming.html" target="_top" xlink:title=" ">
<polygon fill="white" stroke="black" points="102.5,-40.5 102.5,-61.5 173.5,-61.5 173.5,-40.5 102.5,-40.5"/>
<text text-anchor="middle" x="138" y="-47.9" font-family="Helvetica,sans-Serif" font-size="12.00">Swimming</text>
</a>
</g>
</g>
<!-- Node0&#45;&gt;Node3 -->
<g id="edge3" class="edge">
<title>Node0&#45;&gt;Node3</title>
<path fill="none" stroke="midnightblue" d="M72.2,-51C82.18,-51 92.78,-51 102.46,-51"/>
<polygon fill="midnightblue" stroke="midnightblue" points="72.09,-47.5 62.09,-51 72.09,-54.5 72.09,-47.5"/>
</g>
<!-- Node4 -->
<g id="node5" class="node">
<title>Node4</title>
<g id="a_node5"><a xlink:href="class_weightlifting.html" target="_top" xlink:title=" ">
<polygon fill="white" stroke="black" points="98,-0.5 98,-21.5 178,-21.5 178,-0.5 98,-0.5"/>
<text text-anchor="middle" x="138" y="-7.9" font-family="Helvetica,sans-Serif" font-size="12.00">Weightlifting</text>
</a>
</g>
</g>
<!-- Node0&#45;&gt;Node4 -->
<g id="edge4" class="edge">
<title>Node0&#45;&gt;Node4</title>
<path fill="none" stroke="midnightblue" d="M69.31,-36.79C82.46,-31.78 97.01,-26.24 109.23,-21.58"/>
<polygon fill="midnightblue" stroke="midnightblue" points="67.69,-33.66 59.59,-40.49 70.18,-40.2 67.69,-33.66"/>
</g>
<!-- Node2 -->
<g id="node3" class="node">
<title>Node2</title>
<g id="a_node3"><a xlink:href="class_hike.html" target="_top" xlink:title=" ">
<polygon fill="white" stroke="black" points="214,-80.5 214,-101.5 255,-101.5 255,-80.5 214,-80.5"/>
<text text-anchor="middle" x="234.5" y="-87.9" font-family="Helvetica,sans-Serif" font-size="12.00">Hike</text>
</a>
</g>
</g>
<!-- Node1&#45;&gt;Node2 -->
<g id="edge2" class="edge">
<title>Node1&#45;&gt;Node2</title>
<path fill="none" stroke="midnightblue" d="M167.07,-91C182.13,-91 200.31,-91 213.85,-91"/>
<polygon fill="midnightblue" stroke="midnightblue" points="166.77,-87.5 156.77,-91 166.77,-94.5 166.77,-87.5"/>
</g>
</g>
</svg>
