<?xml version="1.0" encoding="UTF-8" standalone="no"?>
<!DOCTYPE svg PUBLIC "-//W3C//DTD SVG 1.1//EN"
 "http://www.w3.org/Graphics/SVG/1.1/DTD/svg11.dtd">
<!-- Generated by graphviz version 2.50.0 (20211204.2007)
 -->
<!-- Title: Graphical Class Hierarchy Pages: 1 -->
<svg width="263pt" height="150pt"
 viewBox="0.00 0.00 263.00 150.00" xmlns="http://www.w3.org/2000/svg" xmlns:xlink="http://www.w3.org/1999/xlink">
<g id="graph0" class="graph" transform="scale(1 1) rotate(0) translate(4 146)">
<title>Graphical Class Hierarchy</title>
<polygon fill="white" stroke="transparent" points="-4,4 -4,-146 259,-146 259,4 -4,4"/>
<!-- Node0 -->
<g id="node1" class="node">
<title>Node0</title>
<g id="a_node1"><a xlink:href="class_exercise.html" target="_top" xlink:title=" ">
<polygon fill="white" stroke="black" points="0,-60.5 0,-81.5 62,-81.5 62,-60.5 0,-60.5"/>
<text text-anchor="middle" x="31" y="-67.9" font-family="Helvetica,sans-Serif" font-size="12.00">Exercise</text>
</a>
</g>
</g>
<!-- Node1 -->
<g id="node2" class="node">
<title>Node1</title>
<g id="a_node2"><a xlink:href="class_run.html" target="_top" xlink:title=" ">
<polygon fill="white" stroke="black" points="119.5,-120.5 119.5,-141.5 156.5,-141.5 156.5,-120.5 119.5,-120.5"/>
<text text-anchor="middle" x="138" y="-127.9" font-family="Helvetica,sans-Serif" font-size="12.00">Run</text>
</a>
</g>
</g>
<!-- Node0&#45;&gt;Node1 -->
<g id="edge1" class="edge">
<title>Node0&#45;&gt;Node1</title>
<path fill="none" stroke="midnightblue" d="M57.34,-86.94C69.52,-94.45 84.39,-103.4 98,-111 104.91,-114.86 112.64,-118.88 119.39,-122.3"/>
<polygon fill="midnightblue" stroke="midnightblue" points="58.97,-83.83 48.63,-81.53 55.28,-89.77 58.97,-83.83"/>
</g>
<!-- Node3 -->
<g id="node4" class="node">
<title>Node3</title>
<g id="a_node4"><a xlink:href="class_swimming.html" target="_top" xlink:title=" ">
<polygon fill="white" stroke="black" points="102.5,-80.5 102.5,-101.5 173.5,-101.5 173.5,-80.5 102.5,-80.5"/>
<text text-anchor="middle" x="138" y="-87.9" font-family="Helvetica,sans-Serif" font-size="12.00">Swimming</text>
</a>
</g>
</g>
<!-- Node0&#45;&gt;Node3 -->
<g id="edge3" class="edge">
<title>Node0&#45;&gt;Node3</title>
<path fill="none" stroke="midnightblue" d="M72.2,-78.66C82.18,-80.56 92.78,-82.58 102.46,-84.42"/>
<polygon fill="midnightblue" stroke="midnightblue" points="72.57,-75.16 62.09,-76.73 71.26,-82.04 72.57,-75.16"/>
</g>
<!-- Node4 -->
<g id="node5" class="node">
<title>Node4</title>
<g id="a_node5"><a xlink:href="class_weightlifting.html" target="_top" xlink:title=" ">
<polygon fill="white" stroke="black" points="98,-40.5 98,-61.5 178,-61.5 178,-40.5 98,-40.5"/>
<text text-anchor="middle" x="138" y="-47.9" font-family="Helvetica,sans-Serif" font-size="12.00">Weightlifting</text>
</a>
</g>
</g>
<!-- Node0&#45;&gt;Node4 -->
<g id="edge4" class="edge">
<title>Node0&#45;&gt;Node4</title>
<path fill="none" stroke="midnightblue" d="M72.11,-63.36C80.56,-61.75 89.47,-60.05 97.89,-58.45"/>
<polygon fill="midnightblue" stroke="midnightblue" points="71.26,-59.96 62.09,-65.27 72.57,-66.84 71.26,-59.96"/>
</g>
<!-- Node5 -->
<g id="node6" class="node">
<title>Node5</title>
<g id="a_node6"><a xlink:href="class_yoga.html" target="_top" xlink:title=" ">
<polygon fill="white" stroke="black" points="116,-0.5 116,-21.5 160,-21.5 160,-0.5 116,-0.5"/>
<text text-anchor="middle" x="138" y="-7.9" font-family="Helvetica,sans-Serif" font-size="12.00">Yoga</text>
</a>
</g>
</g>
<!-- Node0&#45;&gt;Node5 -->
<g id="edge5" class="edge">
<title>Node0&#45;&gt;Node5</title>
<path fill="none" stroke="midnightblue" d="M57.34,-55.06C69.52,-47.55 84.39,-38.6 98,-31 103.71,-27.81 109.99,-24.5 115.81,-21.52"/>
<polygon fill="midnightblue" stroke="midnightblue" points="55.28,-52.23 48.63,-60.47 58.97,-58.17 55.28,-52.23"/>
</g>
<!-- Node2 -->
<g id="node3" class="node">
<title>Node2</title>
<g id="a_node3"><a xlink:href="class_hike.html" target="_top" xlink:title=" ">
<polygon fill="white" stroke="black" points="214,-120.5 214,-141.5 255,-141.5 255,-120.5 214,-120.5"/>
<text text-anchor="middle" x="234.5" y="-127.9" font-family="Helvetica,sans-Serif" font-size="12.00">Hike</text>
</a>
</g>
</g>
<!-- Node1&#45;&gt;Node2 -->
<g id="edge2" class="edge">
<title>Node1&#45;&gt;Node2</title>
<path fill="none" stroke="midnightblue" d="M167.07,-131C182.13,-131 200.31,-131 213.85,-131"/>
<polygon fill="midnightblue" stroke="midnightblue" points="166.77,-127.5 156.77,-131 166.77,-134.5 166.77,-127.5"/>
</g>
</g>
</svg>
